{
.appVersion = "1349";
customParameters = (
{
name = description;
value = "Reem Kufi is a Kufic typeface based on early Kufic (Mushafi) modeles, but retrofitted to the Fatimid Kufic grid and with borrowing from its forms. Reem Kufi is largely based on the Kufic designs of the late master of Arabic calligraphy Mohammad Abdul Qadir who revived this art in the 20th century and formalised its rules.";
},
{
name = license;
value = "This Font Software is licensed under the SIL Open Font License, Version 1.1. This license is available with a FAQ at: http://scripts.sil.org/OFL";
},
{
name = licenseURL;
value = "http://scripts.sil.org/OFL";
},
{
name = openTypeNameSampleText;
value = "ريم على القاع بين البان و العلم   أحل سفك دمي في الأشهر الحرم";
},
{
name = fsType;
value = (
);
},
{
name = vendorID;
value = ALIF;
},
{
name = "Use Typo Metrics";
value = 1;
},
{
name = "Use Line Breaks";
value = 1;
},
{
name = "Disable Last Change";
value = 1;
},
{
name = "Don't use Production Names";
value = 0;
}
);
date = "2015-11-13 18:42:21 +0000";
designer = "Khaled Hosny";
designerURL = "https://github.com/alif-type";
familyName = "Reem Kufi";
featurePrefixes = (
{
code = "languagesystem arab dflt;
languagesystem arab URD;
languagesystem arab KSH;
languagesystem arab SND;

";
name = Languagesystems;
},
{
code = "feature locl {
  script arab;

  language URD;
    sub four-persian  by four-persian.urdu;
    sub six-persian   by six-ar;
    sub seven-persian by seven-persian.urdu;

  language KSH;
    sub four-persian  by four-persian.urdu;
    sub six-persian   by six-ar;
    sub seven-persian by seven-persian.urdu;

  language SND;
    sub six-persian   by six-ar;
    sub seven-persian by seven-persian.urdu;
} locl;

feature ccmp {
    sub alefMadda-ar by alef-ar madda-ar;
    sub alefHamzaabove-ar by alef-ar hamzaabove-ar;
    sub wawHamzaabove-ar by waw-ar hamzaabove-ar;
    sub alefHamzabelow-ar by alef-ar hamzabelow-ar;
    sub yehHamzaabove-ar by alefMaksura-ar hamzaabove-ar;

glyphs = (
{
glyphname = "hamza-ar";
layers = (
{
anchors = (
{
name = markAbove;
position = "{255, 550}";
},
{
name = markBelow;
position = "{245, -150}";
}
);
layerId = master01;
paths = (
{
closed = 1;
nodes = (
"382 46 LINE",
"381 100 LINE",
"348 100 LINE SMOOTH",
"315 100 OFFCURVE",
"265 112 OFFCURVE",
"265 166 CURVE SMOOTH",
"265 214 OFFCURVE",
"302 237 OFFCURVE",
"334 237 CURVE SMOOTH",
"371 237 OFFCURVE",
"399 220 OFFCURVE",
"409 214 CURVE",
"400 246 OFFCURVE",
"371 294 OFFCURVE",
"289 294 CURVE SMOOTH",
"212 294 OFFCURVE",
"156 219 OFFCURVE",
"158 116 CURVE SMOOTH",
"158 46 LINE"
);
},
{
closed = 1;
nodes = (
"435 0 LINE",
"495 100 LINE",
"85 100 LINE",
"25 0 LINE"
);
}
);
width = 520;
},
{
anchors = (
{
name = markAbove;
position = "{255, 550}";
},
{
name = markBelow;
position = "{245, -150}";
}
);
layerId = "A6CBEFC3-C9E0-479E-A224-60A030287C4A";
paths = (
{
closed = 1;
nodes = (
"402 46 LINE",
"401 140 LINE",
"348 140 LINE SMOOTH",
"300 140 OFFCURVE",
"279 166 OFFCURVE",
"279 194 CURVE SMOOTH",
"279 217 OFFCURVE",
"299 243 OFFCURVE",
"334 243 CURVE SMOOTH",
"366 243 OFFCURVE",
"408 225 OFFCURVE",
"442 191 CURVE",
"435 281 OFFCURVE",
"377 334 OFFCURVE",
"289 334 CURVE SMOOTH",
"201 334 OFFCURVE",
"138 251 OFFCURVE",
"138 136 CURVE SMOOTH",
"138 46 LINE"
);
},
{
closed = 1;
nodes = (
"412 0 LINE",
"495 140 LINE",
"108 140 LINE",
"25 0 LINE"
);
}
);
width = 520;
}
);
unicode = 0621;
},
{
glyphname = "alef-ar";
layers = (
{
anchors = (
{
name = hamzaAbove;
position = "{90, 850}";
},
{
name = hamzaBelow;
position = "{90, -50}";
},
{
name = markAbove;
position = "{90, 830}";
},
{
name = markBelow;
position = "{90, -150}";
}
);
layerId = master01;
paths = (
{
closed = 1;
nodes = (
"195 46 OFFCURVE",
"125 33 OFFCURVE",
"125 80 CURVE SMOOTH",
"125 800 LINE",
"25 778 LINE",
"25 80 LINE SMOOTH",
"25 -40 OFFCURVE",
"199 -17 OFFCURVE",
"220 58 CURVE"
);
}
);
width = 220;
},
{
anchors = (
{
name = hamzaAbove;
position = "{110, 850}";
},
{
name = hamzaBelow;
position = "{110, -50}";
},
{
name = markAbove;
position = "{110, 830}";
},
{
name = markBelow;
position = "{110, -150}";
}
);
layerId = "A6CBEFC3-C9E0-479E-A224-60A030287C4A";
paths = (
{
closed = 1;
nodes = (
"235 46 OFFCURVE",
"165 33 OFFCURVE",
"165 100 CURVE SMOOTH",
"165 800 LINE",
"25 769 LINE",
"25 100 LINE SMOOTH",
"25 -50 OFFCURVE",
"239 -17 OFFCURVE",
"260 58 CURVE"
);
}
);
width = 260;
}
);
unicode = 0627;
},
{
glyphname = "alef-ar.1";
layers = (
{
anchors = (
{
name = hamzaAbove;
position = "{90, 850}";
},
{
name = hamzaAbove.alt;
position = "{140, 850}";
},
{
name = hamzaBelow;
position = "{140, -50}";
},
{
name = markAbove;
position = "{90, 830}";
},
{
name = markBelow;
position = "{140, -150}";
}
);
layerId = master01;
paths = (
{
closed = 1;
nodes = (
"204 18 OFFCURVE",
"125 53 OFFCURVE",
"125 100 CURVE SMOOTH",
"125 800 LINE",
"25 778 LINE",
"25 100 LINE SMOOTH",
"25 -38 OFFCURVE",
"246 -35 OFFCURVE",
"313 72 CURVE"
);
}
);
width = 313;
},
{
anchors = (
{
name = hamzaAbove;
position = "{110, 850}";
},
{
name = hamzaAbove.alt;
position = "{160, 850}";
},
{
name = hamzaBelow;
position = "{160, -50}";
},
{
name = markAbove;
position = "{110, 830}";
},
{
name = markBelow;
position = "{160, -150}";
}
);
layerId = "A6CBEFC3-C9E0-479E-A224-60A030287C4A";
paths = (
{
closed = 1;
nodes = (
"244 18 OFFCURVE",
"165 73 OFFCURVE",
"165 140 CURVE SMOOTH",
"165 800 LINE",
"25 769 LINE",
"25 120 LINE SMOOTH",
"25 -40 OFFCURVE",
"286 -35 OFFCURVE",
"353 72 CURVE"
);
}
);
width = 353;
}
);
},
{
glyphname = "alef-ar.2";
layers = (
{
anchors = (
{
name = hamzaAbove;
position = "{90, 850}";
},
{
name = hamzaAbove.alt;
position = "{320, 560}";
},
{
name = hamzaBelow;
position = "{201, -50}";
},
{
name = markAbove;
position = "{90, 830}";
},
{
name = markBelow;
position = "{201, -150}";
}
);
layerId = master01;
paths = (
{
closed = 1;
nodes = (
"294 40 OFFCURVE",
"125 43 OFFCURVE",
"125 120 CURVE SMOOTH",
"125 800 LINE",
"25 778 LINE",
"25 120 LINE SMOOTH",
"25 -78 OFFCURVE",
"340 -7 OFFCURVE",
"418 101 CURVE"
);
}
);
width = 418;
},
{
anchors = (
{
name = hamzaAbove;
position = "{90, 850}";
},
{
name = hamzaAbove.alt;
position = "{320, 560}";
},
{
name = hamzaBelow;
position = "{201, -50}";
},
{
name = markAbove;
position = "{90, 830}";
},
{
name = markBelow;
position = "{201, -150}";
}
);
layerId = "A6CBEFC3-C9E0-479E-A224-60A030287C4A";
paths = (
{
closed = 1;
nodes = (
"334 50 OFFCURVE",
"165 53 OFFCURVE",
"165 150 CURVE SMOOTH",
"165 800 LINE",
"25 769 LINE",
"25 120 LINE SMOOTH",
"25 -78 OFFCURVE",
"350 -7 OFFCURVE",
"458 101 CURVE"
);
}
);
width = 458;
}
);
},
{
glyphname = "alef-ar.3";
layers = (
{
anchors = (
{
name = hamzaAbove;
position = "{90, 850}";
},
{
name = hamzaBelow;
position = "{90, -50}";
},
{
name = markAbove;
position = "{90, 830}";
},
{
name = markBelow;
position = "{90, -150}";
}
);
layerId = master01;
paths = (
{
closed = 1;
nodes = (
"31 -32 OFFCURVE",
"150 -10 OFFCURVE",
"150 80 CURVE SMOOTH",
"150 800 LINE",
"50 778 LINE",
"50 80 LINE SMOOTH",
"50 10 OFFCURVE",
"6 25 OFFCURVE",
"0 25 CURVE"
);
}
);
width = 175;
},
{
anchors = (
{
name = hamzaAbove;
position = "{130, 850}";
},
{
name = hamzaBelow;
position = "{130, -50}";
},
{
name = markAbove;
position = "{130, 830}";
},
{
name = markBelow;
position = "{130, -150}";
}
);
layerId = "A6CBEFC3-C9E0-479E-A224-60A030287C4A";
paths = (
{
closed = 1;
nodes = (
"31 -32 OFFCURVE",
"190 -20 OFFCURVE",
"190 100 CURVE SMOOTH",
"190 800 LINE",
"50 769 LINE",
"50 80 LINE SMOOTH",
"50 10 OFFCURVE",
"6 25 OFFCURVE",
"0 25 CURVE"
);
}
);
width = 215;
}
);
},
{
glyphname = "alef-ar.fina";
production = uni0627.fina;
layers = (
{
anchors = (
{
name = hamzaAbove;
position = "{90, 850}";
},
{
name = hamzaBelow;
position = "{90, -50}";
},
{
name = markAbove;
position = "{90, 830}";
},
{
name = markBelow;
position = "{90, -150}";
}
);
layerId = master01;
paths = (
{
closed = 1;
nodes = (
"245 0 LINE",
"245 100 LINE",
"125 100 LINE",
"125 800 LINE",
"25 778 LINE",
"25 23 LINE SMOOTH",
"25 -2 OFFCURVE",
"65 0 OFFCURVE",
"65 0 CURVE"
);
}
);
width = 225;
},
{
anchors = (
{
name = hamzaAbove;
position = "{90, 850}";
},
{
name = hamzaBelow;
position = "{90, -50}";
},
{
name = markAbove;
position = "{90, 830}";
},
{
name = markBelow;
position = "{90, -150}";
}
);
layerId = "A6CBEFC3-C9E0-479E-A224-60A030287C4A";
paths = (
{
closed = 1;
nodes = (
"245 0 LINE",
"245 140 LINE",
"165 140 LINE",
"165 800 LINE",
"25 769 LINE",
"25 23 LINE SMOOTH",
"25 -2 OFFCURVE",
"65 0 OFFCURVE",
"65 0 CURVE"
);
}
);
width = 225;
}
);
},
{
glyphname = "alef-ar.fina.Lam";
production = uni0627.fina.Lam;
layers = (
{
anchors = (
{
name = hamzaAbove;
position = "{90, 850}";
},
{
name = hamzaBelow;
position = "{90, -230}";
},
{
name = markAbove;
position = "{90, 830}";
},
{
name = markBelow;
position = "{90, -270}";
}
);
layerId = master01;
paths = (
{
closed = 1;
nodes = (
"125 800 LINE",
"25 778 LINE",
"25 150 LINE",
"125 100 LINE"
);
}
);
width = 0;
},
{
associatedMasterId = master01;
layerId = "EE75D887-8AA7-476D-95B1-CE8EF601A31A";
name = Back;
paths = (
{
closed = 1;
nodes = (
"325 67 OFFCURVE",
"257 0 OFFCURVE",
"175 0 CURVE SMOOTH",
"93 0 OFFCURVE",
"25 67 OFFCURVE",
"25 150 CURVE",
"125 150 LINE",
"125 122 OFFCURVE",
"147 100 OFFCURVE",
"175 100 CURVE SMOOTH",
"203 100 OFFCURVE",
"225 122 OFFCURVE",
"225 150 CURVE",
"325 150 LINE"
);
},
{
closed = 1;
nodes = (
"125 -78 OFFCURVE",
"147 -100 OFFCURVE",
"175 -100 CURVE SMOOTH",
"203 -100 OFFCURVE",
"225 -78 OFFCURVE",
"225 -50 CURVE SMOOTH",
"225 -22 OFFCURVE",
"203 0 OFFCURVE",
"175 0 CURVE SMOOTH",
"147 0 OFFCURVE",
"125 -22 OFFCURVE",
"125 -50 CURVE SMOOTH"
);
},
{
closed = 1;
nodes = (
"25 33 OFFCURVE",
"93 100 OFFCURVE",
"175 100 CURVE SMOOTH",
"257 100 OFFCURVE",
"324 33 OFFCURVE",
"324 -50 CURVE SMOOTH",
"324 -133 OFFCURVE",
"257 -200 OFFCURVE",
"175 -200 CURVE SMOOTH",
"93 -200 OFFCURVE",
"25 -133 OFFCURVE",
"25 -50 CURVE SMOOTH"
);
},
{
closed = 1;
nodes = (
"225 800 LINE",
"325 778 LINE",
"325 150 LINE",
"225 100 LINE"
);
}
);
width = 0;
},
{
anchors = (
{
name = hamzaAbove;
position = "{90, 850}";
},
{
name = hamzaBelow;
position = "{90, -230}";
},
{
name = markAbove;
position = "{90, 830}";
},
{
name = markBelow;
position = "{90, -270}";
}
);
layerId = "A6CBEFC3-C9E0-479E-A224-60A030287C4A";
paths = (
{
closed = 1;
nodes = (
"165 800 LINE",
"25 769 LINE",
"25 150 LINE",
"165 80 LINE"
);
}
);
width = 0;
},
{
associatedMasterId = "A6CBEFC3-C9E0-479E-A224-60A030287C4A";
layerId = "2B56FD14-03A5-44A4-AC68-0A98211BD920";
name = Back;
paths = (
{
closed = 1;
nodes = (
"325 67 OFFCURVE",
"257 0 OFFCURVE",
"175 0 CURVE SMOOTH",
"93 0 OFFCURVE",
"25 67 OFFCURVE",
"25 150 CURVE",
"125 150 LINE",
"125 122 OFFCURVE",
"147 100 OFFCURVE",
"175 100 CURVE SMOOTH",
"203 100 OFFCURVE",
"225 122 OFFCURVE",
"225 150 CURVE",
"325 150 LINE"
);
},
{
closed = 1;
nodes = (
"125 -78 OFFCURVE",
"147 -100 OFFCURVE",
"175 -100 CURVE SMOOTH",
"203 -100 OFFCURVE",
"225 -78 OFFCURVE",
"225 -50 CURVE SMOOTH",
"225 -22 OFFCURVE",
"203 0 OFFCURVE",
"175 0 CURVE SMOOTH",
"147 0 OFFCURVE",
"125 -22 OFFCURVE",
"125 -50 CURVE SMOOTH"
);
},
{
closed = 1;
nodes = (
"25 33 OFFCURVE",
"93 100 OFFCURVE",
"175 100 CURVE SMOOTH",
"257 100 OFFCURVE",
"324 33 OFFCURVE",
"324 -50 CURVE SMOOTH",
"324 -133 OFFCURVE",
"257 -200 OFFCURVE",
"175 -200 CURVE SMOOTH",
"93 -200 OFFCURVE",
"25 -133 OFFCURVE",
"25 -50 CURVE SMOOTH"
);
},
{
closed = 1;
nodes = (
"225 800 LINE",
"325 778 LINE",
"325 150 LINE",
"225 100 LINE"
);
}
);
width = 0;
}
);
},
{
glyphname = "alef-ar.fina.Lam.1";
production = uni0627.fina.Lam.1;
layers = (
{
anchors = (
{
name = hamzaAbove;
position = "{90, 850}";
},
{
name = hamzaBelow;
position = "{90, -50}";
},
{
name = markAbove;
position = "{90, 830}";
},
{
name = markBelow;
position = "{90, -150}";
}
);
layerId = master01;
paths = (
{
closed = 1;
nodes = (
"125 800 LINE",
"25 778 LINE",
"25 350 LINE",
"125 300 LINE"
);
}
);
width = 0;
},
{
associatedMasterId = master01;
layerId = "72DD56E9-DC81-4930-90EF-C1FDB1BF7A48";
name = Back;
paths = (
{
closed = 1;
nodes = (
"325 267 OFFCURVE",
"257 200 OFFCURVE",
"175 200 CURVE SMOOTH",
"93 200 OFFCURVE",
"25 267 OFFCURVE",
"25 350 CURVE",
"125 350 LINE",
"125 322 OFFCURVE",
"147 300 OFFCURVE",
"175 300 CURVE SMOOTH",
"203 300 OFFCURVE",
"225 322 OFFCURVE",
"225 350 CURVE",
"325 350 LINE"
);
},
{
closed = 1;
nodes = (
"125 122 OFFCURVE",
"147 100 OFFCURVE",
"175 100 CURVE SMOOTH",
"203 100 OFFCURVE",
"225 122 OFFCURVE",
"225 150 CURVE SMOOTH",
"225 178 OFFCURVE",
"203 200 OFFCURVE",
"175 200 CURVE SMOOTH",
"147 200 OFFCURVE",
"125 178 OFFCURVE",
"125 150 CURVE SMOOTH"
);
},
{
closed = 1;
nodes = (
"25 233 OFFCURVE",
"93 300 OFFCURVE",
"175 300 CURVE SMOOTH",
"257 300 OFFCURVE",
"324 233 OFFCURVE",
"324 150 CURVE SMOOTH",
"324 67 OFFCURVE",
"257 0 OFFCURVE",
"175 0 CURVE SMOOTH",
"93 0 OFFCURVE",
"25 67 OFFCURVE",
"25 150 CURVE SMOOTH"
);
},
{
closed = 1;
nodes = (
"25 778 LINE",
"125 800 LINE",
"125 300 LINE",
"25 350 LINE"
);
},
{
closed = 1;
nodes = (
"225 800 LINE",
"325 778 LINE",
"325 350 LINE",
"225 300 LINE"
);
}
);
width = 0;
},
{
anchors = (
{
name = hamzaAbove;
position = "{90, 850}";
},
{
name = hamzaBelow;
position = "{90, -50}";
},
{
name = markAbove;
position = "{90, 830}";
},
{
name = markBelow;
position = "{90, -150}";
}
);
layerId = "A6CBEFC3-C9E0-479E-A224-60A030287C4A";
paths = (
{
closed = 1;
nodes = (
"165 800 LINE",
"25 769 LINE",
"25 350 LINE",
"165 280 LINE"
);
}
);
width = 0;
},
{
associatedMasterId = "A6CBEFC3-C9E0-479E-A224-60A030287C4A";
layerId = "61DBA573-BE3A-4071-96B6-F0689D73065F";
name = Back;
paths = (
{
closed = 1;
nodes = (
"325 267 OFFCURVE",
"257 200 OFFCURVE",
"175 200 CURVE SMOOTH",
"93 200 OFFCURVE",
"25 267 OFFCURVE",
"25 350 CURVE",
"125 350 LINE",
"125 322 OFFCURVE",
"147 300 OFFCURVE",
"175 300 CURVE SMOOTH",
"203 300 OFFCURVE",
"225 322 OFFCURVE",
"225 350 CURVE",
"325 350 LINE"
);
},
{
closed = 1;
nodes = (
"125 122 OFFCURVE",
"147 100 OFFCURVE",
"175 100 CURVE SMOOTH",
"203 100 OFFCURVE",
"225 122 OFFCURVE",
"225 150 CURVE SMOOTH",
"225 178 OFFCURVE",
"203 200 OFFCURVE",
"175 200 CURVE SMOOTH",
"147 200 OFFCURVE",
"125 178 OFFCURVE",
"125 150 CURVE SMOOTH"
);
},
{
closed = 1;
nodes = (
"25 233 OFFCURVE",
"93 300 OFFCURVE",
"175 300 CURVE SMOOTH",
"257 300 OFFCURVE",
"324 233 OFFCURVE",
"324 150 CURVE SMOOTH",
"324 67 OFFCURVE",
"257 0 OFFCURVE",
"175 0 CURVE SMOOTH",
"93 0 OFFCURVE",
"25 67 OFFCURVE",
"25 150 CURVE SMOOTH"
);
},
{
closed = 1;
nodes = (
"25 778 LINE",
"125 800 LINE",
"125 300 LINE",
"25 350 LINE"
);
},
{
closed = 1;
nodes = (
"225 800 LINE",
"325 778 LINE",
"325 350 LINE",
"225 300 LINE"
);
}
);
width = 0;
}
);
},
{
glyphname = "behDotless-ar";
layers = (
{
anchors = (
{
name = dotAbove;
position = "{410, 390}";
},
{
name = dotBelow;
position = "{410, -150}";
},
{
name = hamzaAbove;
position = "{400, 332}";
},
{
name = markAbove;
position = "{410, 550}";
},
{
name = markBelow;
position = "{410, -150}";
}
);
components = (
{
name = "behDotless-ar.init";
transform = "{1, 0, 0, 1, 625, 0}";
}
);
layerId = master01;
paths = (
{
closed = 1;
nodes = (
"725 0 LINE",
"725 100 LINE",
"85 100 LINE",
"25 0 LINE"
);
}
);
width = 850;
},
{
anchors = (
{
name = dotAbove;
position = "{410, 390}";
},
{
name = dotBelow;
position = "{410, -150}";
},
{
name = hamzaAbove;
position = "{400, 332}";
},
{
name = markAbove;
position = "{410, 550}";
},
{
name = markBelow;
position = "{410, -150}";
}
);
components = (
{
name = "behDotless-ar.init";
transform = "{1, 0, 0, 1, 625, 0}";
}
);
layerId = "A6CBEFC3-C9E0-479E-A224-60A030287C4A";
paths = (
{
closed = 1;
nodes = (
"685 0 LINE",
"685 140 LINE",
"109 140 LINE",
"25 0 LINE"
);
}
);
width = 850;
}
);
unicode = 066E;
},
{
glyphname = "behDotless-ar.fina";
layers = (
{
components = (
{
name = "behDotless-ar";
}
);
layerId = master01;
paths = (
{
closed = 1;
nodes = (
"945 0 LINE",
"945 100 LINE",
"725 100 LINE",
"725 0 LINE"
);
}
);
width = 925;
},
{
components = (
{
name = "behDotless-ar";
}
);
layerId = "A6CBEFC3-C9E0-479E-A224-60A030287C4A";
paths = (
{
closed = 1;
nodes = (
"945 0 LINE",
"945 140 LINE",
"725 140 LINE",
"725 0 LINE"
);
}
);
width = 925;
}
);
},
{
glyphname = "behDotless-ar.medi";
layers = (
{
anchors = (
{
name = dotAbove;
position = "{83, 483}";
},
{
name = dotBelow;
position = "{83, -150}";
},
{
name = hamzaAbove;
position = "{75, 422}";
},
{
name = markAbove;
position = "{83, 550}";
},
{
name = markBelow;
position = "{83, -150}";
}
);
components = (
{
name = "behDotless-ar.init";
}
);
layerId = master01;
paths = (
{
closed = 1;
nodes = (
"320 0 LINE",
"320 100 LINE",
"100 100 LINE",
"100 0 LINE"
);
}
);
width = 300;
},
{
anchors = (
{
name = dotAbove;
position = "{83, 483}";
},
{
name = dotBelow;
position = "{83, -150}";
},
{
name = hamzaAbove;
position = "{75, 422}";
},
{
name = markAbove;
position = "{83, 550}";
},
{
name = markBelow;
position = "{83, -150}";
}
);
components = (
{
name = "behDotless-ar.init";
}
);
layerId = "A6CBEFC3-C9E0-479E-A224-60A030287C4A";
paths = (
{
closed = 1;
nodes = (
"320 0 LINE",
"320 140 LINE",
"100 140 LINE",
"100 0 LINE"
);
}
);
width = 300;
}
);
},
{
glyphname = "behDotless-ar.medi.Wide";
layers = (
{
anchors = (
{
name = dotAbove;
position = "{83, 483}";
},
{
name = dotBelow;
position = "{83, -150}";
},
{
name = hamzaAbove;
position = "{75, 422}";
},
{
name = markAbove;
position = "{83, 550}";
},
{
name = markBelow;
position = "{83, -150}";
}
);
components = (
{
name = "behDotless-ar.medi";
transform = "{1, 0, 0, 1, 100, 0}";
}
);
layerId = master01;
paths = (
{
closed = 1;
nodes = (
"109 0 LINE",
"109 100 LINE",
"-20 100 LINE",
"-20 0 LINE"
);
}
);
width = 400;
},
{
anchors = (
{
name = dotAbove;
position = "{83, 483}";
},
{
name = dotBelow;
position = "{83, -150}";
},
{
name = hamzaAbove;
position = "{75, 422}";
},
{
name = markAbove;
position = "{83, 550}";
},
{
name = markBelow;
position = "{83, -150}";
}
);
components = (
{
name = "behDotless-ar.medi";
transform = "{1, 0, 0, 1, 100, 0}";
}
);
layerId = "A6CBEFC3-C9E0-479E-A224-60A030287C4A";
paths = (
{
closed = 1;
nodes = (
"109 0 LINE",
"109 140 LINE",
"-20 140 LINE",
"-20 0 LINE"
);
}
);
width = 400;
}
);
},
{
glyphname = "behDotless-ar.init";
layers = (
{
anchors = (
{
name = dotAbove;
position = "{83, 483}";
},
{
name = dotBelow;
position = "{83, -150}";
},
{
name = hamzaAbove;
position = "{75, 422}";
},
{
name = markAbove;
position = "{83, 550}";
},
{
name = markBelow;
position = "{83, -150}";
}
);
layerId = master01;
paths = (
{
closed = 1;
nodes = (
"160 0 LINE",
"160 0 OFFCURVE",
"200 -2 OFFCURVE",
"200 23 CURVE SMOOTH",
"200 300 LINE",
"100 278 LINE",
"100 100 LINE",
"-20 100 LINE",
"-20 0 LINE"
);
}
);
width = 225;
},
{
anchors = (
{
name = dotAbove;
position = "{83, 523}";
},
{
name = dotBelow;
position = "{83, -150}";
},
{
name = hamzaAbove;
position = "{75, 462}";
},
{
name = markAbove;
position = "{83, 590}";
},
{
name = markBelow;
position = "{83, -150}";
}
);
layerId = "A6CBEFC3-C9E0-479E-A224-60A030287C4A";
paths = (
{
closed = 1;
nodes = (
"160 0 LINE",
"160 0 OFFCURVE",
"200 -2 OFFCURVE",
"200 23 CURVE SMOOTH",
"200 340 LINE",
"60 309 LINE",
"60 140 LINE",
"-20 140 LINE",
"-20 0 LINE"
);
}
);
width = 225;
}
);
},
{
glyphname = "behDotless-ar.init.Hah";
layers = (
{
anchors = (
{
name = dotAbove;
position = "{-307, 558}";
},
{
name = dotAbove.alt;
position = "{-157, 208}";
},
{
name = dotBelow;
position = "{-148, -98}";
},
{
name = hamzaAbove;
position = "{-315, 500}";
},
{
name = markAbove;
position = "{-307, 558}";
},
{
name = markBelow;
position = "{-148, -150}";
}
);
layerId = master01;
paths = (
{
closed = 1;
nodes = (
"-400 158 OFFCURVE",
"-265 117 OFFCURVE",
"-265 300 CURVE SMOOTH",
"-265 400 LINE",
"-365 378 LINE",
"-365 300 LINE SMOOTH",
"-365 230 OFFCURVE",
"-360 175 OFFCURVE",
"-435 165 CURVE"
);
}
);
width = 0;
},
{
associatedMasterId = master01;
layerId = "1C6E32AF-FB25-4119-88A1-C3BCC496491A";
name = Back;
paths = (
{
closed = 1;
nodes = (
"-502 -123.484 OFFCURVE",
"-476.016 -97.5 OFFCURVE",
"-444 -97.5 CURVE SMOOTH",
"-411.984 -97.5 OFFCURVE",
"-386 -123.484 OFFCURVE",
"-386 -155.5 CURVE SMOOTH",
"-386 -187.516 OFFCURVE",
"-411.984 -213.5 OFFCURVE",
"-444 -213.5 CURVE SMOOTH",
"-476.016 -213.5 OFFCURVE",
"-502 -187.516 OFFCURVE",
"-502 -155.5 CURVE SMOOTH"
);
},
{
closed = 1;
nodes = (
"-570 482.516 OFFCURVE",
"-544.016 508.5 OFFCURVE",
"-512 508.5 CURVE SMOOTH",
"-479.984 508.5 OFFCURVE",
"-454 482.516 OFFCURVE",
"-454 450.5 CURVE SMOOTH",
"-454 418.484 OFFCURVE",
"-479.984 392.5 OFFCURVE",
"-512 392.5 CURVE SMOOTH",
"-544.016 392.5 OFFCURVE",
"-570 418.484 OFFCURVE",
"-570 450.5 CURVE SMOOTH"
);
},
{
closed = 1;
nodes = (
"-540 116 OFFCURVE",
"-574 157 OFFCURVE",
"-590 183 CURVE",
"-534 290 LINE",
"-464 179 OFFCURVE",
"-365 100 OFFCURVE",
"-269 100 CURVE SMOOTH",
"-25 100 LINE",
"-85 0 LINE",
"-705 0 LINE",
"-705 100 LINE",
"-512 100 LINE"
);
}
);
width = 0;
},
{
anchors = (
{
name = dotAbove;
position = "{-307, 598}";
},
{
name = dotAbove.alt;
position = "{-117, 208}";
},
{
name = dotBelow;
position = "{-148, -98}";
},
{
name = hamzaAbove;
position = "{-315, 540}";
},
{
name = markAbove;
position = "{-307, 598}";
},
{
name = markBelow;
position = "{-148, -150}";
}
);
layerId = "A6CBEFC3-C9E0-479E-A224-60A030287C4A";
paths = (
{
closed = 1;
nodes = (
"-379 153 OFFCURVE",
"-225 117 OFFCURVE",
"-225 300 CURVE SMOOTH",
"-225 440 LINE",
"-365 409 LINE",
"-365 300 LINE SMOOTH",
"-365 230 OFFCURVE",
"-360 175 OFFCURVE",
"-435 165 CURVE"
);
}
);
width = 0;
},
{
associatedMasterId = "A6CBEFC3-C9E0-479E-A224-60A030287C4A";
layerId = "1C6B3A8E-FB11-4134-ABC0-8C663241ACA1";
name = Back;
paths = (
{
closed = 1;
nodes = (
"-502 -123.484 OFFCURVE",
"-476.016 -97.5 OFFCURVE",
"-444 -97.5 CURVE SMOOTH",
"-411.984 -97.5 OFFCURVE",
"-386 -123.484 OFFCURVE",
"-386 -155.5 CURVE SMOOTH",
"-386 -187.516 OFFCURVE",
"-411.984 -213.5 OFFCURVE",
"-444 -213.5 CURVE SMOOTH",
"-476.016 -213.5 OFFCURVE",
"-502 -187.516 OFFCURVE",
"-502 -155.5 CURVE SMOOTH"
);
},
{
closed = 1;
nodes = (
"-570 482.516 OFFCURVE",
"-544.016 508.5 OFFCURVE",
"-512 508.5 CURVE SMOOTH",
"-479.984 508.5 OFFCURVE",
"-454 482.516 OFFCURVE",
"-454 450.5 CURVE SMOOTH",
"-454 418.484 OFFCURVE",
"-479.984 392.5 OFFCURVE",
"-512 392.5 CURVE SMOOTH",
"-544.016 392.5 OFFCURVE",
"-570 418.484 OFFCURVE",
"-570 450.5 CURVE SMOOTH"
);
},
{
closed = 1;
nodes = (
"-540 116 OFFCURVE",
"-574 157 OFFCURVE",
"-590 183 CURVE",
"-534 290 LINE",
"-464 179 OFFCURVE",
"-365 100 OFFCURVE",
"-269 100 CURVE SMOOTH",
"-25 100 LINE",
"-85 0 LINE",
"-705 0 LINE",
"-705 100 LINE",
"-512 100 LINE"
);
}
);
visible = 1;
width = 0;
}
);
},
{
glyphname = "hah-ar";
layers = (
{
anchors = (
{
name = center;
position = "{225, -80}";
},
{
name = dotAbove;
position = "{150, 500}";
},
{
name = markAbove;
position = "{150, 500}";
},
{
name = markBelow;
position = "{225, -80}";
}
);
layerId = master01;
paths = (
{
closed = 1;
nodes = (
"208 -223 OFFCURVE",
"325 -202 OFFCURVE",
"371 -147 CURVE",
"307 -169 OFFCURVE",
"126 -180 OFFCURVE",
"126 -72 CURVE SMOOTH",
"126 -31 OFFCURVE",
"172 0 OFFCURVE",
"198 0 CURVE SMOOTH",
"430 0 LINE",
"490 100 LINE",
"311 100 LINE SMOOTH",
"243 100 OFFCURVE",
"151 189 OFFCURVE",
"81 300 CURVE",
"25 193 LINE",
"45 161 OFFCURVE",
"88 105 OFFCURVE",
"118 85 CURVE",
"74 59 OFFCURVE",
"25 23 OFFCURVE",
"25 -60 CURVE SMOOTH",
"25 -131 OFFCURVE",
"75 -182 OFFCURVE",
"132 -200 CURVE SMOOTH"
);
}
);
width = 515;
},
{
anchors = (
{
name = center;
position = "{225, -80}";
},
{
name = dotAbove;
position = "{150, 500}";
},
{
name = markAbove;
position = "{150, 500}";
},
{
name = markBelow;
position = "{225, -80}";
}
);
layerId = "A6CBEFC3-C9E0-479E-A224-60A030287C4A";
paths = (
{
closed = 1;
nodes = (
"208 -223 OFFCURVE",
"325 -202 OFFCURVE",
"371 -147 CURVE",
"307 -169 OFFCURVE",
"146 -180 OFFCURVE",
"146 -72 CURVE SMOOTH",
"146 -21 OFFCURVE",
"192 0 OFFCURVE",
"217 0 CURVE SMOOTH",
"431 0 LINE",
"491 140 LINE",
"323 140 LINE SMOOTH",
"260 140 OFFCURVE",
"153 229 OFFCURVE",
"79 342 CURVE",
"13 214 LINE",
"33 177 OFFCURVE",
"64 137 OFFCURVE",
"96 105 CURVE",
"49 68 OFFCURVE",
"25 9 OFFCURVE",
"25 -37 CURVE SMOOTH",
"25 -131 OFFCURVE",
"75 -183 OFFCURVE",
"132 -200 CURVE SMOOTH"
);
}
);
width = 515;
},
{
anchors = (
{
name = center;
position = "{225, -80}";
},
{
name = dotAbove;
position = "{150, 500}";
},
{
name = dotBelow;
position = "{201, -270}";
},
{
name = markAbove;
position = "{150, 500}";
},
{
name = markBelow;
position = "{225, -80}";
}
);
associatedMasterId = "A6CBEFC3-C9E0-479E-A224-60A030287C4A";
layerId = "2AD3713B-94F7-4DB1-B939-ABD3BB475423";
name = "Nov 5 20, 21:41";
paths = (
{
closed = 1;
nodes = (
"104 86 OFFCURVE",
"155 58 CURVE SMOOTH",
"201 33 OFFCURVE",
"271 14 OFFCURVE",
"431 0 CURVE",
"491 140 LINE",
"343 140 LINE SMOOTH",
"277 140 OFFCURVE",
"161 238 OFFCURVE",
"88 360 CURVE",
"13 214 LINE",
"46 155 OFFCURVE"
);
},
{
closed = 1;
nodes = (
"208 -223 OFFCURVE",
"325 -202 OFFCURVE",
"371 -147 CURVE",
"307 -169 OFFCURVE",
"146 -180 OFFCURVE",
"146 -72 CURVE SMOOTH",
"146 -21 OFFCURVE",
"192 0 OFFCURVE",
"217 0 CURVE SMOOTH",
"431 0 LINE",
"491 140 LINE",
"200 140 LINE SMOOTH",
"84 140 OFFCURVE",
"25 36 OFFCURVE",
"25 -37 CURVE SMOOTH",
"25 -131 OFFCURVE",
"75 -183 OFFCURVE",
"132 -200 CURVE SMOOTH"
);
}
);
width = 515;
},
{
anchors = (
{
name = center;
position = "{225, -80}";
},
{
name = dotAbove;
position = "{150, 500}";
},
{
name = dotBelow;
position = "{201, -270}";
},
{
name = markAbove;
position = "{150, 500}";
},
{
name = markBelow;
position = "{225, -80}";
}
);
associatedMasterId = "A6CBEFC3-C9E0-479E-A224-60A030287C4A";
layerId = "E521C709-1220-461D-88A0-B6554D047B0A";
name = "Nov 5 20, 22:04";
paths = (
{
closed = 1;
nodes = (
"33 177 OFFCURVE",
"64 137 OFFCURVE",
"96 105 CURVE",
"49 68 OFFCURVE",
"25 9 OFFCURVE",
"25 -37 CURVE SMOOTH",
"25 -131 OFFCURVE",
"75 -183 OFFCURVE",
"132 -200 CURVE SMOOTH",
"208 -223 OFFCURVE",
"325 -202 OFFCURVE",
"371 -147 CURVE",
"307 -169 OFFCURVE",
"146 -180 OFFCURVE",
"146 -72 CURVE SMOOTH",
"146 -21 OFFCURVE",
"192 0 OFFCURVE",
"217 0 CURVE SMOOTH",
"431 0 LINE",
"491 140 LINE",
"343 140 LINE SMOOTH",
"277 140 OFFCURVE",
"161 238 OFFCURVE",
"88 360 CURVE",
"13 214 LINE"
);
}
);
width = 515;
}
);
unicode = 062D;
},
{
glyphname = "hah-ar.alt";
layers = (
{
anchors = (
{
name = dotAbove;
position = "{150, 500}";
},
{
name = dotBelow;
position = "{312, -90}";
},
{
name = markAbove;
position = "{150, 500}";
}
);
layerId = master01;
paths = (
{
closed = 1;
nodes = (
"25 -171 OFFCURVE",
"147 -230 OFFCURVE",
"259 -195 CURVE",
"181 -189 OFFCURVE",
"129 -137 OFFCURVE",
"127 -83 CURVE SMOOTH",
"125 -46 OFFCURVE",
"147 0 OFFCURVE",
"198 0 CURVE SMOOTH",
"430 0 LINE",
"490 100 LINE",
"311 100 LINE SMOOTH",
"243 100 OFFCURVE",
"151 189 OFFCURVE",
"81 300 CURVE",
"25 193 LINE",
"45 161 OFFCURVE",
"88 105 OFFCURVE",
"118 85 CURVE",
"74 59 OFFCURVE",
"25 23 OFFCURVE",
"25 -60 CURVE SMOOTH"
);
}
);
width = 515;
},
{
anchors = (
{
name = dotAbove;
position = "{150, 500}";
},
{
name = dotBelow;
position = "{312, -90}";
},
{
name = markAbove;
position = "{150, 500}";
}
);
layerId = "A6CBEFC3-C9E0-479E-A224-60A030287C4A";
paths = (
{
closed = 1;
nodes = (
"25 -169 OFFCURVE",
"123 -227 OFFCURVE",
"260 -195 CURVE",
"184 -183 OFFCURVE",
"141 -133 OFFCURVE",
"140 -83 CURVE SMOOTH",
"138 -43 OFFCURVE",
"163 0 OFFCURVE",
"217 0 CURVE SMOOTH",
"431 0 LINE",
"491 140 LINE",
"323 140 LINE SMOOTH",
"260 140 OFFCURVE",
"153 229 OFFCURVE",
"79 342 CURVE",
"13 214 LINE",
"33 177 OFFCURVE",
"64 137 OFFCURVE",
"96 105 CURVE",
"49 68 OFFCURVE",
"25 9 OFFCURVE",
"25 -37 CURVE SMOOTH"
);
}
);
width = 515;
},
{
anchors = (
{
name = center;
position = "{225, -80}";
},
{
name = dotAbove;
position = "{150, 500}";
},
{
name = dotBelow;
position = "{201, -270}";
},
{
name = markAbove;
position = "{150, 500}";
},
{
name = markBelow;
position = "{225, -80}";
}
);
associatedMasterId = master01;
layerId = "0D5727F4-F742-422C-B6C4-50B27C3CDA00";
name = "Nov 9 20, 18:23";
paths = (
{
closed = 1;
nodes = (
"208 -223 OFFCURVE",
"325 -202 OFFCURVE",
"371 -147 CURVE",
"307 -169 OFFCURVE",
"126 -180 OFFCURVE",
"126 -72 CURVE SMOOTH",
"126 -31 OFFCURVE",
"172 0 OFFCURVE",
"198 0 CURVE SMOOTH",
"430 0 LINE",
"490 100 LINE",
"311 100 LINE SMOOTH",
"243 100 OFFCURVE",
"151 189 OFFCURVE",
"81 300 CURVE",
"25 193 LINE",
"45 161 OFFCURVE",
"88 105 OFFCURVE",
"118 85 CURVE",
"74 59 OFFCURVE",
"25 23 OFFCURVE",
"25 -60 CURVE SMOOTH",
"25 -131 OFFCURVE",
"75 -182 OFFCURVE",
"132 -200 CURVE SMOOTH"
);
}
);
width = 515;
},
{
anchors = (
{
name = center;
position = "{225, -80}";
},
{
name = dotAbove;
position = "{150, 500}";
},
{
name = dotBelow;
position = "{201, -270}";
},
{
name = markAbove;
position = "{150, 500}";
},
{
name = markBelow;
position = "{225, -80}";
}
);
associatedMasterId = "A6CBEFC3-C9E0-479E-A224-60A030287C4A";
layerId = "8A7E9A60-977C-4E05-8E14-7034AF75D469";
name = "Nov 9 20, 18:23";
paths = (
{
closed = 1;
nodes = (
"208 -223 OFFCURVE",
"325 -202 OFFCURVE",
"371 -147 CURVE",
"307 -169 OFFCURVE",
"146 -180 OFFCURVE",
"146 -72 CURVE SMOOTH",
"146 -21 OFFCURVE",
"192 0 OFFCURVE",
"217 0 CURVE SMOOTH",
"431 0 LINE",
"491 140 LINE",
"323 140 LINE SMOOTH",
"260 140 OFFCURVE",
"153 229 OFFCURVE",
"79 342 CURVE",
"13 214 LINE",
"33 177 OFFCURVE",
"64 137 OFFCURVE",
"96 105 CURVE",
"49 68 OFFCURVE",
"25 9 OFFCURVE",
"25 -37 CURVE SMOOTH",
"25 -131 OFFCURVE",
"75 -183 OFFCURVE",
"132 -200 CURVE SMOOTH"
);
}
);
width = 515;
}
);
},
{
glyphname = "hah-ar.medi";
production = uni062D.medi;
layers = (
{
anchors = (
{
name = center;
position = "{140, -150}";
},
{
name = dotBelow;
position = "{141, -210}";
},
{
name = markBelow;
position = "{140, -150}";
}
);
components = (
{
name = _hah.head;
}
);
layerId = master01;
paths = (
{
closed = 1;
nodes = (
"398 0 LINE",
"398 100 LINE",
"-20 100 LINE",
"-20 0 LINE"
);
}
);
width = 378;
},
{
anchors = (
{
name = center;
position = "{180, -150}";
},
{
name = dotBelow;
position = "{181, -210}";
},
{
name = markBelow;
position = "{180, -150}";
}
);
components = (
{
name = _hah.head;
}
);
layerId = "A6CBEFC3-C9E0-479E-A224-60A030287C4A";
paths = (
{
closed = 1;
nodes = (
"438 0 LINE",
"438 140 LINE",
"-20 140 LINE",
"-20 0 LINE"
);
}
);
width = 418;
}
);
},
{
glyphname = "hah-ar.medi.1";
production = uni062D.medi.1;
layers = (
{
anchors = (
{
name = center;
position = "{140, -150}";
},
{
name = dotBelow;
position = "{141, -210}";
},
{
name = markBelow;
position = "{140, -150}";
}
);
components = (
{
name = _hah.head.1;
}
);
layerId = master01;
paths = (
{
closed = 1;
nodes = (
"398 0 LINE",
"398 100 LINE",
"-20 100 LINE",
"-20 0 LINE"
);
}
);
width = 378;
},
{
anchors = (
{
name = center;
position = "{140, -150}";
},
{
name = dotBelow;
position = "{141, -210}";
},
{
name = markBelow;
position = "{140, -150}";
}
);
components = (
{
name = _hah.head.1;
}
);
layerId = "A6CBEFC3-C9E0-479E-A224-60A030287C4A";
paths = (
{
closed = 1;
nodes = (
"398 0 LINE",
"398 140 LINE",
"-20 140 LINE",
"-20 0 LINE"
);
}
);
width = 378;
}
);
},
{
glyphname = "hah-ar.medi.2";
production = uni062D.medi.2;
layers = (
{
components = (
{
name = "hah-ar.init.2";
transform = "{1, 0, 0, 1, -20, 0}";
}
);
layerId = master01;
paths = (
{
closed = 1;
nodes = (
"520 0 LINE",
"520 100 LINE",
"440 100 LINE",
"440 0 LINE"
);
}
);
width = 480;
},
{
components = (
{
name = "hah-ar.init.2";
transform = "{1, 0, 0, 1, -20, 0}";
}
);
layerId = "A6CBEFC3-C9E0-479E-A224-60A030287C4A";
paths = (
{
closed = 1;
nodes = (
"520 0 LINE",
"520 140 LINE",
"440 140 LINE",
"440 0 LINE"
);
}
);
width = 480;
}
);
},
{
glyphname = "hah-ar.init";
production = uni062D.init;
layers = (
{
anchors = (
{
name = center;
position = "{240, -150}";
},
{
name = dotAbove;
position = "{170, 450}";
},
{
name = dotBelow;
position = "{240, -150}";
},
{
name = markAbove;
position = "{170, 450}";
},
{
name = markBelow;
position = "{240, -150}";
}
);
layerId = master01;
paths = (
{
closed = 1;
nodes = (
"600 0 LINE",
"660 100 LINE",
"416 100 LINE SMOOTH",
"320 100 OFFCURVE",
"221 179 OFFCURVE",
"151 290 CURVE",
"95 183 LINE",
"111 157 OFFCURVE",
"145 116 OFFCURVE",
"173 100 CURVE",
"-20 100 LINE",
"-20 0 LINE"
);
}
);
width = 685;
},
{
anchors = (
{
name = center;
position = "{240, -150}";
},
{
name = dotAbove;
position = "{170, 450}";
},
{
name = dotBelow;
position = "{240, -150}";
},
{
name = markAbove;
position = "{170, 450}";
},
{
name = markBelow;
position = "{240, -150}";
}
);
layerId = "A6CBEFC3-C9E0-479E-A224-60A030287C4A";
paths = (
{
closed = 1;
nodes = (
"600 0 LINE",
"660 140 LINE",
"386 140 LINE SMOOTH",
"323 140 OFFCURVE",
"216 229 OFFCURVE",
"142 342 CURVE",
"76 214 LINE",
"94 182 OFFCURVE",
"111 157 OFFCURVE",
"128 140 CURVE",
"-20 140 LINE",
"-20 0 LINE"
);
}
);
width = 685;
}
);
},
{
glyphname = "hah-ar.init.2";
production = uni062D.init.2;
layers = (
{
anchors = (
{
name = dotAbove;
position = "{370, 250}";
},
{
name = dotBelow;
position = "{240, -150}";
},
{
name = markAbove;
position = "{270, 890}";
},
{
name = markBelow;
position = "{240, -150}";
}
);
layerId = master01;
paths = (
{
closed = 1;
nodes = (
"480 0 LINE",
"540 100 LINE",
"414.332 100 LINE SMOOTH",
"262.588 100 OFFCURVE",
"196.768 229.667 OFFCURVE",
"256 315 CURVE SMOOTH",
"372.752 483.199 LINE SMOOTH",
"437.571 576.581 OFFCURVE",
"430.176 689.418 OFFCURVE",
"353.632 753.218 CURVE SMOOTH",
"306.731 792.311 OFFCURVE",
"237.869 812.993 OFFCURVE",
"139.752 799.509 CURVE SMOOTH",
"112.416 795.752 OFFCURVE",
"82.752 800.699 OFFCURVE",
"60.752 808.199 CURVE",
"100.752 674.199 LINE",
"157.01 719.868 OFFCURVE",
"220.895 724.876 OFFCURVE",
"267.675 702.525 CURVE SMOOTH",
"328.049 673.679 OFFCURVE",
"342.494 604.261 OFFCURVE",
"298.766 541.836 CURVE SMOOTH",
"183.108 376.726 LINE SMOOTH",
"83.027 233.852 OFFCURVE",
"167.983 120.962 OFFCURVE",
"196.093 100 CURVE",
"-20 100 LINE",
"-20 0 LINE"
);
}
);
width = 565;
},
{
associatedMasterId = master01;
layerId = "14C333F0-4BD4-4126-8AE9-D0D36BB9ADDB";
name = Back;
paths = (
{
closed = 1;
nodes = (
"319.523 594.575 OFFCURVE",
"308.342 655.941 OFFCURVE",
"274 685 CURVE SMOOTH",
"246.69 708.409 OFFCURVE",
"208.157 715.214 OFFCURVE",
"168 709.938 CURVE SMOOTH",
"146.4 707.1 OFFCURVE",
"117 687.5 OFFCURVE",
"100 674 CURVE",
"56 823 LINE",
"78 815.5 OFFCURVE",
"107.814 809.587 OFFCURVE",
"135 814.309 CURVE SMOOTH",
"207.002 826.816 OFFCURVE",
"291.282 819.54 OFFCURVE",
"345 768 CURVE SMOOTH",
"425.938 690.963 OFFCURVE",
"440.88 576.756 OFFCURVE",
"376 483 CURVE SMOOTH",
"249.361 300 LINE",
"626 300 LINE SMOOTH",
"790 300 OFFCURVE",
"813 201 OFFCURVE",
"816 100 CURVE",
"956 100 LINE",
"956 0 LINE",
"-69 0 LINE",
"-69 100 LINE",
"716 100 LINE",
"717 156 OFFCURVE",
"701 200 OFFCURVE",
"626 200 CURVE SMOOTH",
"45 200 LINE",
"129.848 319.068 OFFCURVE",
"296.014 560.637 OFFCURVE",
"296.014 560.637 CURVE"
);
},
{
closed = 1;
nodes = (
"145 116 OFFCURVE",
"111 157 OFFCURVE",
"95 183 CURVE",
"151 290 LINE",
"221 179 OFFCURVE",
"320 100 OFFCURVE",
"416 100 CURVE SMOOTH",
"660 100 LINE",
"600 0 LINE",
"-20 0 LINE",
"-20 100 LINE",
"173 100 LINE"
);
}
);
width = 0;
},
{
anchors = (
{
name = dotAbove;
position = "{370, 230}";
},
{
name = dotBelow;
position = "{240, -150}";
},
{
name = markAbove;
position = "{270, 870}";
},
{
name = markBelow;
position = "{240, -150}";
}
);
layerId = "A6CBEFC3-C9E0-479E-A224-60A030287C4A";
paths = (
{
closed = 1;
nodes = (
"481 0 LINE",
"540 140 LINE",
"297 140 LINE",
"253 177 OFFCURVE",
"237 235 OFFCURVE",
"272 284 CURVE SMOOTH",
"389 452 LINE SMOOTH",
"460 554 OFFCURVE",
"451 678 OFFCURVE",
"366 749 CURVE SMOOTH",
"311 795 OFFCURVE",
"232 812 OFFCURVE",
"137 799 CURVE SMOOTH",
"102 794 OFFCURVE",
"52 806 OFFCURVE",
"27 830 CURVE",
"91 617 LINE",
"140 672 OFFCURVE",
"207 689 OFFCURVE",
"259 664 CURVE SMOOTH",
"308 641 OFFCURVE",
"319 586 OFFCURVE",
"282 533 CURVE SMOOTH",
"167 368 LINE SMOOTH",
"104 278 OFFCURVE",
"110 196 OFFCURVE",
"132 140 CURVE",
"-20 140 LINE",
"-20 0 LINE"
);
}
);
width = 565;
},
{
associatedMasterId = "A6CBEFC3-C9E0-479E-A224-60A030287C4A";
layerId = "6E1FF32D-C7D2-4C9C-A7A6-A08F8F1351E5";
name = Back;
paths = (
{
closed = 1;
nodes = (
"319.523 594.575 OFFCURVE",
"308.342 655.941 OFFCURVE",
"274 685 CURVE SMOOTH",
"246.69 708.409 OFFCURVE",
"208.157 715.214 OFFCURVE",
"168 709.938 CURVE SMOOTH",
"146.4 707.1 OFFCURVE",
"117 687.5 OFFCURVE",
"100 674 CURVE",
"56 823 LINE",
"78 815.5 OFFCURVE",
"107.814 809.587 OFFCURVE",
"135 814.309 CURVE SMOOTH",
"207.002 826.816 OFFCURVE",
"291.282 819.54 OFFCURVE",
"345 768 CURVE SMOOTH",
"425.938 690.963 OFFCURVE",
"440.88 576.756 OFFCURVE",
"376 483 CURVE SMOOTH",
"249.361 300 LINE",
"626 300 LINE SMOOTH",
"790 300 OFFCURVE",
"813 201 OFFCURVE",
"816 100 CURVE",
"956 100 LINE",
"956 0 LINE",
"-69 0 LINE",
"-69 100 LINE",
"716 100 LINE",
"717 156 OFFCURVE",
"701 200 OFFCURVE",
"626 200 CURVE SMOOTH",
"45 200 LINE",
"129.848 319.068 OFFCURVE",
"296.014 560.637 OFFCURVE",
"296.014 560.637 CURVE"
);
},
{
closed = 1;
nodes = (
"145 116 OFFCURVE",
"111 157 OFFCURVE",
"95 183 CURVE",
"151 290 LINE",
"221 179 OFFCURVE",
"320 100 OFFCURVE",
"416 100 CURVE SMOOTH",
"660 100 LINE",
"600 0 LINE",
"-20 0 LINE",
"-20 100 LINE",
"173 100 LINE"
);
}
);
width = 0;
}
);
},
{
glyphname = "dal-ar";
layers = (
{
anchors = (
{
name = dotAbove;
position = "{435, 500}";
},
{
name = hamzaAbove;
position = "{435, 440}";
},
{
name = markAbove;
position = "{435, 500}";
},
{
name = markBelow;
position = "{435, -150}";
}
);
layerId = master01;
paths = (
{
closed = 1;
nodes = (
"805 0 LINE",
"805 0 OFFCURVE",
"845 -2 OFFCURVE",
"845 23 CURVE SMOOTH",
"845 143 OFFCURVE",
"862 300 OFFCURVE",
"655 300 CURVE SMOOTH",
"225 300 LINE",
"277 413 LINE",
"267 420 LINE",
"135 200 LINE",
"655 200 LINE SMOOTH",
"730 200 OFFCURVE",
"746 156 OFFCURVE",
"745 100 CURVE",
"85 100 LINE",
"25 0 LINE"
);
}
);
width = 870;
},
{
anchors = (
{
name = dotAbove;
position = "{475, 500}";
},
{
name = hamzaAbove;
position = "{475, 440}";
},
{
name = markAbove;
position = "{475, 500}";
},
{
name = markBelow;
position = "{435, -150}";
}
);
layerId = "A6CBEFC3-C9E0-479E-A224-60A030287C4A";
paths = (
{
closed = 1;
nodes = (
"805 0 LINE",
"805 0 OFFCURVE",
"845 -2 OFFCURVE",
"845 23 CURVE SMOOTH",
"845 143 OFFCURVE",
"862 340 OFFCURVE",
"615 340 CURVE SMOOTH",
"249 340 LINE",
"301 453 LINE",
"291 460 LINE",
"135 200 LINE",
"615 200 LINE SMOOTH",
"690 200 OFFCURVE",
"706 176 OFFCURVE",
"705 140 CURVE",
"109 140 LINE",
"25 0 LINE"
);
}
);
width = 870;
}
);
unicode = 062F;
},
{
glyphname = "dal-ar.fina";
production = uni062F.fina;
layers = (
{
anchors = (
{
name = dotAbove;
position = "{435, 500}";
},
{
name = hamzaAbove;
position = "{435, 440}";
},
{
name = markAbove;
position = "{435, 500}";
},
{
name = markBelow;
position = "{435, -150}";
}
);
layerId = master01;
paths = (
{
closed = 1;
nodes = (
"940 0 LINE",
"940 100 LINE",
"820 100 LINE",
"817 201 OFFCURVE",
"794 300 OFFCURVE",
"630 300 CURVE SMOOTH",
"225 300 LINE",
"277 413 LINE",
"267 420 LINE",
"135 200 LINE",
"630 200 LINE SMOOTH",
"705 200 OFFCURVE",
"721 156 OFFCURVE",
"720 100 CURVE",
"85 100 LINE",
"25 0 LINE"
);
}
);
width = 920;
},
{
anchors = (
{
name = dotAbove;
position = "{435, 500}";
},
{
name = hamzaAbove;
position = "{435, 440}";
},
{
name = markAbove;
position = "{435, 500}";
},
{
name = markBelow;
position = "{435, -150}";
}
);
layerId = "A6CBEFC3-C9E0-479E-A224-60A030287C4A";
paths = (
{
closed = 1;
nodes = (
"940 0 LINE",
"940 140 LINE",
"817 140 LINE",
"808 241 OFFCURVE",
"765 340 OFFCURVE",
"590 340 CURVE SMOOTH",
"249 340 LINE",
"301 453 LINE",
"291 460 LINE",
"135 200 LINE",
"590 200 LINE SMOOTH",
"665 200 OFFCURVE",
"681 176 OFFCURVE",
"680 140 CURVE",
"109 140 LINE",
"25 0 LINE"
);
}
);
width = 920;
}
);
},
{
glyphname = "reh-ar";
layers = (
{
anchors = (
{
name = dotAbove;
position = "{150, 500}";
},
{
name = hamzaAbove;
position = "{140, 440}";
},
{
name = markAbove;
position = "{150, 500}";
},
{
name = markBelow;
position = "{110, -270}";
}
);
layerId = master01;
paths = (
{
closed = 1;
nodes = (
"-19 -244 OFFCURVE",
"200 -237 OFFCURVE",
"200 -60 CURVE SMOOTH",
"200 300 LINE",
"100 278 LINE",
"100 -70 LINE SMOOTH",
"100 -127 OFFCURVE",
"68 -191 OFFCURVE",
"-85 -150 CURVE"
);
}
);
width = 225;
},
{
anchors = (
{
name = dotAbove;
position = "{130, 500}";
},
{
name = hamzaAbove;
position = "{120, 440}";
},
{
name = markAbove;
position = "{130, 500}";
},
{
name = markBelow;
position = "{110, -270}";
}
);
layerId = "A6CBEFC3-C9E0-479E-A224-60A030287C4A";
paths = (
{
closed = 1;
nodes = (
"-19 -244 OFFCURVE",
"200 -237 OFFCURVE",
"200 -60 CURVE SMOOTH",
"200 340 LINE",
"60 309 LINE",
"60 -60 LINE SMOOTH",
"60 -127 OFFCURVE",
"33 -181 OFFCURVE",
"-85 -150 CURVE"
);
}
);
width = 225;
}
);
unicode = 0631;
},
{
glyphname = "reh-ar.fina";
production = uni0631.fina;
layers = (
{
components = (
{
name = "reh-ar";
}
);
layerId = master01;
paths = (
{
closed = 1;
nodes = (
"320 0 LINE",
"320 100 LINE",
"174 100 LINE",
"174 0 LINE"
);
}
);
width = 300;
},
{
components = (
{
name = "reh-ar";
}
);
layerId = "A6CBEFC3-C9E0-479E-A224-60A030287C4A";
paths = (
{
closed = 1;
nodes = (
"320 0 LINE",
"320 140 LINE",
"174 140 LINE",
"174 0 LINE"
);
}
);
width = 300;
}
);
},
{
glyphname = "seen-ar";
layers = (
{
anchors = (
{
name = dotAbove;
position = "{590, 550}";
},
{
name = markAbove;
position = "{590, 550}";
},
{
name = markBelow;
position = "{590, -150}";
}
);
components = (
{
name = _seen.bowel;
}
);
layerId = master01;
paths = (
{
closed = 1;
nodes = (
"425 0 LINE",
"805 0 LINE",
"805 0 OFFCURVE",
"845 -2 OFFCURVE",
"845 23 CURVE SMOOTH",
"845 300 LINE",
"745 278 LINE",
"745 100 LINE",
"645 100 LINE",
"645 300 LINE",
"545 278 LINE",
"545 100 LINE",
"425 100 LINE"
);
}
);
width = 870;
},
{
anchors = (
{
name = dotAbove;
position = "{590, 550}";
},
{
name = markAbove;
position = "{590, 550}";
},
{
name = markBelow;
position = "{590, -150}";
}
);
components = (
{
name = _seen.bowel;
}
);
layerId = "A6CBEFC3-C9E0-479E-A224-60A030287C4A";
paths = (
{
closed = 1;
nodes = (
"425 0 LINE",
"805 0 LINE",
"805 0 OFFCURVE",
"845 -2 OFFCURVE",
"845 23 CURVE SMOOTH",
"845 340 LINE",
"705 309 LINE",
"705 140 LINE",
"645 140 LINE",
"645 340 LINE",
"505 309 LINE",
"505 140 LINE",
"425 140 LINE"
);
}
);
width = 870;
}
);
unicode = 0633;
},
{
glyphname = "seen-ar.fina";
production = uni0633.fina;
layers = (
{
components = (
{
name = "seen-ar";
}
);
layerId = master01;
paths = (
{
closed = 1;
nodes = (
"745 0 LINE",
"965 0 LINE",
"965 100 LINE",
"745 98 LINE"
);
},
{
closed = 1;
nodes = (
"445 190 LINE",
"445 350 LINE",
"345 328 LINE",
"345 190 LINE"
);
},
{
closed = 1;
nodes = (
"645 190 LINE",
"645 350 LINE",
"545 328 LINE",
"545 190 LINE"
);
},
{
closed = 1;
nodes = (
"845 190 LINE",
"845 350 LINE",
"745 328 LINE",
"745 190 LINE"
);
}
);
width = 945;
},
{
components = (
{
name = "seen-ar";
}
);
layerId = "A6CBEFC3-C9E0-479E-A224-60A030287C4A";
paths = (
{
closed = 1;
nodes = (
"745 0 LINE",
"965 0 LINE",
"965 140 LINE",
"745 138 LINE"
);
},
{
closed = 1;
nodes = (
"445 190 LINE",
"445 390 LINE",
"305 359 LINE",
"305 190 LINE"
);
},
{
closed = 1;
nodes = (
"645 190 LINE",
"645 390 LINE",
"505 359 LINE",
"505 190 LINE"
);
},
{
closed = 1;
nodes = (
"845 190 LINE",
"845 390 LINE",
"705 359 LINE",
"705 190 LINE"
);
}
);
width = 945;
}
);
},
{
glyphname = "seen-ar.medi";
production = uni0633.medi;
layers = (
{
anchors = (
{
name = dotAbove;
position = "{345, 550}";
},
{
name = markAbove;
position = "{345, 550}";
},
{
name = markBelow;
position = "{345, -150}";
}
);
layerId = master01;
paths = (
{
closed = 1;
nodes = (
"720 0 LINE",
"720 100 LINE",
"600 100 LINE",
"600 400 LINE",
"500 378 LINE",
"500 100 LINE",
"400 100 LINE",
"400 350 LINE",
"300 328 LINE",
"300 100 LINE",
"200 100 LINE",
"200 300 LINE",
"100 278 LINE",
"100 100 LINE",
"-20 100 LINE",
"-20 0 LINE"
);
}
);
width = 700;
},
{
anchors = (
{
name = dotAbove;
position = "{345, 590}";
},
{
name = markAbove;
position = "{345, 590}";
},
{
name = markBelow;
position = "{345, -150}";
}
);
layerId = "A6CBEFC3-C9E0-479E-A224-60A030287C4A";
paths = (
{
closed = 1;
nodes = (
"720 0 LINE",
"720 140 LINE",
"600 140 LINE",
"600 440 LINE",
"460 409 LINE",
"460 140 LINE",
"400 140 LINE",
"400 390 LINE",
"260 359 LINE",
"260 140 LINE",
"200 140 LINE",
"200 340 LINE",
"60 309 LINE",
"60 140 LINE",
"-20 140 LINE",
"-20 0 LINE"
);
}
);
width = 700;
}
);
},
{
glyphname = "seen-ar.init";
production = uni0633.init;
layers = (
{
anchors = (
{
name = dotAbove;
position = "{345, 550}";
},
{
name = markAbove;
position = "{345, 550}";
},
{
name = markBelow;
position = "{345, -150}";
}
);
layerId = master01;
paths = (
{
closed = 1;
nodes = (
"560 0 LINE",
"560 0 OFFCURVE",
"600 -2 OFFCURVE",
"600 23 CURVE SMOOTH",
"600 300 LINE",
"500 278 LINE",
"500 100 LINE",
"400 100 LINE",
"400 300 LINE",
"300 278 LINE",
"300 100 LINE",
"200 100 LINE",
"200 300 LINE",
"100 278 LINE",
"100 100 LINE",
"-20 100 LINE",
"-20 0 LINE"
);
}
);
width = 625;
},
{
anchors = (
{
name = dotAbove;
position = "{345, 590}";
},
{
name = markAbove;
position = "{345, 590}";
},
{
name = markBelow;
position = "{345, -150}";
}
);
layerId = "A6CBEFC3-C9E0-479E-A224-60A030287C4A";
paths = (
{
closed = 1;
nodes = (
"560 0 LINE",
"560 0 OFFCURVE",
"600 -2 OFFCURVE",
"600 23 CURVE SMOOTH",
"600 340 LINE",
"460 309 LINE",
"460 140 LINE",
"400 140 LINE",
"400 340 LINE",
"260 309 LINE",
"260 140 LINE",
"200 140 LINE",
"200 340 LINE",
"60 309 LINE",
"60 140 LINE",
"-20 140 LINE",
"-20 0 LINE"
);
}
);
width = 625;
}
);
},
{
glyphname = "sad-ar";
layers = (
{
components = (
{
name = _seen.bowel;
},
{
name = _sad.body;
transform = "{1, 0, 0, 1, 160, 0}";
}
);
layerId = master01;
paths = (
{
closed = 1;
nodes = (
"445 240 LINE",
"445 400 LINE",
"345 378 LINE",
"345 240 LINE"
);
}
);
width = 1170;
},
{
components = (
{
name = _seen.bowel;
},
{
name = _sad.body;
transform = "{1, 0, 0, 1, 160, 0}";
}
);
layerId = "A6CBEFC3-C9E0-479E-A224-60A030287C4A";
paths = (
{
closed = 1;
nodes = (
"445 240 LINE",
"445 440 LINE",
"305 409 LINE",
"305 240 LINE"
);
}
);
width = 1170;
}
);
unicode = 0635;
},
{
glyphname = "sad-ar.fina";
production = uni0635.fina;
layers = (
{
components = (
{
name = "sad-ar";
}
);
layerId = master01;
paths = (
{
closed = 1;
nodes = (
"1265 0 LINE",
"1265 100 LINE",
"1080 100 LINE",
"1080 0 LINE"
);
}
);
width = 1245;
},
{
components = (
{
name = "sad-ar";
}
);
layerId = "A6CBEFC3-C9E0-479E-A224-60A030287C4A";
paths = (
{
closed = 1;
nodes = (
"1265 0 LINE",
"1265 140 LINE",
"1080 140 LINE",
"1080 0 LINE"
);
}
);
width = 1245;
}
);
},
{
glyphname = "sad-ar.medi";
production = uni0635.medi;
layers = (
{
components = (
{
name = "sad-ar.init";
}
);
layerId = master01;
paths = (
{
closed = 1;
nodes = (
"1035 0 LINE",
"1035 100 LINE",
"840 100 LINE",
"840 0 LINE"
);
}
);
width = 1015;
},
{
components = (
{
name = "sad-ar.init";
}
);
layerId = "A6CBEFC3-C9E0-479E-A224-60A030287C4A";
paths = (
{
closed = 1;
nodes = (
"1035 0 LINE",
"1035 140 LINE",
"840 140 LINE",
"840 0 LINE"
);
}
);
width = 1015;
}
);
},
{
glyphname = "sad-ar.init";
production = uni0635.init;
layers = (
{
components = (
{
name = _sad.body;
transform = "{1, 0, 0, 1, -70, 0}";
}
);
layerId = master01;
paths = (
{
closed = 1;
nodes = (
"215 50 LINE",
"215 400 LINE",
"115 378 LINE",
"115 50 LINE"
);
},
{
closed = 1;
nodes = (
"255 0 LINE",
"255 100 LINE",
"-20 100 LINE",
"-20 0 LINE"
);
}
);
width = 940;
},
{
components = (
{
name = _sad.body;
transform = "{1, 0, 0, 1, -70, 0}";
}
);
layerId = "A6CBEFC3-C9E0-479E-A224-60A030287C4A";
paths = (
{
closed = 1;
nodes = (
"215 50 LINE",
"215 440 LINE",
"75 409 LINE",
"75 50 LINE"
);
},
{
closed = 1;
nodes = (
"255 0 LINE",
"255 140 LINE",
"-20 140 LINE",
"-20 0 LINE"
);
}
);
width = 940;
}
);
},
{
glyphname = "tah-ar";
layers = (
{
components = (
{
name = _sad.body;
}
);
layerId = master01;
paths = (
{
closed = 1;
nodes = (
"285 50 LINE",
"285 800 LINE",
"185 778 LINE",
"185 50 LINE"
);
},
{
closed = 1;
nodes = (
"345 0 LINE",
"345 100 LINE",
"85 100 LINE",
"25 0 LINE"
);
}
);
width = 1010;
},
{
components = (
{
name = _sad.body;
}
);
layerId = "A6CBEFC3-C9E0-479E-A224-60A030287C4A";
paths = (
{
closed = 1;
nodes = (
"325 50 LINE",
"325 800 LINE",
"185 769 LINE",
"185 50 LINE"
);
},
{
closed = 1;
nodes = (
"345 0 LINE",
"345 140 LINE",
"109 140 LINE",
"25 0 LINE"
);
}
);
width = 1010;
}
);
unicode = 0637;
},
{
glyphname = "tah-ar.fina";
production = uni0637.fina;
layers = (
{
components = (
{
name = "tah-ar";
}
);
layerId = master01;
paths = (
{
closed = 1;
nodes = (
"1105 0 LINE",
"1105 100 LINE",
"925 100 LINE",
"925 0 LINE"
);
}
);
width = 1085;
},
{
components = (
{
name = "tah-ar";
}
);
layerId = "A6CBEFC3-C9E0-479E-A224-60A030287C4A";
paths = (
{
closed = 1;
nodes = (
"1105 0 LINE",
"1105 140 LINE",
"925 140 LINE",
"925 0 LINE"
);
}
);
width = 1085;
}
);
},
{
glyphname = "tah-ar.medi";
production = uni0637.medi;
layers = (
{
components = (
{
name = "tah-ar";
transform = "{1, 0, 0, 1, -70, 0}";
}
);
layerId = master01;
paths = (
{
closed = 1;
nodes = (
"1035 0 LINE",
"1035 100 LINE",
"860 100 LINE",
"860 0 LINE"
);
},
{
closed = 1;
nodes = (
"125 0 LINE",
"125 100 LINE",
"-50 100 LINE",
"-50 0 LINE"
);
}
);
width = 1015;
},
{
components = (
{
name = "tah-ar";
transform = "{1, 0, 0, 1, -70, 0}";
}
);
layerId = "A6CBEFC3-C9E0-479E-A224-60A030287C4A";
paths = (
{
closed = 1;
nodes = (
"1035 0 LINE",
"1035 140 LINE",
"860 140 LINE",
"860 0 LINE"
);
},
{
closed = 1;
nodes = (
"125 0 LINE",
"125 140 LINE",
"-50 140 LINE",
"-50 0 LINE"
);
}
);
width = 1015;
}
);
},
{
glyphname = "tah-ar.init";
production = uni0637.init;
layers = (
{
components = (
{
name = "tah-ar";
transform = "{1, 0, 0, 1, -70, 0}";
}
);
layerId = master01;
paths = (
{
closed = 1;
nodes = (
"35 0 LINE",
"35 100 LINE",
"-60 100 LINE",
"-60 0 LINE"
);
}
);
width = 940;
},
{
components = (
{
name = "tah-ar";
transform = "{1, 0, 0, 1, -70, 0}";
}
);
layerId = "A6CBEFC3-C9E0-479E-A224-60A030287C4A";
paths = (
{
closed = 1;
nodes = (
"45 0 LINE",
"45 140 LINE",
"-60 140 LINE",
"-60 0 LINE"
);
}
);
width = 940;
}
);
},
{
glyphname = "ain-ar";
layers = (
{
anchors = (
{
name = dotAbove;
position = "{155, 500}";
},
{
name = markAbove;
position = "{155, 550}";
},
{
name = markBelow;
position = "{195, -270}";
}
);
layerId = master01;
paths = (
{
closed = 1;
nodes = (
"208 -223 OFFCURVE",
"324 -202 OFFCURVE",
"370 -147 CURVE",
"306 -169 OFFCURVE",
"126 -180 OFFCURVE",
"126 -72 CURVE SMOOTH",
"126 -31 OFFCURVE",
"172 0 OFFCURVE",
"198 0 CURVE SMOOTH",
"280 0 LINE",
"340 100 LINE",
"208 100 LINE SMOOTH",
"167 100 OFFCURVE",
"119 133 OFFCURVE",
"119 184 CURVE SMOOTH",
"119 217 OFFCURVE",
"147 249 OFFCURVE",
"180 254 CURVE SMOOTH",
"208 259 OFFCURVE",
"244 249 OFFCURVE",
"273 224 CURVE",
"251 273 OFFCURVE",
"208 300 OFFCURVE",
"159 300 CURVE SMOOTH",
"44 300 OFFCURVE",
"-30 127 OFFCURVE",
"70 42 CURVE",
"46 18 OFFCURVE",
"24 -10 OFFCURVE",
"24 -59 CURVE SMOOTH",
"24 -132 OFFCURVE",
"75 -182 OFFCURVE",
"132 -200 CURVE SMOOTH"
);
}
);
width = 370;
},
{
anchors = (
{
name = dotAbove;
position = "{174, 500}";
},
{
name = markAbove;
position = "{174, 550}";
},
{
name = markBelow;
position = "{214, -270}";
}
);
layerId = "A6CBEFC3-C9E0-479E-A224-60A030287C4A";
paths = (
{
closed = 1;
nodes = (
"218 -224 OFFCURVE",
"343 -202 OFFCURVE",
"389 -147 CURVE",
"325 -169 OFFCURVE",
"165 -180 OFFCURVE",
"165 -72 CURVE SMOOTH",
"165 -21 OFFCURVE",
"211 0 OFFCURVE",
"236 0 CURVE SMOOTH",
"299 0 LINE",
"359 140 LINE",
"256 140 LINE SMOOTH",
"190 140 OFFCURVE",
"158 170 OFFCURVE",
"158 204 CURVE SMOOTH",
"158 227 OFFCURVE",
"179 251 OFFCURVE",
"202 254 CURVE SMOOTH",
"227 259 OFFCURVE",
"259 249 OFFCURVE",
"292 224 CURVE",
"287 260 OFFCURVE",
"246 320 OFFCURVE",
"178 320 CURVE SMOOTH",
"41 320 OFFCURVE",
"-30 146 OFFCURVE",
"70 53 CURVE",
"49 23 OFFCURVE",
"34 -10 OFFCURVE",
"34 -59 CURVE SMOOTH",
"34 -132 OFFCURVE",
"85 -182 OFFCURVE",
"142 -200 CURVE SMOOTH"
);
}
);
width = 389;
},
{
anchors = (
{
name = dotAbove;
position = "{155, 500}";
},
{
name = markAbove;
position = "{155, 550}";
},
{
name = markBelow;
position = "{195, -270}";
}
);
associatedMasterId = "A6CBEFC3-C9E0-479E-A224-60A030287C4A";
layerId = "93C5E99D-B9EC-41E5-91D7-C1EFD20229ED";
name = "Nov 5 20, 22:44";
paths = (
{
closed = 1;
nodes = (
"171 140 OFFCURVE",
"139 170 OFFCURVE",
"139 204 CURVE SMOOTH",
"139 227 OFFCURVE",
"160 251 OFFCURVE",
"183 254 CURVE SMOOTH",
"208 259 OFFCURVE",
"240 249 OFFCURVE",
"273 224 CURVE",
"268 260 OFFCURVE",
"227 320 OFFCURVE",
"159 320 CURVE SMOOTH",
"15 320 OFFCURVE",
"-56 128 OFFCURVE",
"67 39 CURVE",
"307 140 LINE"
);
},
{
closed = 1;
nodes = (
"208 -223 OFFCURVE",
"325 -202 OFFCURVE",
"371 -147 CURVE",
"307 -169 OFFCURVE",
"146 -180 OFFCURVE",
"146 -72 CURVE SMOOTH",
"146 -21 OFFCURVE",
"192 0 OFFCURVE",
"217 0 CURVE SMOOTH",
"280 0 LINE",
"340 140 LINE",
"200 140 LINE SMOOTH",
"84 140 OFFCURVE",
"25 36 OFFCURVE",
"25 -37 CURVE SMOOTH",
"25 -131 OFFCURVE",
"75 -183 OFFCURVE",
"132 -200 CURVE SMOOTH"
);
}
);
width = 370;
}
);
unicode = 0639;
},
{
glyphname = "ain-ar.fina.1";
production = uni0639.fina.1;
layers = (
{
anchors = (
{
name = markBelow;
position = "{195, -270}";
}
);
components = (
{
name = _ain.bowel;
},
{
name = _ain.head.1;
}
);
layerId = master01;
paths = (
{
closed = 1;
nodes = (
"428 0 LINE",
"510 0 LINE",
"510 100 LINE",
"428 100 LINE"
);
}
);
width = 490;
},
{
anchors = (
{
name = markBelow;
position = "{195, -270}";
}
);
components = (
{
name = _ain.bowel;
},
{
name = _ain.head.1;
}
);
layerId = "A6CBEFC3-C9E0-479E-A224-60A030287C4A";
paths = (
{
closed = 1;
nodes = (
"428 0 LINE",
"510 0 LINE",
"510 140 LINE",
"428 140 LINE"
);
}
);
width = 490;
}
);
},
{
glyphname = "ain-ar.medi";
production = uni0639.medi;
layers = (
{
anchors = (
{
name = markBelow;
position = "{175, -150}";
}
);
components = (
{
name = _ain.head;
}
);
layerId = master01;
paths = (
{
closed = 1;
nodes = (
"370 0 LINE",
"370 100 LINE",
"-20 100 LINE",
"-20 0 LINE"
);
}
);
width = 350;
},
{
anchors = (
{
name = markBelow;
position = "{194, -150}";
}
);
components = (
{
name = _ain.head;
}
);
layerId = "A6CBEFC3-C9E0-479E-A224-60A030287C4A";
paths = (
{
closed = 1;
nodes = (
"389 0 LINE",
"389 140 LINE",
"-20 140 LINE",
"-20 0 LINE"
);
}
);
width = 369;
}
);
},
{
glyphname = "ain-ar.medi.1";
production = uni0639.medi.1;
layers = (
{
anchors = (
{
name = markBelow;
position = "{230, -150}";
}
);
components = (
{
name = _ain.head.1;
transform = "{1, 0, 0, 1, -31, 0}";
}
);
layerId = master01;
paths = (
{
closed = 1;
nodes = (
"-20 0 LINE",
"480 0 LINE",
"480 100 LINE",
"-20 100 LINE"
);
}
);
width = 460;
},
{
anchors = (
{
name = markBelow;
position = "{230, -150}";
}
);
components = (
{
name = _ain.head.1;
}
);
layerId = "A6CBEFC3-C9E0-479E-A224-60A030287C4A";
paths = (
{
closed = 1;
nodes = (
"-20 0 LINE",
"545 0 LINE",
"545 140 LINE",
"-20 140 LINE"
);
}
);
width = 525;
}
);
},
{
glyphname = "ain-ar.init";
production = uni0639.init;
layers = (
{
anchors = (
{
name = dotAbove;
position = "{155, 500}";
},
{
name = markAbove;
position = "{155, 550}";
},
{
name = markBelow;
position = "{175, -150}";
}
);
layerId = master01;
paths = (
{
closed = 1;
nodes = (
"450 0 LINE",
"510 100 LINE",
"270 100 LINE SMOOTH",
"230 100 OFFCURVE",
"206 126 OFFCURVE",
"187 146 CURVE SMOOTH",
"175 158 OFFCURVE",
"172 183 OFFCURVE",
"179 200 CURVE SMOOTH",
"193 233 OFFCURVE",
"233 265 OFFCURVE",
"313 302 CURVE",
"306 311 LINE",
"144 259 OFFCURVE",
"94 208 OFFCURVE",
"78 183 CURVE SMOOTH",
"66 165 OFFCURVE",
"68 116 OFFCURVE",
"96 100 CURVE",
"-20 100 LINE",
"-20 0 LINE"
);
}
);
width = 535;
},
{
anchors = (
{
name = dotAbove;
position = "{155, 500}";
},
{
name = markAbove;
position = "{155, 550}";
},
{
name = markBelow;
position = "{175, -150}";
}
);
layerId = "A6CBEFC3-C9E0-479E-A224-60A030287C4A";
paths = (
{
closed = 1;
nodes = (
"451 0 LINE",
"510 140 LINE",
"270 140 LINE SMOOTH",
"239 140 OFFCURVE",
"221 160 OFFCURVE",
"201 184 CURVE SMOOTH",
"191 197 OFFCURVE",
"189 219 OFFCURVE",
"197 232 CURVE SMOOTH",
"213 258 OFFCURVE",
"248 290 OFFCURVE",
"344 334 CURVE",
"337 343 LINE",
"167 310 OFFCURVE",
"95 287 OFFCURVE",
"61 234 CURVE SMOOTH",
"41 203 OFFCURVE",
"48 165 OFFCURVE",
"57 140 CURVE",
"-40 140 LINE",
"-40 0 LINE"
);
}
);
width = 535;
}
);
},
{
glyphname = "fehDotless-ar";
layers = (
{
anchors = (
{
name = markBelow;
position = "{425, -150}";
}
);
components = (
{
name = "fehDotless-ar.init";
transform = "{1, 0, 0, 1, 425, 0}";
}
);
layerId = master01;
paths = (
{
closed = 1;
nodes = (
"435 0 LINE",
"435 100 LINE",
"85 100 LINE",
"25 0 LINE"
);
}
);
width = 850;
},
{
anchors = (
{
name = markBelow;
position = "{425, -150}";
}
);
components = (
{
name = "fehDotless-ar.init";
transform = "{1, 0, 0, 1, 425, 0}";
}
);
layerId = "A6CBEFC3-C9E0-479E-A224-60A030287C4A";
paths = (
{
closed = 1;
nodes = (
"435 0 LINE",
"435 140 LINE",
"85 140 LINE",
"25 0 LINE"
);
}
);
width = 850;
}
);
unicode = 06A1;
},
{
glyphname = "fehDotless-ar.fina";
layers = (
{
components = (
{
name = "fehDotless-ar";
}
);
layerId = master01;
paths = (
{
closed = 1;
nodes = (
"945 0 LINE",
"945 100 LINE",
"725 100 LINE",
"725 0 LINE"
);
}
);
width = 925;
},
{
components = (
{
name = "fehDotless-ar";
}
);
layerId = "A6CBEFC3-C9E0-479E-A224-60A030287C4A";
paths = (
{
closed = 1;
nodes = (
"945 0 LINE",
"945 140 LINE",
"725 140 LINE",
"725 0 LINE"
);
}
);
width = 925;
}
);
},
{
glyphname = "fehDotless-ar.medi";
layers = (
{
components = (
{
name = "fehDotless-ar.init";
}
);
layerId = master01;
paths = (
{
closed = 1;
nodes = (
"520 0 LINE",
"520 100 LINE",
"340 100 LINE",
"340 0 LINE"
);
}
);
width = 500;
},
{
components = (
{
name = "fehDotless-ar.init";
}
);
layerId = "A6CBEFC3-C9E0-479E-A224-60A030287C4A";
paths = (
{
closed = 1;
nodes = (
"520 0 LINE",
"520 140 LINE",
"340 140 LINE",
"340 0 LINE"
);
}
);
width = 500;
}
);
},
{
glyphname = "fehDotless-ar.init";
layers = (
{
anchors = (
{
name = dotAbove;
position = "{250, 600}";
},
{
name = markAbove;
position = "{250, 600}";
},
{
name = markBelow;
position = "{250, -150}";
}
);
components = (
{
name = _circle;
transform = "{1, 0, 0, 1, 76, 350}";
}
);
layerId = master01;
paths = (
{
closed = 1;
nodes = (
"360 0 LINE",
"360 0 OFFCURVE",
"400 -2 OFFCURVE",
"400 23 CURVE SMOOTH",
"400 300 LINE",
"300 228 LINE",
"300 100 LINE",
"-20 100 LINE",
"-20 0 LINE"
);
}
);
width = 425;
},
{
anchors = (
{
name = dotAbove;
position = "{230, 600}";
},
{
name = markAbove;
position = "{230, 600}";
},
{
name = markBelow;
position = "{230, -150}";
}
);
components = (
{
name = _circle;
transform = "{1, 0, 0, 1, 35, 390}";
}
);
layerId = "A6CBEFC3-C9E0-479E-A224-60A030287C4A";
paths = (
{
closed = 1;
nodes = (
"360 0 LINE",
"360 0 OFFCURVE",
"400 -2 OFFCURVE",
"400 23 CURVE SMOOTH",
"400 340 LINE",
"260 268 LINE",
"260 140 LINE",
"-20 140 LINE",
"-20 0 LINE"
);
}
);
width = 425;
}
);
},
{
glyphname = "qafDotless-ar";
layers = (
{
anchors = (
{
name = dotAbove;
position = "{340, 500}";
},
{
name = markAbove;
position = "{340, 500}";
},
{
name = markBelow;
position = "{247, -270}";
}
);
layerId = master01;
paths = (
{
closed = 1;
nodes = (
"477 -215 OFFCURVE",
"490 -3 OFFCURVE",
"490 50 CURVE SMOOTH",
"490 150 LINE",
"390 78 LINE",
"390 10 LINE SMOOTH",
"390 -101 OFFCURVE",
"348 -148 OFFCURVE",
"246 -148 CURVE SMOOTH",
"122 -148 OFFCURVE",
"55 -81 OFFCURVE",
"55 -5 CURVE SMOOTH",
"55 28 OFFCURVE",
"64 64 OFFCURVE",
"83 76 CURVE SMOOTH",
"97 85 OFFCURVE",
"114 87 OFFCURVE",
"142 83 CURVE",
"135 120 OFFCURVE",
"105 126 OFFCURVE",
"94 125 CURVE",
"113 150 OFFCURVE",
"110 173 OFFCURVE",
"107 198 CURVE",
"59 155 OFFCURVE",
"25 83 OFFCURVE",
"25 -5 CURVE SMOOTH",
"25 -97 OFFCURVE",
"93 -215 OFFCURVE",
"246 -215 CURVE SMOOTH"
);
},
{
closed = 1;
nodes = (
"424 0 OFFCURVE",
"490 67 OFFCURVE",
"490 150 CURVE SMOOTH",
"490 233 OFFCURVE",
"424 300 OFFCURVE",
"342 300 CURVE SMOOTH",
"260 300 OFFCURVE",
"193 233 OFFCURVE",
"193 150 CURVE SMOOTH",
"193 67 OFFCURVE",
"260 0 OFFCURVE",
"342 0 CURVE SMOOTH"
);
},
{
closed = 1;
nodes = (
"314 100 OFFCURVE",
"292 122 OFFCURVE",
"292 150 CURVE SMOOTH",
"292 178 OFFCURVE",
"314 200 OFFCURVE",
"342 200 CURVE SMOOTH",
"370 200 OFFCURVE",
"392 178 OFFCURVE",
"392 150 CURVE SMOOTH",
"392 122 OFFCURVE",
"370 100 OFFCURVE",
"342 100 CURVE SMOOTH"
);
}
);
width = 515;
},
{
anchors = (
{
name = dotAbove;
position = "{340, 500}";
},
{
name = markAbove;
position = "{340, 500}";
},
{
name = markBelow;
position = "{247, -270}";
}
);
layerId = "A6CBEFC3-C9E0-479E-A224-60A030287C4A";
paths = (
{
closed = 1;
nodes = (
"498 -215 OFFCURVE",
"511 -3 OFFCURVE",
"511 50 CURVE SMOOTH",
"511 170 LINE",
"371 78 LINE",
"371 10 LINE SMOOTH",
"371 -101 OFFCURVE",
"339 -148 OFFCURVE",
"237 -148 CURVE SMOOTH",
"143 -148 OFFCURVE",
"76 -81 OFFCURVE",
"76 -5 CURVE SMOOTH",
"76 28 OFFCURVE",
"85 54 OFFCURVE",
"104 66 CURVE SMOOTH",
"118 75 OFFCURVE",
"128 77 OFFCURVE",
"156 73 CURVE",
"149 110 OFFCURVE",
"126 126 OFFCURVE",
"115 125 CURVE",
"134 150 OFFCURVE",
"121 173 OFFCURVE",
"118 198 CURVE",
"70 155 OFFCURVE",
"36 83 OFFCURVE",
"36 -5 CURVE SMOOTH",
"36 -97 OFFCURVE",
"104 -215 OFFCURVE",
"267 -215 CURVE SMOOTH"
);
},
{
closed = 1;
nodes = (
"435 0 OFFCURVE",
"511 76 OFFCURVE",
"511 170 CURVE SMOOTH",
"511 264 OFFCURVE",
"435 340 OFFCURVE",
"342 340 CURVE SMOOTH",
"249 340 OFFCURVE",
"174 264 OFFCURVE",
"174 170 CURVE SMOOTH",
"174 76 OFFCURVE",
"249 0 OFFCURVE",
"342 0 CURVE SMOOTH"
);
},
{
closed = 1;
nodes = (
"325 139 OFFCURVE",
"311 153 OFFCURVE",
"311 170 CURVE SMOOTH",
"311 187 OFFCURVE",
"325 201 OFFCURVE",
"342 201 CURVE SMOOTH",
"359 201 OFFCURVE",
"374 187 OFFCURVE",
"374 170 CURVE SMOOTH",
"374 153 OFFCURVE",
"359 139 OFFCURVE",
"342 139 CURVE SMOOTH"
);
}
);
width = 536;
}
);
unicode = 066F;
},
{
glyphname = "qafDotless-ar.fina";
layers = (
{
components = (
{
name = "qafDotless-ar";
}
);
layerId = master01;
paths = (
{
closed = 1;
nodes = (
"620 0 LINE",
"620 100 LINE",
"342 100 LINE",
"342 0 LINE"
);
}
);
width = 600;
},
{
components = (
{
name = "qafDotless-ar";
}
);
layerId = "A6CBEFC3-C9E0-479E-A224-60A030287C4A";
paths = (
{
closed = 1;
nodes = (
"620 0 LINE",
"620 140 LINE",
"342 140 LINE",
"342 0 LINE"
);
}
);
width = 600;
}
);
},
{
glyphname = "kaf-ar";
layers = (
{
anchors = (
{
name = dotAbove;
position = "{200, 500}";
},
{
name = gafAbove;
position = "{374, 467}";
},
{
name = markAbove;
position = "{370, 550}";
},
{
name = markBelow;
position = "{505, -150}";
}
);
layerId = master01;
paths = (
{
closed = 1;
nodes = (
"945 0 LINE",
"945 0 OFFCURVE",
"985 -2 OFFCURVE",
"985 23 CURVE SMOOTH",
"985 143 OFFCURVE",
"1002 300 OFFCURVE",
"795 300 CURVE SMOOTH",
"265 300 LINE",
"165 200 LINE",
"795 200 LINE SMOOTH",
"870 200 OFFCURVE",
"886 156 OFFCURVE",
"885 100 CURVE",
"85 100 LINE",
"25 0 LINE"
);
},
{
closed = 1;
nodes = (
"559.5 456.077 LINE SMOOTH",
"566.661 463.076 OFFCURVE",
"577.521 465.779 OFFCURVE",
"586.032 451.227 CURVE",
"585.968 616.481 LINE",
"254 289 LINE",
"320 222 LINE"
);
}
);
width = 1010;
},
{
anchors = (
{
name = dotAbove;
position = "{200, 500}";
},
{
name = gafAbove;
position = "{374, 467}";
},
{
name = markAbove;
position = "{370, 550}";
},
{
name = markBelow;
position = "{505, -150}";
}
);
layerId = "A6CBEFC3-C9E0-479E-A224-60A030287C4A";
paths = (
{
closed = 1;
nodes = (
"945 0 LINE",
"945 0 OFFCURVE",
"985 -2 OFFCURVE",
"985 23 CURVE SMOOTH",
"985 143 OFFCURVE",
"1002 340 OFFCURVE",
"755 340 CURVE SMOOTH",
"306 340 LINE",
"164 200 LINE",
"755 200 LINE SMOOTH",
"830 200 OFFCURVE",
"846 176 OFFCURVE",
"845 140 CURVE",
"109 140 LINE",
"25 0 LINE"
);
},
{
closed = 1;
nodes = (
"614 467 LINE SMOOTH",
"622 475 OFFCURVE",
"632 477 OFFCURVE",
"641 462 CURVE",
"641 671 LINE",
"277 311 LINE",
"348 209 LINE"
);
}
);
width = 1010;
}
);
unicode = 0643;
},
{
glyphname = "kaf-ar.fina";
production = uni0643.fina;
layers = (
{
anchors = (
{
name = dotAbove;
position = "{500, 500}";
},
{
name = markAbove;
position = "{500, 550}";
},
{
name = markBelow;
position = "{440, -150}";
}
);
layerId = master01;
paths = (
{
closed = 1;
nodes = (
"185 200 LINE",
"185 800 LINE",
"85 778 LINE",
"85 200 LINE"
);
},
{
closed = 1;
nodes = (
"985 0 LINE",
"985 100 LINE",
"789 100 LINE",
"789 0 LINE"
);
},
{
closed = 1;
nodes = (
"825 0 LINE",
"825 0 OFFCURVE",
"865 -2 OFFCURVE",
"865 23 CURVE SMOOTH",
"865 143 OFFCURVE",
"882 300 OFFCURVE",
"675 300 CURVE SMOOTH",
"110 300 LINE",
"110 200 LINE",
"675 200 LINE SMOOTH",
"750 200 OFFCURVE",
"766 156 OFFCURVE",
"765 100 CURVE",
"85 100 LINE",
"25 0 LINE"
);
}
);
width = 965;
},
{
anchors = (
{
name = dotAbove;
position = "{500, 500}";
},
{
name = markAbove;
position = "{500, 550}";
},
{
name = markBelow;
position = "{440, -150}";
}
);
layerId = "A6CBEFC3-C9E0-479E-A224-60A030287C4A";
paths = (
{
closed = 1;
nodes = (
"249 200 LINE",
"249 800 LINE",
"109 769 LINE",
"109 200 LINE"
);
},
{
closed = 1;
nodes = (
"985 0 LINE",
"985 140 LINE",
"789 140 LINE",
"789 0 LINE"
);
},
{
closed = 1;
nodes = (
"825 0 LINE",
"825 0 OFFCURVE",
"865 -2 OFFCURVE",
"865 23 CURVE SMOOTH",
"865 143 OFFCURVE",
"882 340 OFFCURVE",
"635 340 CURVE SMOOTH",
"110 340 LINE",
"110 200 LINE",
"635 200 LINE SMOOTH",
"710 200 OFFCURVE",
"726 176 OFFCURVE",
"725 140 CURVE",
"109 140 LINE",
"25 0 LINE"
);
}
);
width = 965;
}
);
},
{
glyphname = "kaf-ar.fina.1";
production = uni0643.fina.1;
layers = (
{
components = (
{
name = "kaf-ar";
}
);
layerId = master01;
paths = (
{
closed = 1;
nodes = (
"1105 0 LINE",
"1105 100 LINE",
"909 100 LINE",
"909 0 LINE"
);
}
);
width = 1085;
},
{
components = (
{
name = "kaf-ar";
}
);
layerId = "A6CBEFC3-C9E0-479E-A224-60A030287C4A";
paths = (
{
closed = 1;
nodes = (
"1105 0 LINE",
"1105 140 LINE",
"909 140 LINE",
"909 0 LINE"
);
}
);
width = 1085;
}
);
},
{
glyphname = "kaf-ar.medi";
production = uni0643.medi;
layers = (
{
anchors = (
{
name = dotAbove;
position = "{670, 500}";
},
{
name = markAbove;
position = "{670, 550}";
},
{
name = markBelow;
position = "{440, -150}";
}
);
layerId = master01;
paths = (
{
closed = 1;
nodes = (
"1005 0 LINE",
"1005 100 LINE",
"865 100 LINE",
"862 201 OFFCURVE",
"839 300 OFFCURVE",
"675 300 CURVE SMOOTH",
"298.361 300 LINE",
"425 483 LINE SMOOTH",
"488.36 577.79 OFFCURVE",
"474.938 690.963 OFFCURVE",
"394 768 CURVE SMOOTH",
"340.282 819.54 OFFCURVE",
"256.002 826.816 OFFCURVE",
"184 814.309 CURVE SMOOTH",
"156.814 809.587 OFFCURVE",
"127 815.5 OFFCURVE",
"105 823 CURVE",
"149 674 LINE",
"166 687.5 OFFCURVE",
"195.4 707.1 OFFCURVE",
"217 709.938 CURVE SMOOTH",
"257.157 715.214 OFFCURVE",
"295.69 708.409 OFFCURVE",
"323 685 CURVE SMOOTH",
"357.342 655.941 OFFCURVE",
"368.523 594.575 OFFCURVE",
"345.014 560.637 CURVE",
"345.014 560.637 OFFCURVE",
"178.848 319.068 OFFCURVE",
"94 200 CURVE",
"675 200 LINE SMOOTH",
"750 200 OFFCURVE",
"766 156 OFFCURVE",
"765 100 CURVE",
"-20 100 LINE",
"-20 0 LINE"
);
}
);
width = 985;
},
{
anchors = (
{
name = dotAbove;
position = "{670, 500}";
},
{
name = markAbove;
position = "{670, 550}";
},
{
name = markBelow;
position = "{440, -150}";
}
);
layerId = "A6CBEFC3-C9E0-479E-A224-60A030287C4A";
paths = (
{
closed = 1;
nodes = (
"1005 0 LINE",
"1005 140 LINE",
"862 140 LINE",
"853 241 OFFCURVE",
"810 340 OFFCURVE",
"635 340 CURVE SMOOTH",
"366 340 LINE",
"441 447 LINE SMOOTH",
"504 536 OFFCURVE",
"481 668 OFFCURVE",
"404 749 CURVE SMOOTH",
"336 820 OFFCURVE",
"224 826 OFFCURVE",
"152 814 CURVE SMOOTH",
"125 809 OFFCURVE",
"95 815 OFFCURVE",
"73 822 CURVE",
"125 638 LINE",
"142 652 OFFCURVE",
"171 671 OFFCURVE",
"193 674 CURVE SMOOTH",
"233 679 OFFCURVE",
"272 672 OFFCURVE",
"299 649 CURVE SMOOTH",
"333 620 OFFCURVE",
"345 559 OFFCURVE",
"321 525 CURVE",
"256 429 OFFCURVE",
"159 290 OFFCURVE",
"94 200 CURVE",
"635 200 LINE SMOOTH",
"710 200 OFFCURVE",
"726 176 OFFCURVE",
"725 140 CURVE",
"-19 140 LINE",
"-20 0 LINE"
);
}
);
width = 985;
}
);
},
{
glyphname = "kaf-ar.medi.1";
production = uni0643.medi.1;
layers = (
{
components = (
{
name = "kaf-ar.init.1";
}
);
layerId = master01;
paths = (
{
closed = 1;
nodes = (
"1005 0 LINE",
"1005 100 LINE",
"809 100 LINE",
"809 0 LINE"
);
}
);
width = 985;
},
{
components = (
{
name = "kaf-ar.init.1";
}
);
layerId = "A6CBEFC3-C9E0-479E-A224-60A030287C4A";
paths = (
{
closed = 1;
nodes = (
"1005 0 LINE",
"1005 100 LINE",
"809 100 LINE",
"809 0 LINE"
);
}
);
width = 985;
}
);
},
{
glyphname = "kaf-ar.init";
production = uni0643.init;
layers = (
{
anchors = (
{
name = dotAbove;
position = "{500, 500}";
},
{
name = markAbove;
position = "{500, 550}";
},
{
name = markBelow;
position = "{440, -150}";
}
);
layerId = master01;
paths = (
{
closed = 1;
nodes = (
"875 0 LINE",
"875 0 OFFCURVE",
"915 -2 OFFCURVE",
"915 23 CURVE SMOOTH",
"915 143 OFFCURVE",
"932 300 OFFCURVE",
"725 300 CURVE SMOOTH",
"160 300 LINE",
"160 200 LINE",
"725 200 LINE SMOOTH",
"800 200 OFFCURVE",
"816 156 OFFCURVE",
"815 100 CURVE",
"-20 100 LINE",
"-20 0 LINE"
);
},
{
closed = 1;
nodes = (
"215 200 LINE",
"215 800 LINE",
"115 778 LINE",
"115 200 LINE"
);
}
);
width = 940;
},
{
anchors = (
{
name = dotAbove;
position = "{500, 500}";
},
{
name = markAbove;
position = "{500, 550}";
},
{
name = markBelow;
position = "{440, -150}";
}
);
layerId = "A6CBEFC3-C9E0-479E-A224-60A030287C4A";
paths = (
{
closed = 1;
nodes = (
"875 0 LINE",
"875 0 OFFCURVE",
"915 -2 OFFCURVE",
"915 23 CURVE SMOOTH",
"915 143 OFFCURVE",
"932 340 OFFCURVE",
"685 340 CURVE SMOOTH",
"160 340 LINE",
"160 200 LINE",
"685 200 LINE SMOOTH",
"760 200 OFFCURVE",
"776 176 OFFCURVE",
"775 140 CURVE",
"-20 140 LINE",
"-20 0 LINE"
);
},
{
closed = 1;
nodes = (
"255 200 LINE",
"255 800 LINE",
"115 769 LINE",
"115 200 LINE"
);
}
);
width = 940;
}
);
},
{
glyphname = "lam-ar";
layers = (
{
anchors = (
{
name = markAbove;
position = "{100, 550}";
},
{
name = markBelow;
position = "{215, -270}";
}
);
components = (
{
name = _seen.bowel;
}
);
layerId = master01;
paths = (
{
closed = 1;
nodes = (
"445 0 LINE",
"445 800 LINE",
"345 778 LINE",
"345 40 LINE"
);
}
);
width = 470;
},
{
anchors = (
{
name = markAbove;
position = "{100, 550}";
},
{
name = markBelow;
position = "{215, -270}";
}
);
components = (
{
name = _seen.bowel;
}
);
layerId = "A6CBEFC3-C9E0-479E-A224-60A030287C4A";
paths = (
{
closed = 1;
nodes = (
"445 0 LINE",
"445 800 LINE",
"305 769 LINE",
"305 40 LINE"
);
}
);
width = 470;
}
);
unicode = 0644;
},
{
glyphname = "lam-ar.fina";
production = uni0644.fina;
layers = (
{
components = (
{
name = "lam-ar";
}
);
layerId = master01;
paths = (
{
closed = 1;
nodes = (
"565 0 LINE",
"565 100 LINE",
"395 100 LINE",
"395 0 LINE"
);
}
);
width = 545;
},
{
components = (
{
name = "lam-ar";
}
);
layerId = "A6CBEFC3-C9E0-479E-A224-60A030287C4A";
paths = (
{
closed = 1;
nodes = (
"565 0 LINE",
"565 140 LINE",
"395 140 LINE",
"395 0 LINE"
);
}
);
width = 545;
}
);
},
{
glyphname = "lam-ar.medi";
production = uni0644.medi;
layers = (
{
anchors = (
{
name = markBelow;
position = "{150, -150}";
}
);
components = (
{
name = "lam-ar.init";
}
);
layerId = master01;
paths = (
{
closed = 1;
nodes = (
"320 0 LINE",
"320 100 LINE",
"100 100 LINE",
"100 0 LINE"
);
}
);
width = 300;
},
{
anchors = (
{
name = markBelow;
position = "{150, -150}";
}
);
components = (
{
name = "lam-ar.init";
}
);
layerId = "A6CBEFC3-C9E0-479E-A224-60A030287C4A";
paths = (
{
closed = 1;
nodes = (
"320 0 LINE",
"320 140 LINE",
"100 140 LINE",
"100 0 LINE"
);
}
);
width = 300;
}
);
},
{
glyphname = "lam-ar.medi.Alef";
production = uni0644.medi.Alef;
layers = (
{
components = (
{
name = "lam-ar.init.Alef";
}
);
layerId = master01;
paths = (
{
closed = 1;
nodes = (
"445 0 LINE",
"445 100 LINE",
"225 100 LINE",
"175 0 LINE"
);
}
);
width = 425;
},
{
associatedMasterId = master01;
layerId = "133C469B-42F8-4F11-B2D7-46ADA67424F5";
name = Back;
paths = (
{
closed = 1;
nodes = (
"25 778 LINE",
"125 800 LINE",
"125 100 LINE",
"25 150 LINE"
);
}
);
width = 425;
},
{
components = (
{
name = "lam-ar.init.Alef";
}
);
layerId = "A6CBEFC3-C9E0-479E-A224-60A030287C4A";
paths = (
{
closed = 1;
nodes = (
"445 0 LINE",
"445 140 LINE",
"225 140 LINE",
"175 0 LINE"
);
}
);
width = 425;
},
{
associatedMasterId = "A6CBEFC3-C9E0-479E-A224-60A030287C4A";
layerId = "023270C7-179F-4525-81E9-22A8EAB4A0A9";
name = Back;
paths = (
{
closed = 1;
nodes = (
"25 778 LINE",
"125 800 LINE",
"125 100 LINE",
"25 150 LINE"
);
}
);
width = 425;
}
);
},
{
glyphname = "lam-ar.init";
production = uni0644.init;
layers = (
{
anchors = (
{
name = markAbove;
position = "{155, 830}";
},
{
name = markBelow;
position = "{100, -150}";
}
);
layerId = master01;
paths = (
{
closed = 1;
nodes = (
"160 0 LINE",
"160 0 OFFCURVE",
"200 -2 OFFCURVE",
"200 23 CURVE SMOOTH",
"200 800 LINE",
"100 778 LINE",
"100 100 LINE",
"-20 100 LINE",
"-20 0 LINE"
);
}
);
width = 225;
},
{
anchors = (
{
name = markAbove;
position = "{125, 830}";
},
{
name = markBelow;
position = "{100, -150}";
}
);
layerId = "A6CBEFC3-C9E0-479E-A224-60A030287C4A";
paths = (
{
closed = 1;
nodes = (
"160 0 LINE",
"160 0 OFFCURVE",
"200 -2 OFFCURVE",
"200 23 CURVE SMOOTH",
"200 800 LINE",
"60 769 LINE",
"60 140 LINE",
"-20 140 LINE",
"-20 0 LINE"
);
}
);
width = 225;
}
);
},
{
glyphname = "lam-ar.init.Alef";
production = uni0644.init.Alef;
layers = (
{
anchors = (
{
name = markAbove;
position = "{275, 830}";
},
{
name = markBelow;
position = "{260, -270}";
}
);
components = (
{
name = _circle;
}
);
layerId = master01;
paths = (
{
closed = 1;
nodes = (
"257 0 OFFCURVE",
"325 67 OFFCURVE",
"325 150 CURVE",
"225 150 LINE",
"225 122 OFFCURVE",
"203 100 OFFCURVE",
"175 100 CURVE SMOOTH",
"147 100 OFFCURVE",
"125 122 OFFCURVE",
"125 150 CURVE",
"25 150 LINE",
"25 67 OFFCURVE",
"93 0 OFFCURVE",
"175 0 CURVE SMOOTH"
);
},
{
closed = 1;
nodes = (
"325 150 LINE",
"325 778 LINE",
"225 800 LINE",
"225 100 LINE"
);
}
);
width = 350;
},
{
associatedMasterId = master01;
layerId = "A86D7B88-BB27-4C21-951D-89CBD168CB5B";
name = Back;
paths = (
{
closed = 1;
nodes = (
"25 778 LINE",
"125 800 LINE",
"125 100 LINE",
"25 150 LINE"
);
}
);
width = 350;
},
{
anchors = (
{
name = markAbove;
position = "{295, 830}";
},
{
name = markBelow;
position = "{280, -270}";
}
);
components = (
{
name = _circle;
}
);
layerId = "A6CBEFC3-C9E0-479E-A224-60A030287C4A";
paths = (
{
closed = 1;
nodes = (
"289 -20 OFFCURVE",
"365 56 OFFCURVE",
"365 150 CURVE",
"225 150 LINE",
"225 133 OFFCURVE",
"213 120 OFFCURVE",
"196 120 CURVE SMOOTH",
"179 120 OFFCURVE",
"165 133 OFFCURVE",
"165 150 CURVE",
"25 150 LINE",
"25 57 OFFCURVE",
"103 -20 OFFCURVE",
"196 -20 CURVE SMOOTH"
);
},
{
closed = 1;
nodes = (
"365 150 LINE",
"365 769 LINE",
"225 800 LINE",
"225 100 LINE"
);
}
);
width = 390;
},
{
associatedMasterId = "A6CBEFC3-C9E0-479E-A224-60A030287C4A";
layerId = "C1F6EEAF-1875-4577-B0CD-9A454BFDAC2D";
name = Back;
paths = (
{
closed = 1;
nodes = (
"25 778 LINE",
"125 800 LINE",
"125 100 LINE",
"25 150 LINE"
);
}
);
width = 350;
}
);
},
{
glyphname = "lam-ar.init.Alef.1";
production = uni0644.init.Alef.1;
layers = (
{
anchors = (
{
name = markAbove;
position = "{275, 830}";
},
{
name = markBelow;
position = "{260, -150}";
}
);
components = (
{
name = _circle;
transform = "{1, 0, 0, 1, 0, 200}";
}
);
layerId = master01;
paths = (
{
closed = 1;
nodes = (
"257 200 OFFCURVE",
"325 267 OFFCURVE",
"325 350 CURVE",
"225 350 LINE",
"225 322 OFFCURVE",
"203 300 OFFCURVE",
"175 300 CURVE SMOOTH",
"147 300 OFFCURVE",
"125 322 OFFCURVE",
"125 350 CURVE",
"25 350 LINE",
"25 267 OFFCURVE",
"93 200 OFFCURVE",
"175 200 CURVE SMOOTH"
);
},
{
closed = 1;
nodes = (
"325 350 LINE",
"325 778 LINE",
"225 800 LINE",
"225 300 LINE"
);
}
);
width = 350;
},
{
associatedMasterId = master01;
layerId = "77D22897-8F9E-403E-8906-D3FF88B46E6D";
name = Back;
paths = (
{
closed = 1;
nodes = (
"25 778 LINE",
"125 800 LINE",
"125 300 LINE",
"25 350 LINE"
);
}
);
width = 350;
},
{
anchors = (
{
name = markAbove;
position = "{275, 830}";
},
{
name = markBelow;
position = "{260, -150}";
}
);
components = (
{
name = _circle;
transform = "{1, 0, 0, 1, 0, 200}";
}
);
layerId = "A6CBEFC3-C9E0-479E-A224-60A030287C4A";
paths = (
{
closed = 1;
nodes = (
"289 180 OFFCURVE",
"365 256 OFFCURVE",
"365 350 CURVE",
"225 350 LINE",
"225 333 OFFCURVE",
"213 320 OFFCURVE",
"196 320 CURVE SMOOTH",
"179 320 OFFCURVE",
"165 333 OFFCURVE",
"165 350 CURVE",
"25 350 LINE",
"25 257 OFFCURVE",
"103 180 OFFCURVE",
"196 180 CURVE SMOOTH"
);
},
{
closed = 1;
nodes = (
"365 350 LINE",
"365 769 LINE",
"225 800 LINE",
"225 300 LINE"
);
}
);
width = 390;
},
{
associatedMasterId = "A6CBEFC3-C9E0-479E-A224-60A030287C4A";
layerId = "0636151E-04AA-4671-BC71-A7BD54AAD407";
name = Back;
paths = (
{
closed = 1;
nodes = (
"25 778 LINE",
"125 800 LINE",
"125 300 LINE",
"25 350 LINE"
);
}
);
width = 350;
}
);
},
{
glyphname = "lam-ar.init.Hah";
production = uni0644.init.Hah;
layers = (
{
anchors = (
{
name = markAbove;
position = "{-320, 830}";
},
{
name = markBelow;
position = "{-148, -150}";
}
);
layerId = master01;
paths = (
{
closed = 1;
nodes = (
"-400 158 OFFCURVE",
"-265 117 OFFCURVE",
"-265 300 CURVE SMOOTH",
"-265 800 LINE",
"-365 778 LINE",
"-365 300 LINE SMOOTH",
"-365 230 OFFCURVE",
"-360 175 OFFCURVE",
"-435 165 CURVE"
);
}
);
width = 0;
},
{
associatedMasterId = master01;
layerId = "E3638001-6118-4117-BCEC-47C697E0E202";
name = Back;
paths = (
{
closed = 1;
nodes = (
"-502 -123.484 OFFCURVE",
"-476.016 -97.5 OFFCURVE",
"-444 -97.5 CURVE SMOOTH",
"-411.984 -97.5 OFFCURVE",
"-386 -123.484 OFFCURVE",
"-386 -155.5 CURVE SMOOTH",
"-386 -187.516 OFFCURVE",
"-411.984 -213.5 OFFCURVE",
"-444 -213.5 CURVE SMOOTH",
"-476.016 -213.5 OFFCURVE",
"-502 -187.516 OFFCURVE",
"-502 -155.5 CURVE SMOOTH"
);
},
{
closed = 1;
nodes = (
"-570 482.516 OFFCURVE",
"-544.016 508.5 OFFCURVE",
"-512 508.5 CURVE SMOOTH",
"-479.984 508.5 OFFCURVE",
"-454 482.516 OFFCURVE",
"-454 450.5 CURVE SMOOTH",
"-454 418.484 OFFCURVE",
"-479.984 392.5 OFFCURVE",
"-512 392.5 CURVE SMOOTH",
"-544.016 392.5 OFFCURVE",
"-570 418.484 OFFCURVE",
"-570 450.5 CURVE SMOOTH"
);
},
{
closed = 1;
nodes = (
"-540 116 OFFCURVE",
"-574 157 OFFCURVE",
"-590 183 CURVE",
"-534 290 LINE",
"-464 179 OFFCURVE",
"-365 100 OFFCURVE",
"-269 100 CURVE SMOOTH",
"-25 100 LINE",
"-85 0 LINE",
"-705 0 LINE",
"-705 100 LINE",
"-512 100 LINE"
);
}
);
width = 0;
},
{
anchors = (
{
name = markAbove;
position = "{-300, 830}";
},
{
name = markBelow;
position = "{-148, -150}";
}
);
layerId = "A6CBEFC3-C9E0-479E-A224-60A030287C4A";
paths = (
{
closed = 1;
nodes = (
"-378 153 OFFCURVE",
"-225 117 OFFCURVE",
"-225 300 CURVE SMOOTH",
"-225 800 LINE",
"-365 769 LINE",
"-365 300 LINE SMOOTH",
"-365 230 OFFCURVE",
"-360 175 OFFCURVE",
"-435 165 CURVE"
);
}
);
width = 0;
},
{
associatedMasterId = "A6CBEFC3-C9E0-479E-A224-60A030287C4A";
layerId = "D073040E-3B5B-4FC3-97EB-AE75FD467273";
name = Back;
paths = (
{
closed = 1;
nodes = (
"-502 -123.484 OFFCURVE",
"-476.016 -97.5 OFFCURVE",
"-444 -97.5 CURVE SMOOTH",
"-411.984 -97.5 OFFCURVE",
"-386 -123.484 OFFCURVE",
"-386 -155.5 CURVE SMOOTH",
"-386 -187.516 OFFCURVE",
"-411.984 -213.5 OFFCURVE",
"-444 -213.5 CURVE SMOOTH",
"-476.016 -213.5 OFFCURVE",
"-502 -187.516 OFFCURVE",
"-502 -155.5 CURVE SMOOTH"
);
},
{
closed = 1;
nodes = (
"-570 482.516 OFFCURVE",
"-544.016 508.5 OFFCURVE",
"-512 508.5 CURVE SMOOTH",
"-479.984 508.5 OFFCURVE",
"-454 482.516 OFFCURVE",
"-454 450.5 CURVE SMOOTH",
"-454 418.484 OFFCURVE",
"-479.984 392.5 OFFCURVE",
"-512 392.5 CURVE SMOOTH",
"-544.016 392.5 OFFCURVE",
"-570 418.484 OFFCURVE",
"-570 450.5 CURVE SMOOTH"
);
},
{
closed = 1;
nodes = (
"-540 116 OFFCURVE",
"-574 157 OFFCURVE",
"-590 183 CURVE",
"-534 290 LINE",
"-464 179 OFFCURVE",
"-365 100 OFFCURVE",
"-269 100 CURVE SMOOTH",
"-25 100 LINE",
"-85 0 LINE",
"-705 0 LINE",
"-705 100 LINE",
"-512 100 LINE"
);
}
);
width = 0;
}
);
},
{
glyphname = "meem-ar.1";
layers = (
{
anchors = (
{
name = markBelow;
position = "{230, -150}";
}
);
components = (
{
name = _meem.circle.2;
}
);
layerId = master01;
paths = (
{
closed = 1;
nodes = (
"5 -235 OFFCURVE",
"125 -190 OFFCURVE",
"125 -100 CURVE SMOOTH",
"125 92 LINE",
"25 150 LINE",
"25 -100 LINE SMOOTH",
"25 -164 OFFCURVE",
"-44 -181 OFFCURVE",
"-50 -181 CURVE"
);
}
);
width = 347;
},
{
anchors = (
{
name = markBelow;
position = "{230, -150}";
}
);
components = (
{
name = _meem.circle.2;
transform = "{1, 0, 0, 1, 22, 20}";
}
);
layerId = "A6CBEFC3-C9E0-479E-A224-60A030287C4A";
paths = (
{
closed = 1;
nodes = (
"5 -235 OFFCURVE",
"165 -200 OFFCURVE",
"165 -80 CURVE SMOOTH",
"165 92 LINE",
"25 171 LINE",
"25 -80 LINE SMOOTH",
"25 -164 OFFCURVE",
"-44 -181 OFFCURVE",
"-50 -181 CURVE"
);
}
);
width = 391;
}
);
},
{
glyphname = "meem-ar.2";
layers = (
{
anchors = (
{
name = markBelow;
position = "{230, -150}";
}
);
components = (
{
name = _meem.circle.2;
transform = "{1, 0, 0, 1, 88, 0}";
}
);
layerId = master01;
paths = (
{
closed = 1;
nodes = (
"262 0 LINE",
"113 150 LINE",
"113 115 OFFCURVE",
"114 32 OFFCURVE",
"25 10 CURVE",
"25 0 LINE"
);
}
);
width = 435;
},
{
anchors = (
{
name = markBelow;
position = "{230, -150}";
}
);
components = (
{
name = _meem.circle.2;
transform = "{1, 0, 0, 1, 110, 20}";
}
);
layerId = "A6CBEFC3-C9E0-479E-A224-60A030287C4A";
paths = (
{
closed = 1;
nodes = (
"284 0 LINE",
"113 170 LINE",
"113 115 OFFCURVE",
"114 32 OFFCURVE",
"25 10 CURVE",
"25 0 LINE"
);
}
);
width = 479;
}
);
},
{
glyphname = "meem-ar.fina.1";
production = uni0645.fina.1;
layers = (
{
anchors = (
{
name = markBelow;
position = "{230, -150}";
}
);
components = (
{
name = _meem.circle;
transform = "{1, 0, 0, 1, -71, 0}";
}
);
layerId = master01;
paths = (
{
closed = 1;
nodes = (
"5 -235 OFFCURVE",
"125 -190 OFFCURVE",
"125 -100 CURVE SMOOTH",
"125 92 LINE",
"25 150 LINE",
"25 -100 LINE SMOOTH",
"25 -164 OFFCURVE",
"-44 -181 OFFCURVE",
"-50 -181 CURVE"
);
},
{
closed = 1;
nodes = (
"439 0 LINE",
"439 100 LINE",
"239 100 LINE",
"174 0 LINE"
);
}
);
width = 419;
},
{
anchors = (
{
name = markBelow;
position = "{230, -150}";
}
);
components = (
{
name = _meem.circle;
transform = "{1, 0, 0, 1, -49, 0}";
}
);
layerId = "A6CBEFC3-C9E0-479E-A224-60A030287C4A";
paths = (
{
closed = 1;
nodes = (
"5 -235 OFFCURVE",
"165 -200 OFFCURVE",
"165 -80 CURVE SMOOTH",
"165 92 LINE",
"25 171 LINE",
"25 -80 LINE SMOOTH",
"25 -164 OFFCURVE",
"-44 -181 OFFCURVE",
"-50 -181 CURVE"
);
},
{
closed = 1;
nodes = (
"439 0 LINE",
"439 140 LINE",
"239 140 LINE",
"199 0 LINE"
);
}
);
width = 419;
}
);
},
{
glyphname = "meem-ar.fina.2";
production = uni0645.fina.2;
layers = (
{
components = (
{
name = _meem.circle;
transform = "{1, 0, 0, 1, 17, 0}";
}
);
layerId = master01;
paths = (
{
closed = 1;
nodes = (
"262 0 LINE",
"113 150 LINE",
"113 115 OFFCURVE",
"114 32 OFFCURVE",
"25 10 CURVE",
"25 0 LINE"
);
},
{
closed = 1;
nodes = (
"527 0 LINE",
"527 100 LINE",
"327 100 LINE",
"262 0 LINE"
);
}
);
width = 507;
},
{
components = (
{
name = _meem.circle;
transform = "{1, 0, 0, 1, 39, 0}";
}
);
layerId = "A6CBEFC3-C9E0-479E-A224-60A030287C4A";
paths = (
{
closed = 1;
nodes = (
"262 0 LINE",
"113 170 LINE",
"113 115 OFFCURVE",
"114 32 OFFCURVE",
"25 10 CURVE",
"25 0 LINE"
);
},
{
closed = 1;
nodes = (
"527 0 LINE",
"527 140 LINE",
"327 140 LINE",
"262 0 LINE"
);
}
);
width = 507;
}
);
},
{
glyphname = "meem-ar.medi";
production = uni0645.medi;
layers = (
{
components = (
{
name = _meem.circle;
}
);
layerId = master01;
paths = (
{
closed = 1;
nodes = (
"245 0 LINE",
"180 100 LINE",
"-20 100 LINE",
"-20 0 LINE"
);
},
{
closed = 1;
nodes = (
"510 0 LINE",
"510 100 LINE",
"310 100 LINE",
"245 0 LINE"
);
}
);
width = 490;
},
{
components = (
{
name = _meem.circle;
}
);
layerId = "A6CBEFC3-C9E0-479E-A224-60A030287C4A";
paths = (
{
closed = 1;
nodes = (
"245 0 LINE",
"180 140 LINE",
"-20 140 LINE",
"-20 0 LINE"
);
},
{
closed = 1;
nodes = (
"510 0 LINE",
"510 140 LINE",
"310 140 LINE",
"245 0 LINE"
);
}
);
width = 490;
}
);
},
{
glyphname = "meem-ar.medi.1";
production = uni0645.medi.1;
layers = (
{
anchors = (
{
name = markAbove;
position = "{260, 550}";
},
{
name = markBelow;
position = "{245, -150}";
}
);
components = (
{
name = _meem.circle.2;
transform = "{1, 0, 0, 1, 71, -100}";
}
);
layerId = master01;
paths = (
{
closed = 1;
nodes = (
"180 0 LINE",
"180 100 LINE",
"-20 100 LINE",
"-20 0 LINE"
);
},
{
closed = 1;
nodes = (
"510 0 LINE",
"510 100 LINE",
"310 100 LINE",
"310 0 LINE"
);
}
);
width = 490;
},
{
anchors = (
{
name = markAbove;
position = "{260, 550}";
},
{
name = markBelow;
position = "{245, -150}";
}
);
components = (
{
name = _meem.circle.2;
transform = "{1, 0, 0, 1, 71, -80}";
}
);
layerId = "A6CBEFC3-C9E0-479E-A224-60A030287C4A";
paths = (
{
closed = 1;
nodes = (
"180 0 LINE",
"180 140 LINE",
"-20 140 LINE",
"-20 0 LINE"
);
},
{
closed = 1;
nodes = (
"510 0 LINE",
"510 140 LINE",
"310 140 LINE",
"310 0 LINE"
);
}
);
width = 490;
}
);
},
{
glyphname = "meem-ar.init";
production = uni0645.init;
layers = (
{
anchors = (
{
name = markAbove;
position = "{240, 550}";
},
{
name = markBelow;
position = "{245, -150}";
}
);
components = (
{
name = _circle;
transform = "{1, 0, 0, 1, 69, 200}";
}
);
layerId = master01;
paths = (
{
closed = 1;
nodes = (
"245 0 LINE",
"180 100 LINE",
"-20 100 LINE",
"-20 0 LINE"
);
}
);
width = 418;
},
{
anchors = (
{
name = markAbove;
position = "{220, 550}";
},
{
name = markBelow;
position = "{225, -150}";
}
);
components = (
{
name = _circle;
transform = "{1, 0, 0, 1, 28, 220}";
}
);
layerId = "A6CBEFC3-C9E0-479E-A224-60A030287C4A";
paths = (
{
closed = 1;
nodes = (
"227 0 LINE",
"180 140 LINE",
"-20 140 LINE",
"-20 0 LINE"
);
}
);
width = 418;
}
);
},
{
glyphname = "noonghunna-ar";
layers = (
{
anchors = (
{
name = dotAbove;
position = "{230, 400}";
},
{
name = hamzaAbove;
position = "{220, 340}";
},
{
name = markAbove;
position = "{230, 400}";
},
{
name = markBelow;
position = "{223, -270}";
}
);
layerId = master01;
paths = (
{
closed = 1;
nodes = (
"354 -204 OFFCURVE",
"435 -108 OFFCURVE",
"435 5 CURVE SMOOTH",
"435 122 OFFCURVE",
"387 200 OFFCURVE",
"337 262 CURVE",
"285 158 LINE",
"305 134 OFFCURVE",
"346 77 OFFCURVE",
"350 20 CURVE SMOOTH",
"355 -51 OFFCURVE",
"318 -136 OFFCURVE",
"216 -136 CURVE SMOOTH",
"102 -136 OFFCURVE",
"55 -69 OFFCURVE",
"55 0 CURVE SMOOTH",
"55 39 OFFCURVE",
"73 86 OFFCURVE",
"111 90 CURVE SMOOTH",
"129 92 OFFCURVE",
"141 88 OFFCURVE",
"160 77 CURVE",
"166 100 OFFCURVE",
"152 125 OFFCURVE",
"131 135 CURVE",
"150 160 OFFCURVE",
"154 182 OFFCURVE",
"151 207 CURVE",
"88 167 OFFCURVE",
"25 88 OFFCURVE",
"25 0 CURVE SMOOTH",
"25 -62 OFFCURVE",
"64 -204 OFFCURVE",
"221 -204 CURVE SMOOTH"
);
}
);
width = 460;
},
{
anchors = (
{
name = dotAbove;
position = "{230, 400}";
},
{
name = hamzaAbove;
position = "{220, 340}";
},
{
name = markAbove;
position = "{230, 400}";
},
{
name = markBelow;
position = "{223, -270}";
}
);
layerId = "A6CBEFC3-C9E0-479E-A224-60A030287C4A";
paths = (
{
closed = 1;
nodes = (
"328 -204 OFFCURVE",
"435 -132 OFFCURVE",
"435 5 CURVE SMOOTH",
"435 122 OFFCURVE",
"387 200 OFFCURVE",
"337 262 CURVE",
"269 126 LINE",
"289 95 OFFCURVE",
"311 49 OFFCURVE",
"311 6 CURVE SMOOTH",
"311 -85 OFFCURVE",
"247 -131 OFFCURVE",
"184 -131 CURVE SMOOTH",
"124 -131 OFFCURVE",
"66 -89 OFFCURVE",
"66 0 CURVE SMOOTH",
"66 41 OFFCURVE",
"90 74 OFFCURVE",
"120 74 CURVE SMOOTH",
"133 74 OFFCURVE",
"146 69 OFFCURVE",
"160 58 CURVE",
"165 78 OFFCURVE",
"153 124 OFFCURVE",
"131 135 CURVE",
"147 156 OFFCURVE",
"154 181 OFFCURVE",
"151 207 CURVE",
"88 167 OFFCURVE",
"25 88 OFFCURVE",
"25 0 CURVE SMOOTH",
"25 -138 OFFCURVE",
"123 -204 OFFCURVE",
"223 -204 CURVE SMOOTH"
);
}
);
width = 460;
},
{
anchors = (
{
name = dotAbove;
position = "{230, 400}";
},
{
name = hamzaAbove;
position = "{220, 340}";
},
{
name = markAbove;
position = "{230, 400}";
},
{
name = markBelow;
position = "{223, -270}";
}
);
associatedMasterId = "A6CBEFC3-C9E0-479E-A224-60A030287C4A";
layerId = "C4CAB61B-CEAF-48EE-972D-6AC82E51092C";
name = "Nov 6 20, 03:17";
paths = (
{
closed = 1;
nodes = (
"367 -200 OFFCURVE",
"444 -113 OFFCURVE",
"445 0 CURVE",
"445 340 LINE",
"305 309 LINE",
"305 40 LINE SMOOTH",
"305 -71 OFFCURVE",
"276 -143 OFFCURVE",
"198 -143 CURVE SMOOTH",
"126 -143 OFFCURVE",
"66 -79 OFFCURVE",
"66 -1 CURVE SMOOTH",
"66 34 OFFCURVE",
"79 51 OFFCURVE",
"98 64 CURVE SMOOTH",
"116 76 OFFCURVE",
"139 77 OFFCURVE",
"160 57 CURVE",
"166 80 OFFCURVE",
"152 125 OFFCURVE",
"131 135 CURVE",
"150 160 OFFCURVE",
"154 182 OFFCURVE",
"151 207 CURVE",
"88 167 OFFCURVE",
"25 88 OFFCURVE",
"25 0 CURVE SMOOTH",
"25 -62 OFFCURVE",
"53 -200 OFFCURVE",
"216 -200 CURVE SMOOTH"
);
}
);
visible = 1;
width = 460;
}
);
unicode = 06BA;
},
{
glyphname = "noonghunna-ar.fina";
production = uni06BA.fina;
layers = (
{
components = (
{
name = "noonghunna-ar";
}
);
layerId = master01;
paths = (
{
closed = 1;
nodes = (
"510 0 LINE",
"510 100 LINE",
"364 100 LINE",
"364 0 LINE"
);
}
);
width = 490;
},
{
components = (
{
name = "noonghunna-ar";
}
);
layerId = "A6CBEFC3-C9E0-479E-A224-60A030287C4A";
paths = (
{
closed = 1;
nodes = (
"510 0 LINE",
"510 140 LINE",
"364 140 LINE",
"364 0 LINE"
);
}
);
width = 490;
}
);
},
{
glyphname = "heh-ar";
layers = (
{
anchors = (
{
name = dotAbove;
position = "{104, 450}";
},
{
name = markAbove;
position = "{104, 550}";
},
{
name = markBelow;
position = "{174, -150}";
}
);
components = (
{
name = "heh-ar.1";
}
);
layerId = master01;
paths = (
{
closed = 1;
nodes = (
"262 322 OFFCURVE",
"306 340 OFFCURVE",
"324 374 CURVE",
"324 495 LINE",
"224 447 LINE",
"224 320 LINE"
);
},
{
closed = 1;
nodes = (
"324 515 LINE",
"324 800 LINE",
"224 778 LINE",
"224 467 LINE"
);
}
);
width = 349;
},
{
anchors = (
{
name = dotAbove;
position = "{104, 450}";
},
{
name = markAbove;
position = "{104, 550}";
},
{
name = markBelow;
position = "{174, -150}";
}
);
components = (
{
name = "heh-ar.1";
}
);
layerId = "A6CBEFC3-C9E0-479E-A224-60A030287C4A";
paths = (
{
closed = 1;
nodes = (
"280 365 OFFCURVE",
"348 394 OFFCURVE",
"365 426 CURVE",
"365 520 LINE",
"225 463 LINE",
"225 365 LINE"
);
},
{
closed = 1;
nodes = (
"365 550 LINE",
"365 800 LINE",
"225 769 LINE",
"225 493 LINE"
);
}
);
width = 390;
}
);
unicode = 0647;
},
{
glyphname = "heh-ar.1";
layers = (
{
anchors = (
{
name = dotAbove;
position = "{180, 500}";
},
{
name = hamzaAbove;
position = "{174, 450}";
},
{
name = markAbove;
position = "{180, 550}";
},
{
name = markBelow;
position = "{174, -150}";
}
);
components = (
{
name = _circle;
transform = "{1, 0, 0, 1, 0, 200}";
}
);
layerId = master01;
paths = (
{
closed = 1;
nodes = (
"324 346 LINE",
"297 294 OFFCURVE",
"210 300 OFFCURVE",
"175 300 CURVE",
"324 150 LINE"
);
}
);
width = 349;
},
{
anchors = (
{
name = dotAbove;
position = "{201, 500}";
},
{
name = hamzaAbove;
position = "{195, 450}";
},
{
name = markAbove;
position = "{201, 550}";
},
{
name = markBelow;
position = "{195, -150}";
}
);
components = (
{
name = _circle;
transform = "{1, 0, 0, 1, 0, 220}";
}
);
layerId = "A6CBEFC3-C9E0-479E-A224-60A030287C4A";
paths = (
{
closed = 1;
nodes = (
"365 396 LINE",
"338 344 OFFCURVE",
"231 340 OFFCURVE",
"196 340 CURVE",
"365 170 LINE"
);
}
);
width = 390;
}
);
},
{
glyphname = "heh-ar.fina";
production = uni0647.fina;
layers = (
{
components = (
{
name = "heh-ar";
}
);
layerId = master01;
paths = (
{
closed = 1;
nodes = (
"435 0 LINE",
"435 100 LINE",
"238 100 LINE",
"173 0 LINE"
);
},
{
closed = 1;
nodes = (
"322 0 LINE",
"322 200 LINE",
"278 200 LINE",
"278 0 LINE"
);
}
);
width = 415;
},
{
components = (
{
name = "heh-ar";
}
);
layerId = "A6CBEFC3-C9E0-479E-A224-60A030287C4A";
paths = (
{
closed = 1;
nodes = (
"435 0 LINE",
"435 140 LINE",
"238 140 LINE",
"173 0 LINE"
);
},
{
closed = 1;
nodes = (
"365 0 LINE",
"365 200 LINE",
"321 200 LINE",
"321 0 LINE"
);
}
);
width = 415;
}
);
},
{
glyphname = "heh-ar.fina.1";
production = uni0647.fina.1;
layers = (
{
components = (
{
name = "heh-ar.1";
}
);
layerId = master01;
paths = (
{
closed = 1;
nodes = (
"435 0 LINE",
"435 100 LINE",
"238 100 LINE",
"173 0 LINE"
);
},
{
closed = 1;
nodes = (
"322 0 LINE",
"322 200 LINE",
"278 200 LINE",
"278 0 LINE"
);
}
);
width = 415;
},
{
components = (
{
name = "heh-ar.1";
}
);
layerId = "A6CBEFC3-C9E0-479E-A224-60A030287C4A";
paths = (
{
closed = 1;
nodes = (
"435 0 LINE",
"435 140 LINE",
"238 140 LINE",
"173 0 LINE"
);
},
{
closed = 1;
nodes = (
"365 0 LINE",
"365 200 LINE",
"321 200 LINE",
"321 0 LINE"
);
}
);
width = 415;
}
);
},
{
glyphname = "heh-ar.medi";
production = uni0647.medi;
layers = (
{
components = (
{
name = "heh-ar.init";
}
);
layerId = master01;
paths = (
{
closed = 1;
nodes = (
"507 0 LINE",
"507 100 LINE",
"310 100 LINE",
"245 0 LINE"
);
}
);
width = 487;
},
{
components = (
{
name = "heh-ar.init";
}
);
layerId = "A6CBEFC3-C9E0-479E-A224-60A030287C4A";
paths = (
{
closed = 1;
nodes = (
"507 0 LINE",
"507 140 LINE",
"310 140 LINE",
"245 0 LINE"
);
}
);
width = 487;
}
);
},
{
glyphname = "heh-ar.medi.1";
production = uni0647.medi.1;
layers = (
{
components = (
{
name = "heh-ar.init.1";
}
);
layerId = master01;
paths = (
{
closed = 1;
nodes = (
"507 0 LINE",
"507 100 LINE",
"310 100 LINE",
"245 0 LINE"
);
}
);
width = 487;
},
{
components = (
{
name = "heh-ar.init.1";
}
);
layerId = "A6CBEFC3-C9E0-479E-A224-60A030287C4A";
paths = (
{
closed = 1;
nodes = (
"507 0 LINE",
"507 140 LINE",
"310 140 LINE",
"245 0 LINE"
);
}
);
width = 487;
}
);
},
{
glyphname = "heh-ar.medi.2";
production = uni0647.medi.2;
layers = (
{
components = (
{
name = "heh-ar.init.2";
}
);
layerId = master01;
paths = (
{
closed = 1;
nodes = (
"507 0 LINE",
"507 100 LINE",
"310 100 LINE",
"245 0 LINE"
);
}
);
width = 487;
},
{
components = (
{
name = "heh-ar.init.2";
}
);
layerId = "A6CBEFC3-C9E0-479E-A224-60A030287C4A";
paths = (
{
closed = 1;
nodes = (
"507 0 LINE",
"507 140 LINE",
"310 140 LINE",
"245 0 LINE"
);
}
);
width = 487;
}
);
},
{
glyphname = "heh-ar.medi.3";
production = uni0647.medi.3;
layers = (
{
components = (
{
name = "heh-ar.init.3";
}
);
layerId = master01;
paths = (
{
closed = 1;
nodes = (
"507 0 LINE",
"507 100 LINE",
"310 100 LINE",
"245 0 LINE"
);
}
);
width = 487;
},
{
components = (
{
name = "heh-ar.init.3";
}
);
layerId = "A6CBEFC3-C9E0-479E-A224-60A030287C4A";
paths = (
{
closed = 1;
nodes = (
"507 0 LINE",
"507 140 LINE",
"310 140 LINE",
"245 0 LINE"
);
}
);
width = 487;
}
);
},
{
glyphname = "heh-ar.init";
production = uni0647.init;
layers = (
{
anchors = (
{
name = markAbove;
position = "{225, 550}";
},
{
name = markBelow;
position = "{246, -270}";
}
);
components = (
{
name = "heh-ar.1";
transform = "{1, 0, 0, 1, 70, 0}";
},
{
name = _circle;
transform = "{1, 0, 0, 1, 70, 0}";
}
);
layerId = master01;
paths = (
{
closed = 1;
nodes = (
"109 -50 LINE",
"109 150 LINE",
"95 150 LINE",
"95 -50 LINE"
);
},
{
closed = 1;
nodes = (
"245 0 LINE",
"180 100 LINE",
"-20 100 LINE",
"-20 0 LINE"
);
},
{
closed = 1;
nodes = (
"394 -50 LINE",
"394 150 LINE",
"350 150 LINE",
"350 -50 LINE"
);
}
);
width = 419;
},
{
anchors = (
{
name = markAbove;
position = "{224, 550}";
},
{
name = markBelow;
position = "{224, -270}";
}
);
components = (
{
name = "heh-ar.1";
transform = "{1, 0, 0, 1, 29, 10}";
},
{
name = _circle;
transform = "{1, 0, 0, 1, 29, 10}";
}
);
layerId = "A6CBEFC3-C9E0-479E-A224-60A030287C4A";
paths = (
{
closed = 1;
nodes = (
"68 -40 LINE",
"68 180 LINE",
"54 180 LINE",
"54 -40 LINE"
);
},
{
closed = 1;
nodes = (
"245 0 LINE",
"180 140 LINE",
"-20 140 LINE",
"-20 0 LINE"
);
},
{
closed = 1;
nodes = (
"394 -40 LINE",
"394 180 LINE",
"350 180 LINE",
"350 -40 LINE"
);
}
);
width = 419;
}
);
},
{
glyphname = "heh-ar.init.1";
production = uni0647.init.1;
layers = (
{
components = (
{
name = "heh-ar.init";
}
);
layerId = master01;
paths = (
{
closed = 1;
nodes = (
"394 400 LINE",
"295 378 LINE",
"295 272 LINE",
"394 240 LINE"
);
}
);
width = 419;
},
{
components = (
{
name = "heh-ar.init";
}
);
layerId = "A6CBEFC3-C9E0-479E-A224-60A030287C4A";
paths = (
{
closed = 1;
nodes = (
"394 440 LINE",
"255 409 LINE",
"255 303 LINE",
"394 280 LINE"
);
}
);
width = 419;
}
);
},
{
glyphname = "heh-ar.init.2";
production = uni0647.init.2;
layers = (
{
anchors = (
{
name = hamzaAbove;
position = "{225, 550}";
},
{
name = markAbove;
position = "{225, 550}";
},
{
name = markBelow;
position = "{225, -150}";
}
);
layerId = master01;
paths = (
{
closed = 1;
nodes = (
"327 0 OFFCURVE",
"394 67 OFFCURVE",
"394 150 CURVE SMOOTH",
"394 178 OFFCURVE",
"387 209 OFFCURVE",
"373 232 CURVE",
"118 232 LINE",
"105 209 OFFCURVE",
"97 178 OFFCURVE",
"97 150 CURVE SMOOTH",
"97 67 OFFCURVE",
"163 0 OFFCURVE",
"245 0 CURVE SMOOTH"
);
},
{
closed = 1;
nodes = (
"245 0 LINE",
"180 100 LINE",
"-20 100 LINE",
"-20 0 LINE"
);
},
{
closed = 1;
nodes = (
"131 84 LINE",
"131 304 LINE",
"97 304 LINE",
"97 84 LINE"
);
},
{
closed = 1;
nodes = (
"216 99 OFFCURVE",
"194 121 OFFCURVE",
"194 149 CURVE SMOOTH",
"194 177 OFFCURVE",
"216 199 OFFCURVE",
"244 199 CURVE SMOOTH",
"272 199 OFFCURVE",
"294 177 OFFCURVE",
"294 149 CURVE SMOOTH",
"294 121 OFFCURVE",
"272 99 OFFCURVE",
"244 99 CURVE SMOOTH"
);
},
{
closed = 1;
nodes = (
"354 0 LINE",
"354 0 OFFCURVE",
"394 -2 OFFCURVE",
"394 23 CURVE SMOOTH",
"394 304 LINE",
"294 282 LINE",
"294 100 LINE",
"174 100 LINE",
"174 0 LINE"
);
},
{
closed = 1;
nodes = (
"216 254 OFFCURVE",
"194 276 OFFCURVE",
"194 304 CURVE SMOOTH",
"194 332 OFFCURVE",
"216 354 OFFCURVE",
"244 354 CURVE SMOOTH",
"272 354 OFFCURVE",
"294 332 OFFCURVE",
"294 304 CURVE SMOOTH",
"294 276 OFFCURVE",
"272 254 OFFCURVE",
"244 254 CURVE SMOOTH"
);
},
{
closed = 1;
nodes = (
"372 227 LINE",
"386 250 OFFCURVE",
"394 276 OFFCURVE",
"394 304 CURVE SMOOTH",
"394 387 OFFCURVE",
"327 454 OFFCURVE",
"245 454 CURVE SMOOTH",
"163 454 OFFCURVE",
"97 387 OFFCURVE",
"97 304 CURVE SMOOTH",
"97 276 OFFCURVE",
"105 250 OFFCURVE",
"118 227 CURVE"
);
},
{
closed = 1;
nodes = (
"394 500 LINE",
"367 448 OFFCURVE",
"280 454 OFFCURVE",
"245 454 CURVE",
"394 304 LINE"
);
}
);
width = 419;
},
{
anchors = (
{
name = hamzaAbove;
position = "{225, 550}";
},
{
name = markAbove;
position = "{225, 550}";
},
{
name = markBelow;
position = "{225, -150}";
}
);
layerId = "A6CBEFC3-C9E0-479E-A224-60A030287C4A";
paths = (
{
closed = 1;
nodes = (
"318 0 OFFCURVE",
"394 76 OFFCURVE",
"394 170 CURVE SMOOTH",
"394 201 OFFCURVE",
"386 229 OFFCURVE",
"372 254 CURVE",
"77 254 LINE",
"62 229 OFFCURVE",
"54 200 OFFCURVE",
"54 170 CURVE SMOOTH",
"54 77 OFFCURVE",
"132 0 OFFCURVE",
"225 0 CURVE SMOOTH"
);
},
{
closed = 1;
nodes = (
"245 0 LINE",
"180 140 LINE",
"-20 140 LINE",
"-20 0 LINE"
);
},
{
closed = 1;
nodes = (
"88 84 LINE",
"88 324 LINE",
"54 324 LINE",
"54 84 LINE"
);
},
{
closed = 1;
nodes = (
"208 140 OFFCURVE",
"194 153 OFFCURVE",
"194 170 CURVE SMOOTH",
"194 187 OFFCURVE",
"208 200 OFFCURVE",
"225 200 CURVE SMOOTH",
"242 200 OFFCURVE",
"254 187 OFFCURVE",
"254 170 CURVE SMOOTH",
"254 153 OFFCURVE",
"242 140 OFFCURVE",
"225 140 CURVE SMOOTH"
);
},
{
closed = 1;
nodes = (
"354 0 LINE",
"354 0 OFFCURVE",
"394 -2 OFFCURVE",
"394 23 CURVE SMOOTH",
"394 324 LINE",
"254 293 LINE",
"254 140 LINE",
"174 140 LINE",
"174 0 LINE"
);
},
{
closed = 1;
nodes = (
"208 294 OFFCURVE",
"194 307 OFFCURVE",
"194 324 CURVE SMOOTH",
"194 341 OFFCURVE",
"208 354 OFFCURVE",
"225 354 CURVE SMOOTH",
"242 354 OFFCURVE",
"254 341 OFFCURVE",
"254 324 CURVE SMOOTH",
"254 307 OFFCURVE",
"242 294 OFFCURVE",
"225 294 CURVE SMOOTH"
);
},
{
closed = 1;
nodes = (
"372 240 LINE",
"386 265 OFFCURVE",
"394 293 OFFCURVE",
"394 324 CURVE SMOOTH",
"394 418 OFFCURVE",
"318 494 OFFCURVE",
"225 494 CURVE SMOOTH",
"132 494 OFFCURVE",
"54 417 OFFCURVE",
"54 324 CURVE SMOOTH",
"54 294 OFFCURVE",
"62 265 OFFCURVE",
"77 240 CURVE"
);
},
{
closed = 1;
nodes = (
"394 550 LINE",
"367 498 OFFCURVE",
"260 494 OFFCURVE",
"225 494 CURVE",
"394 324 LINE"
);
}
);
width = 419;
},
{
anchors = (
{
name = dotAbove;
position = "{230, 654}";
},
{
name = hamzaAbove;
position = "{225, 550}";
},
{
name = markAbove;
position = "{225, 550}";
},
{
name = markBelow;
position = "{225, -150}";
}
);
associatedMasterId = "A6CBEFC3-C9E0-479E-A224-60A030287C4A";
layerId = "BA475278-154F-4F13-BC40-D1B99D1EC505";
name = "Nov 6 20, 00:34";
paths = (
{
closed = 1;
nodes = (
"245 0 LINE",
"180 100 LINE",
"-20 100 LINE",
"-20 0 LINE"
);
},
{
closed = 1;
nodes = (
"88 84 LINE",
"88 324 LINE",
"54 324 LINE",
"54 84 LINE"
);
},
{
closed = 1;
nodes = (
"354 0 LINE",
"354 0 OFFCURVE",
"394 -2 OFFCURVE",
"394 23 CURVE SMOOTH",
"394 324 LINE",
"294 302 LINE",
"294 100 LINE",
"174 100 LINE",
"174 0 LINE"
);
},
{
closed = 1;
nodes = (
"394 500 LINE",
"367 448 OFFCURVE",
"280 454 OFFCURVE",
"245 454 CURVE",
"394 304 LINE"
);
},
{
closed = 1;
nodes = (
"394 550 LINE",
"367 498 OFFCURVE",
"267 494 OFFCURVE",
"232 494 CURVE",
"394 324 LINE"
);
},
{
closed = 1;
nodes = (
"318 154 OFFCURVE",
"394 230 OFFCURVE",
"394 324 CURVE SMOOTH",
"394 418 OFFCURVE",
"318 494 OFFCURVE",
"225 494 CURVE SMOOTH",
"132 494 OFFCURVE",
"54 417 OFFCURVE",
"54 324 CURVE SMOOTH",
"54 231 OFFCURVE",
"132 154 OFFCURVE",
"225 154 CURVE SMOOTH"
);
},
{
closed = 1;
nodes = (
"208 294 OFFCURVE",
"194 307 OFFCURVE",
"194 324 CURVE SMOOTH",
"194 341 OFFCURVE",
"208 354 OFFCURVE",
"225 354 CURVE SMOOTH",
"242 354 OFFCURVE",
"254 341 OFFCURVE",
"254 324 CURVE SMOOTH",
"254 307 OFFCURVE",
"242 294 OFFCURVE",
"225 294 CURVE SMOOTH"
);
},
{
closed = 1;
nodes = (
"318 0 OFFCURVE",
"394 76 OFFCURVE",
"394 170 CURVE SMOOTH",
"394 264 OFFCURVE",
"318 340 OFFCURVE",
"225 340 CURVE SMOOTH",
"132 340 OFFCURVE",
"54 263 OFFCURVE",
"54 170 CURVE SMOOTH",
"54 77 OFFCURVE",
"132 0 OFFCURVE",
"225 0 CURVE SMOOTH"
);
},
{
closed = 1;
nodes = (
"208 140 OFFCURVE",
"194 153 OFFCURVE",
"194 170 CURVE SMOOTH",
"194 187 OFFCURVE",
"208 200 OFFCURVE",
"225 200 CURVE SMOOTH",
"242 200 OFFCURVE",
"254 187 OFFCURVE",
"254 170 CURVE SMOOTH",
"254 153 OFFCURVE",
"242 140 OFFCURVE",
"225 140 CURVE SMOOTH"
);
}
);
width = 419;
}
);
},
{
glyphname = "heh-ar.init.3";
production = uni0647.init.3;
layers = (
{
components = (
{
name = "heh-ar.init.2";
}
);
layerId = master01;
paths = (
{
closed = 1;
nodes = (
"394 554 LINE",
"295 532 LINE",
"295 426 LINE",
"394 394 LINE"
);
}
);
width = 419;
},
{
components = (
{
name = "heh-ar.init.2";
}
);
layerId = "A6CBEFC3-C9E0-479E-A224-60A030287C4A";
paths = (
{
closed = 1;
nodes = (
"394 584 LINE",
"255 553 LINE",
"255 417 LINE",
"394 394 LINE"
);
}
);
width = 419;
}
);
},
{
glyphname = "waw-ar";
layers = (
{
anchors = (
{
name = dotAbove;
position = "{174, 550}";
},
{
name = hamzaAbove;
position = "{174, 400}";
},
{
name = markAbove;
position = "{174, 550}";
},
{
name = markBelow;
position = "{174, -270}";
}
);
components = (
{
name = "heh-ar.1";
}
);
layerId = master01;
paths = (
{
closed = 1;
nodes = (
"105 -226 OFFCURVE",
"324 -219 OFFCURVE",
"324 -42 CURVE SMOOTH",
"324 150 LINE",
"224 128 LINE",
"224 -52 LINE SMOOTH",
"224 -109 OFFCURVE",
"192 -173 OFFCURVE",
"39 -132 CURVE"
);
}
);
width = 349;
},
{
anchors = (
{
name = dotAbove;
position = "{174, 550}";
},
{
name = hamzaAbove;
position = "{195, 400}";
},
{
name = markAbove;
position = "{195, 550}";
},
{
name = markBelow;
position = "{195, -270}";
}
);
components = (
{
name = "heh-ar.1";
}
);
layerId = "A6CBEFC3-C9E0-479E-A224-60A030287C4A";
paths = (
{
closed = 1;
nodes = (
"126 -226 OFFCURVE",
"365 -220 OFFCURVE",
"365 -22 CURVE SMOOTH",
"365 170 LINE",
"225 128 LINE",
"225 -52 LINE SMOOTH",
"225 -75 OFFCURVE",
"213 -173 OFFCURVE",
"60 -132 CURVE"
);
}
);
width = 390;
}
);
unicode = 0648;
},
{
glyphname = "waw-ar.fina";
production = uni0648.fina;
layers = (
{
components = (
{
name = "waw-ar";
}
);
layerId = master01;
paths = (
{
closed = 1;
nodes = (
"420 0 LINE",
"420 100 LINE",
"223 100 LINE",
"173 0 LINE"
);
}
);
width = 400;
},
{
components = (
{
name = "waw-ar";
}
);
layerId = "A6CBEFC3-C9E0-479E-A224-60A030287C4A";
paths = (
{
closed = 1;
nodes = (
"420 0 LINE",
"420 140 LINE",
"223 140 LINE",
"193 0 LINE"
);
}
);
width = 400;
}
);
},
{
glyphname = "waw-ar.fina.1";
production = uni0648.fina.1;
layers = (
{
anchors = (
{
name = dotAbove;
position = "{174, 550}";
},
{
name = hamzaAbove;
position = "{174, 400}";
},
{
name = markAbove;
position = "{174, 550}";
},
{
name = markBelow;
position = "{174, -270}";
}
);
components = (
{
name = _meem.circle.2;
}
);
layerId = master01;
paths = (
{
closed = 1;
nodes = (
"218 -174 OFFCURVE",
"288 -130 OFFCURVE",
"316 6 CURVE SMOOTH",
"329 71 OFFCURVE",
"328 141 OFFCURVE",
"318 190 CURVE",
"222 128 LINE",
"214 -18 OFFCURVE",
"205 -154 OFFCURVE",
"25 -125 CURVE",
"59 -171 OFFCURVE",
"110 -181 OFFCURVE",
"154 -178 CURVE SMOOTH"
);
},
{
closed = 1;
nodes = (
"420 0 LINE",
"420 100 LINE",
"224 100 LINE",
"174 0 LINE"
);
}
);
width = 400;
},
{
anchors = (
{
name = dotAbove;
position = "{196, 550}";
},
{
name = hamzaAbove;
position = "{196, 400}";
},
{
name = markAbove;
position = "{196, 550}";
},
{
name = markBelow;
position = "{196, -270}";
}
);
components = (
{
name = _meem.circle.2;
transform = "{1, 0, 0, 1, 22, 0}";
}
);
layerId = "A6CBEFC3-C9E0-479E-A224-60A030287C4A";
paths = (
{
closed = 1;
nodes = (
"253 -169 OFFCURVE",
"333 -130 OFFCURVE",
"361 6 CURVE SMOOTH",
"374 71 OFFCURVE",
"371 151 OFFCURVE",
"361 200 CURVE",
"227 128 LINE",
"219 -18 OFFCURVE",
"210 -150 OFFCURVE",
"30 -121 CURVE",
"69 -174 OFFCURVE",
"138 -185 OFFCURVE",
"189 -178 CURVE SMOOTH"
);
},
{
closed = 1;
nodes = (
"442 0 LINE",
"442 100 LINE",
"246 100 LINE",
"196 0 LINE"
);
}
);
width = 422;
}
);
},
{
glyphname = "alefMaksura-ar";
layers = (
{
anchors = (
{
name = dotBelow;
position = "{240, -300}";
},
{
name = hamzaAbove;
position = "{100, 0}";
},
{
name = markAbove;
position = "{290, 700}";
},
{
name = markBelow;
position = "{240, -270}";
}
);
components = (
{
name = _tail;
transform = "{1, 0, 0, 1, 0, -200}";
}
);
layerId = master01;
paths = (
{
closed = 1;
nodes = (
"507 -200 LINE",
"249 252 LINE SMOOTH",
"212 317 OFFCURVE",
"226 383 OFFCURVE",
"275 410 CURVE",
"512 0 LINE",
"627 0 LINE",
"288 591 LINE",
"288 539 OFFCURVE",
"264 523 OFFCURVE",
"223 493 CURVE SMOOTH",
"142 433 OFFCURVE",
"80 345 OFFCURVE",
"162 203 CURVE SMOOTH",
"393 -200 LINE"
);
},
{
closed = 1;
nodes = (
"700 0 LINE",
"616 140 LINE",
"603 113 OFFCURVE",
"572 100 OFFCURVE",
"548 100 CURVE SMOOTH",
"495 100 LINE",
"525 0 LINE"
);
}
);
width = 725;
},
{
anchors = (
{
name = dotBelow;
position = "{240, -300}";
},
{
name = hamzaAbove;
position = "{100, 0}";
},
{
name = markAbove;
position = "{290, 700}";
},
{
name = markBelow;
position = "{240, -270}";
}
);
components = (
{
name = _tail;
transform = "{1, 0, 0, 1, 0, -200}";
}
);
layerId = "A6CBEFC3-C9E0-479E-A224-60A030287C4A";
paths = (
{
closed = 1;
nodes = (
"548 -200 LINE",
"279 272 LINE SMOOTH",
"265 296 OFFCURVE",
"266 325 OFFCURVE",
"274 340 CURVE",
"471 0 LINE",
"627 0 LINE",
"288 591 LINE",
"288 539 OFFCURVE",
"264 523 OFFCURVE",
"223 493 CURVE SMOOTH",
"142 433 OFFCURVE",
"81 345 OFFCURVE",
"162 203 CURVE SMOOTH",
"393 -200 LINE"
);
},
{
closed = 1;
nodes = (
"700 0 LINE",
"592 180 LINE",
"579 153 OFFCURVE",
"548 140 OFFCURVE",
"524 140 CURVE SMOOTH",
"457 140 LINE",
"527 0 LINE"
);
}
);
width = 725;
}
);
unicode = 0649;
},
{
glyphname = "alefMaksura-ar.1";
layers = (
{
anchors = (
{
name = dotBelow;
position = "{240, -150}";
},
{
name = hamzaAbove;
position = "{40, 200}";
},
{
name = markAbove;
position = "{322, 700}";
},
{
name = markBelow;
position = "{240, -150}";
}
);
layerId = master01;
paths = (
{
closed = 1;
nodes = (
"433 0 LINE",
"289 252 LINE SMOOTH",
"252 317 OFFCURVE",
"266 383 OFFCURVE",
"315 410 CURVE",
"552 0 LINE",
"667 0 LINE",
"328 591 LINE",
"328 539 OFFCURVE",
"304 523 OFFCURVE",
"263 493 CURVE SMOOTH",
"182 433 OFFCURVE",
"120 345 OFFCURVE",
"202 203 CURVE SMOOTH",
"318 0 LINE"
);
},
{
closed = 1;
nodes = (
"380 0 LINE",
"322 100 LINE",
"177 100 LINE SMOOTH",
"153 100 OFFCURVE",
"122 113 OFFCURVE",
"109 140 CURVE",
"25 0 LINE"
);
},
{
closed = 1;
nodes = (
"740 0 LINE",
"656 140 LINE",
"643 113 OFFCURVE",
"612 100 OFFCURVE",
"588 100 CURVE SMOOTH",
"535 100 LINE",
"565 0 LINE"
);
}
);
width = 765;
},
{
anchors = (
{
name = dotBelow;
position = "{240, -150}";
},
{
name = hamzaAbove;
position = "{40, 200}";
},
{
name = markAbove;
position = "{322, 700}";
},
{
name = markBelow;
position = "{240, -150}";
}
);
layerId = "A6CBEFC3-C9E0-479E-A224-60A030287C4A";
paths = (
{
closed = 1;
nodes = (
"474 0 LINE",
"319 272 LINE SMOOTH",
"305 296 OFFCURVE",
"306 325 OFFCURVE",
"314 340 CURVE",
"511 0 LINE",
"667 0 LINE",
"328 591 LINE",
"328 539 OFFCURVE",
"304 523 OFFCURVE",
"263 493 CURVE SMOOTH",
"182 433 OFFCURVE",
"121 345 OFFCURVE",
"202 203 CURVE SMOOTH",
"318 0 LINE"
);
},
{
closed = 1;
nodes = (
"378 0 LINE",
"318 140 LINE",
"201 140 LINE SMOOTH",
"177 140 OFFCURVE",
"146 153 OFFCURVE",
"133 180 CURVE",
"25 0 LINE"
);
},
{
closed = 1;
nodes = (
"740 0 LINE",
"632 180 LINE",
"619 153 OFFCURVE",
"588 140 OFFCURVE",
"564 140 CURVE SMOOTH",
"497 140 LINE",
"567 0 LINE"
);
}
);
width = 765;
}
);
},
{
glyphname = "alefMaksura-ar.fina";
production = uni0649.fina;
layers = (
{
anchors = (
{
name = dotBelow;
position = "{240, -300}";
},
{
name = hamzaAbove;
position = "{90, 0}";
},
{
name = markAbove;
position = "{290, 700}";
},
{
name = markBelow;
position = "{240, -270}";
}
);
components = (
{
name = _tail;
transform = "{1, 0, 0, 1, 0, -200}";
}
);
layerId = master01;
paths = (
{
closed = 1;
nodes = (
"507 -200 LINE",
"249 252 LINE SMOOTH",
"212 317 OFFCURVE",
"226 383 OFFCURVE",
"275 410 CURVE",
"512 0 LINE",
"627 0 LINE",
"288 591 LINE",
"288 539 OFFCURVE",
"264 523 OFFCURVE",
"223 493 CURVE SMOOTH",
"142 433 OFFCURVE",
"80 345 OFFCURVE",
"162 203 CURVE SMOOTH",
"393 -200 LINE"
);
},
{
closed = 1;
nodes = (
"700 0 LINE",
"700 100 LINE",
"544 100 LINE",
"544 0 LINE"
);
}
);
width = 680;
},
{
anchors = (
{
name = dotBelow;
position = "{240, -300}";
},
{
name = hamzaAbove;
position = "{90, 0}";
},
{
name = markAbove;
position = "{290, 700}";
},
{
name = markBelow;
position = "{240, -270}";
}
);
components = (
{
name = _tail;
transform = "{1, 0, 0, 1, 0, -200}";
}
);
layerId = "A6CBEFC3-C9E0-479E-A224-60A030287C4A";
paths = (
{
closed = 1;
nodes = (
"548 -200 LINE",
"279 272 LINE SMOOTH",
"265 296 OFFCURVE",
"266 325 OFFCURVE",
"274 340 CURVE",
"471 0 LINE",
"627 0 LINE",
"288 591 LINE",
"288 539 OFFCURVE",
"264 523 OFFCURVE",
"223 493 CURVE SMOOTH",
"142 433 OFFCURVE",
"81 345 OFFCURVE",
"162 203 CURVE SMOOTH",
"393 -200 LINE"
);
},
{
closed = 1;
nodes = (
"700 0 LINE",
"700 140 LINE",
"534 140 LINE",
"534 0 LINE"
);
}
);
width = 680;
}
);
},
{
glyphname = "alefMaksura-ar.fina.1";
production = uni0649.fina.1;
layers = (
{
anchors = (
{
name = dotBelow;
position = "{240, -150}";
},
{
name = hamzaAbove;
position = "{40, 200}";
},
{
name = markAbove;
position = "{322, 700}";
},
{
name = markBelow;
position = "{240, -150}";
}
);
layerId = master01;
paths = (
{
closed = 1;
nodes = (
"433 0 LINE",
"289 252 LINE SMOOTH",
"252 317 OFFCURVE",
"266 383 OFFCURVE",
"315 410 CURVE",
"552 0 LINE",
"667 0 LINE",
"328 591 LINE",
"328 539 OFFCURVE",
"304 523 OFFCURVE",
"263 493 CURVE SMOOTH",
"182 433 OFFCURVE",
"120 345 OFFCURVE",
"202 203 CURVE SMOOTH",
"318 0 LINE"
);
},
{
closed = 1;
nodes = (
"380 0 LINE",
"322 100 LINE",
"177 100 LINE SMOOTH",
"153 100 OFFCURVE",
"122 113 OFFCURVE",
"109 140 CURVE",
"25 0 LINE"
);
},
{
closed = 1;
nodes = (
"740 0 LINE",
"740 100 LINE",
"584 100 LINE",
"584 0 LINE"
);
}
);
width = 720;
},
{
anchors = (
{
name = dotBelow;
position = "{240, -150}";
},
{
name = hamzaAbove;
position = "{40, 200}";
},
{
name = markAbove;
position = "{322, 700}";
},
{
name = markBelow;
position = "{240, -150}";
}
);
layerId = "A6CBEFC3-C9E0-479E-A224-60A030287C4A";
paths = (
{
closed = 1;
nodes = (
"474 0 LINE",
"319 272 LINE SMOOTH",
"305 296 OFFCURVE",
"306 325 OFFCURVE",
"314 340 CURVE",
"511 0 LINE",
"667 0 LINE",
"328 591 LINE",
"328 539 OFFCURVE",
"304 523 OFFCURVE",
"263 493 CURVE SMOOTH",
"182 433 OFFCURVE",
"121 345 OFFCURVE",
"202 203 CURVE SMOOTH",
"318 0 LINE"
);
},
{
closed = 1;
nodes = (
"378 0 LINE",
"318 140 LINE",
"201 140 LINE SMOOTH",
"177 140 OFFCURVE",
"146 153 OFFCURVE",
"133 180 CURVE",
"25 0 LINE"
);
},
{
closed = 1;
nodes = (
"740 0 LINE",
"740 140 LINE",
"574 140 LINE",
"574 0 LINE"
);
}
);
width = 720;
}
);
},
{
glyphname = "yehbarree-ar";
layers = (
{
anchors = (
{
name = hamzaAbove;
position = "{184, 630}";
},
{
name = markAbove;
position = "{184, 630}";
},
{
name = markBelow;
position = "{490, -270}";
}
);
layerId = master01;
paths = (
{
closed = 1;
nodes = (
"409 -200 LINE",
"151 252 LINE SMOOTH",
"114 317 OFFCURVE",
"128 383 OFFCURVE",
"177 410 CURVE",
"414 0 LINE",
"529 0 LINE",
"190 591 LINE",
"190 539 OFFCURVE",
"166 523 OFFCURVE",
"125 493 CURVE SMOOTH",
"44 433 OFFCURVE",
"-18 345 OFFCURVE",
"64 203 CURVE SMOOTH",
"295 -200 LINE"
);
},
{
closed = 1;
nodes = (
"1020 -200 LINE",
"960 -100 LINE",
"320 -100 LINE",
"320 -200 LINE"
);
},
{
closed = 1;
nodes = (
"602 0 LINE",
"518 140 LINE",
"505 113 OFFCURVE",
"474 100 OFFCURVE",
"450 100 CURVE SMOOTH",
"397 100 LINE",
"427 0 LINE"
);
}
);
width = 1045;
},
{
anchors = (
{
name = hamzaAbove;
position = "{184, 630}";
},
{
name = markAbove;
position = "{184, 630}";
},
{
name = markBelow;
position = "{490, -270}";
}
);
layerId = "A6CBEFC3-C9E0-479E-A224-60A030287C4A";
paths = (
{
closed = 1;
nodes = (
"449 -200 LINE",
"180 272 LINE SMOOTH",
"166 296 OFFCURVE",
"167 325 OFFCURVE",
"175 340 CURVE",
"372 0 LINE",
"528 0 LINE",
"189 591 LINE",
"189 539 OFFCURVE",
"165 523 OFFCURVE",
"124 493 CURVE SMOOTH",
"43 433 OFFCURVE",
"-18 345 OFFCURVE",
"63 203 CURVE SMOOTH",
"294 -200 LINE"
);
},
{
closed = 1;
nodes = (
"1020 -200 LINE",
"960 -60 LINE",
"320 -60 LINE",
"320 -200 LINE"
);
},
{
closed = 1;
nodes = (
"602 0 LINE",
"494 180 LINE",
"481 153 OFFCURVE",
"450 140 OFFCURVE",
"426 140 CURVE SMOOTH",
"359 140 LINE",
"429 0 LINE"
);
}
);
width = 1045;
}
);
unicode = 06D2;
},
{
glyphname = "yehbarree-ar.fina";
production = uni06D2.fina;
layers = (
{
anchors = (
{
name = hamzaAbove;
position = "{184, 630}";
},
{
name = markAbove;
position = "{184, 630}";
},
{
name = markBelow;
position = "{490, -270}";
}
);
layerId = master01;
paths = (
{
closed = 1;
nodes = (
"409 -200 LINE",
"151 252 LINE SMOOTH",
"114 317 OFFCURVE",
"128 383 OFFCURVE",
"177 410 CURVE",
"414 0 LINE",
"529 0 LINE",
"190 591 LINE",
"190 539 OFFCURVE",
"166 523 OFFCURVE",
"125 493 CURVE SMOOTH",
"44 433 OFFCURVE",
"-18 345 OFFCURVE",
"64 203 CURVE SMOOTH",
"295 -200 LINE"
);
},
{
closed = 1;
nodes = (
"1020 -200 LINE",
"960 -100 LINE",
"320 -100 LINE",
"320 -200 LINE"
);
},
{
closed = 1;
nodes = (
"1065 0 LINE",
"1065 100 LINE",
"444 100 LINE",
"444 0 LINE"
);
}
);
width = 1045;
},
{
anchors = (
{
name = hamzaAbove;
position = "{184, 630}";
},
{
name = markAbove;
position = "{184, 630}";
},
{
name = markBelow;
position = "{490, -270}";
}
);
layerId = "A6CBEFC3-C9E0-479E-A224-60A030287C4A";
paths = (
{
closed = 1;
nodes = (
"449 -200 LINE",
"180 272 LINE SMOOTH",
"166 296 OFFCURVE",
"167 325 OFFCURVE",
"175 340 CURVE",
"372 0 LINE",
"528 0 LINE",
"189 591 LINE",
"189 539 OFFCURVE",
"165 523 OFFCURVE",
"124 493 CURVE SMOOTH",
"43 433 OFFCURVE",
"-18 345 OFFCURVE",
"63 203 CURVE SMOOTH",
"294 -200 LINE"
);
},
{
closed = 1;
nodes = (
"1020 -200 LINE",
"960 -60 LINE",
"320 -60 LINE",
"320 -200 LINE"
);
},
{
closed = 1;
nodes = (
"1065 0 LINE",
"1065 140 LINE",
"434 140 LINE",
"434 0 LINE"
);
}
);
width = 1045;
}
);
},
{
glyphname = "kashida-ar";
layers = (
{
anchors = (
{
name = markAbove;
position = "{150, 550}";
},
{
name = markBelow;
position = "{150, -150}";
}
);
layerId = master01;
paths = (
{
closed = 1;
nodes = (
"320 0 LINE",
"320 100 LINE",
"-20 100 LINE",
"-20 0 LINE"
);
}
);
width = 300;
},
{
anchors = (
{
name = markAbove;
position = "{150, 550}";
},
{
name = markBelow;
position = "{150, -150}";
}
);
layerId = "A6CBEFC3-C9E0-479E-A224-60A030287C4A";
paths = (
{
closed = 1;
nodes = (
"320 0 LINE",
"320 140 LINE",
"-20 140 LINE",
"-20 0 LINE"
);
}
);
width = 300;
}
);
unicode = 0640;
},
{
glyphname = "zero-ar";
layers = (
{
layerId = master01;
paths = (
{
closed = 1;
nodes = (
"289 230 OFFCURVE",
"320 261 OFFCURVE",
"320 300 CURVE SMOOTH",
"320 339 OFFCURVE",
"289 370 OFFCURVE",
"250 370 CURVE SMOOTH",
"211 370 OFFCURVE",
"180 339 OFFCURVE",
"180 300 CURVE SMOOTH",
"180 261 OFFCURVE",
"211 230 OFFCURVE",
"250 230 CURVE SMOOTH"
);
}
);
width = 500;
},
{
layerId = "A6CBEFC3-C9E0-479E-A224-60A030287C4A";
paths = (
{
closed = 1;
nodes = (
"307 196 OFFCURVE",
"354 243 OFFCURVE",
"354 300 CURVE SMOOTH",
"354 357 OFFCURVE",
"307 404 OFFCURVE",
"250 404 CURVE SMOOTH",
"193 404 OFFCURVE",
"146 357 OFFCURVE",
"146 300 CURVE SMOOTH",
"146 243 OFFCURVE",
"193 196 OFFCURVE",
"250 196 CURVE SMOOTH"
);
}
);
width = 500;
}
);
unicode = 0660;
},
{
glyphname = "one-ar";
layers = (
{
layerId = master01;
paths = (
{
closed = 1;
nodes = (
"300 0 LINE",
"300 600 LINE",
"200 578 LINE",
"200 0 LINE"
);
}
);
width = 500;
},
{
layerId = "A6CBEFC3-C9E0-479E-A224-60A030287C4A";
paths = (
{
closed = 1;
nodes = (
"320 0 LINE",
"320 600 LINE",
"180 569 LINE",
"180 0 LINE"
);
}
);
width = 500;
}
);
unicode = 0661;
},
{
glyphname = "two-ar";
layers = (
{
layerId = master01;
paths = (
{
closed = 1;
nodes = (
"210 0 LINE",
"210 410 LINE SMOOTH",
"210 485 OFFCURVE",
"254 500 OFFCURVE",
"310 500 CURVE SMOOTH",
"390 500 LINE",
"390 600 LINE",
"270 600 OFFCURVE",
"110 617 OFFCURVE",
"110 410 CURVE SMOOTH",
"110 0 LINE"
);
}
);
width = 500;
},
{
layerId = "A6CBEFC3-C9E0-479E-A224-60A030287C4A";
paths = (
{
closed = 1;
nodes = (
"230 0 LINE",
"230 390 LINE SMOOTH",
"230 442 OFFCURVE",
"251 460 OFFCURVE",
"310 460 CURVE SMOOTH",
"410 460 LINE",
"410 600 LINE",
"293 597 OFFCURVE",
"90 633 OFFCURVE",
"90 390 CURVE SMOOTH",
"90 0 LINE"
);
}
);
width = 500;
}
);
unicode = 0662;
},
{
glyphname = "three-ar";
layers = (
{
components = (
{
name = "one-ar";
transform = "{1, 0, 0, 1, -180, 0}";
}
);
layerId = master01;
paths = (
{
closed = 1;
nodes = (
"440 300 LINE",
"440 300 OFFCURVE",
"480 298 OFFCURVE",
"480 323 CURVE SMOOTH",
"480 600 LINE",
"380 578 LINE",
"380 400 LINE",
"300 400 LINE",
"300 600 LINE",
"200 577 LINE",
"200 400 LINE",
"50 400 LINE",
"50 300 LINE"
);
}
);
width = 500;
},
{
components = (
{
name = "one-ar";
transform = "{1, 0, 0, 1, -160, 0}";
}
);
layerId = "A6CBEFC3-C9E0-479E-A224-60A030287C4A";
paths = (
{
closed = 1;
nodes = (
"440 280 LINE",
"440 280 OFFCURVE",
"480 278 OFFCURVE",
"480 303 CURVE SMOOTH",
"480 600 LINE",
"340 569 LINE",
"340 420 LINE",
"320 420 LINE",
"320 600 LINE",
"180 568 LINE",
"180 420 LINE",
"50 420 LINE",
"50 280 LINE"
);
}
);
width = 500;
}
);
unicode = 0663;
},
{
glyphname = "four-ar";
layers = (
{
layerId = master01;
paths = (
{
closed = 1;
nodes = (
"440 0 LINE",
"440 100 LINE",
"138 100 LINE",
"152 67 LINE",
"349 275 LINE",
"150 443 LINE",
"148 387 LINE",
"359 542 LINE",
"299 622 LINE",
"125 494 LINE SMOOTH",
"104 478 OFFCURVE",
"81 456 OFFCURVE",
"79 423 CURVE SMOOTH",
"76 380 OFFCURVE",
"103 350 OFFCURVE",
"121 336 CURVE SMOOTH",
"209 267 LINE",
"98 155 LINE SMOOTH",
"68 125 OFFCURVE",
"29 50 OFFCURVE",
"98 8 CURVE SMOOTH",
"111 0 LINE"
);
}
);
width = 500;
},
{
layerId = "A6CBEFC3-C9E0-479E-A224-60A030287C4A";
paths = (
{
closed = 1;
nodes = (
"460 0 LINE",
"460 140 LINE",
"185 140 LINE",
"199 87 LINE",
"378 277 LINE",
"182 442 LINE",
"180 358 LINE",
"387 510 LINE",
"303 622 LINE",
"129 494 LINE",
"96 472 OFFCURVE",
"77 441 OFFCURVE",
"75 408 CURVE SMOOTH",
"72 370 OFFCURVE",
"93 328 OFFCURVE",
"124 305 CURVE SMOOTH",
"179 265 LINE",
"104 189 LINE SMOOTH",
"46 131 OFFCURVE",
"43 50 OFFCURVE",
"107 11 CURVE SMOOTH",
"125 0 LINE"
);
}
);
width = 500;
}
);
unicode = 0664;
},
{
glyphname = "five-ar";
layers = (
{
layerId = master01;
paths = (
{
closed = 1;
nodes = (
"332 50 OFFCURVE",
"398 117 OFFCURVE",
"398 200 CURVE SMOOTH",
"398 400 LINE SMOOTH",
"398 483 OFFCURVE",
"332 550 OFFCURVE",
"250 550 CURVE SMOOTH",
"168 550 OFFCURVE",
"102 483 OFFCURVE",
"102 400 CURVE SMOOTH",
"102 200 LINE SMOOTH",
"102 117 OFFCURVE",
"168 50 OFFCURVE",
"250 50 CURVE SMOOTH"
);
},
{
closed = 1;
nodes = (
"250 50 LINE",
"102 281 LINE",
"102 73 LINE SMOOTH",
"102 48 OFFCURVE",
"142 50 OFFCURVE",
"142 50 CURVE"
);
},
{
closed = 1;
nodes = (
"200 400 LINE SMOOTH",
"200 428 OFFCURVE",
"222 450 OFFCURVE",
"250 450 CURVE SMOOTH",
"300 450 LINE",
"300 200 LINE SMOOTH",
"300 172 OFFCURVE",
"278 150 OFFCURVE",
"250 150 CURVE SMOOTH",
"200 150 LINE"
);
},
{
closed = 1;
nodes = (
"398 600 LINE",
"371 548 OFFCURVE",
"285 550 OFFCURVE",
"250 550 CURVE",
"398 400 LINE"
);
}
);
width = 500;
},
{
layerId = "A6CBEFC3-C9E0-479E-A224-60A030287C4A";
paths = (
{
closed = 1;
nodes = (
"344 50 OFFCURVE",
"420 126 OFFCURVE",
"420 220 CURVE SMOOTH",
"420 380 LINE SMOOTH",
"420 474 OFFCURVE",
"344 550 OFFCURVE",
"251 550 CURVE SMOOTH",
"158 550 OFFCURVE",
"80 473 OFFCURVE",
"80 380 CURVE SMOOTH",
"80 220 LINE SMOOTH",
"80 127 OFFCURVE",
"158 50 OFFCURVE",
"251 50 CURVE SMOOTH"
);
},
{
closed = 1;
nodes = (
"251 50 LINE",
"80 281 LINE",
"80 73 LINE SMOOTH",
"80 48 OFFCURVE",
"120 50 OFFCURVE",
"120 50 CURVE"
);
},
{
closed = 1;
nodes = (
"220 380 LINE SMOOTH",
"220 397 OFFCURVE",
"234 410 OFFCURVE",
"251 410 CURVE",
"280 410 LINE",
"280 220 LINE SMOOTH",
"280 203 OFFCURVE",
"266 190 OFFCURVE",
"249 190 CURVE",
"220 190 LINE"
);
},
{
closed = 1;
nodes = (
"420 606 LINE",
"393 554 OFFCURVE",
"286 550 OFFCURVE",
"251 550 CURVE",
"420 380 LINE"
);
}
);
width = 500;
}
);
unicode = 0665;
},
{
glyphname = "six-ar";
layers = (
{
layerId = master01;
paths = (
{
closed = 1;
nodes = (
"420 0 LINE",
"420 560 LINE",
"420 560 OFFCURVE",
"422 600 OFFCURVE",
"397 600 CURVE SMOOTH",
"80 600 LINE",
"102 500 LINE",
"321 500 LINE",
"321 0 LINE"
);
}
);
width = 500;
},
{
layerId = "A6CBEFC3-C9E0-479E-A224-60A030287C4A";
paths = (
{
closed = 1;
nodes = (
"440 -20 LINE",
"440 540 LINE SMOOTH",
"440 573 OFFCURVE",
"426 600 OFFCURVE",
"397 600 CURVE SMOOTH",
"55 600 LINE",
"86 460 LINE",
"301 460 LINE",
"301 -20 LINE"
);
}
);
width = 500;
}
);
unicode = 0666;
},
{
glyphname = "seven-ar";
layers = (
{
layerId = master01;
paths = (
{
closed = 1;
nodes = (
"447 565 LINE",
"357 612 LINE",
"199 26 LINE",
"295 0 LINE"
);
},
{
closed = 1;
nodes = (
"295 0 LINE",
"295 19 LINE",
"205 19 LINE",
"205 0 LINE"
);
},
{
closed = 1;
nodes = (
"301 26 LINE",
"143 612 LINE",
"53 565 LINE",
"205 0 LINE"
);
}
);
width = 500;
},
{
layerId = "A6CBEFC3-C9E0-479E-A224-60A030287C4A";
paths = (
{
closed = 1;
nodes = (
"460 546 LINE",
"335 611 LINE",
"179 37 LINE",
"314 0 LINE"
);
},
{
closed = 1;
nodes = (
"314 0 LINE",
"314 19 LINE",
"187 19 LINE",
"187 0 LINE"
);
},
{
closed = 1;
nodes = (
"322 37 LINE",
"167 611 LINE",
"40 545 LINE",
"187 0 LINE"
);
}
);
width = 500;
}
);
unicode = 0667;
},
{
glyphname = "eight-ar";
layers = (
{
layerId = master01;
paths = (
{
closed = 1;
nodes = (
"456 0 LINE",
"294 600 LINE",
"198 574 LINE",
"352 0 LINE"
);
},
{
closed = 1;
nodes = (
"148 0 LINE",
"302 574 LINE",
"204 600 LINE",
"44 0 LINE"
);
},
{
closed = 1;
nodes = (
"294 581 LINE",
"294 600 LINE",
"204 600 LINE",
"204 581 LINE"
);
}
);
width = 500;
},
{
layerId = "A6CBEFC3-C9E0-479E-A224-60A030287C4A";
paths = (
{
closed = 1;
nodes = (
"475 0 LINE",
"313 600 LINE",
"178 563 LINE",
"330 0 LINE"
);
},
{
closed = 1;
nodes = (
"168 0 LINE",
"321 563 LINE",
"186 600 LINE",
"25 0 LINE"
);
},
{
closed = 1;
nodes = (
"313 581 LINE",
"313 600 LINE",
"186 600 LINE",
"186 581 LINE"
);
}
);
width = 500;
}
);
unicode = 0668;
},
{
glyphname = "nine-ar";
layers = (
{
layerId = master01;
paths = (
{
closed = 1;
nodes = (
"440 0 LINE",
"440 435 LINE SMOOTH",
"440 541 OFFCURVE",
"362 615 OFFCURVE",
"255 615 CURVE SMOOTH",
"144 615 OFFCURVE",
"60 534 OFFCURVE",
"60 428 CURVE SMOOTH",
"60 312 OFFCURVE",
"151 242 OFFCURVE",
"276 242 CURVE SMOOTH",
"302 242 OFFCURVE",
"325 244 OFFCURVE",
"340 246 CURVE",
"340 0 LINE"
);
},
{
closed = 1;
nodes = (
"332 346 OFFCURVE",
"307 342 OFFCURVE",
"279 342 CURVE SMOOTH",
"213 342 OFFCURVE",
"159 367 OFFCURVE",
"159 426 CURVE SMOOTH",
"159 474 OFFCURVE",
"195 513 OFFCURVE",
"253 513 CURVE SMOOTH",
"302 513 OFFCURVE",
"340 490 OFFCURVE",
"340 435 CURVE SMOOTH",
"340 346 LINE"
);
}
);
width = 500;
},
{
layerId = "A6CBEFC3-C9E0-479E-A224-60A030287C4A";
paths = (
{
closed = 1;
nodes = (
"460 0 LINE",
"460 415 LINE SMOOTH",
"460 531 OFFCURVE",
"374 615 OFFCURVE",
"255 615 CURVE SMOOTH",
"133 615 OFFCURVE",
"40 525 OFFCURVE",
"40 408 CURVE SMOOTH",
"40 285 OFFCURVE",
"135 202 OFFCURVE",
"276 202 CURVE SMOOTH",
"290 202 OFFCURVE",
"306 203 OFFCURVE",
"320 204 CURVE",
"320 0 LINE"
);
},
{
closed = 1;
nodes = (
"309 343 OFFCURVE",
"294 342 OFFCURVE",
"279 342 CURVE SMOOTH",
"214 342 OFFCURVE",
"179 365 OFFCURVE",
"179 406 CURVE SMOOTH",
"179 446 OFFCURVE",
"209 473 OFFCURVE",
"253 473 CURVE SMOOTH",
"297 473 OFFCURVE",
"320 443 OFFCURVE",
"320 405 CURVE SMOOTH",
"320 344 LINE"
);
}
);
width = 500;
}
);
unicode = 0669;
},
{
glyphname = "two-persian";
layers = (
{
components = (
{
name = "one-ar";
transform = "{1, 0, 0, 1, -130, 0}";
}
);
layerId = master01;
paths = (
{
closed = 1;
nodes = (
"390 350 LINE",
"390 350 OFFCURVE",
"430 348 OFFCURVE",
"430 373 CURVE SMOOTH",
"430 600 LINE",
"330 578 LINE",
"330 450 LINE",
"100 450 LINE",
"100 350 LINE"
);
}
);
width = 500;
},
{
components = (
{
name = "one-ar";
transform = "{1, 0, 0, 1, -130, 0}";
}
);
layerId = "A6CBEFC3-C9E0-479E-A224-60A030287C4A";
paths = (
{
closed = 1;
nodes = (
"410 330 LINE",
"410 330 OFFCURVE",
"450 328 OFFCURVE",
"450 353 CURVE SMOOTH",
"450 600 LINE",
"310 569 LINE",
"310 470 LINE",
"100 470 LINE",
"100 330 LINE"
);
}
);
width = 500;
}
);
unicode = 06F2;
},
{
glyphname = "four-persian";
layers = (
{
components = (
{
name = "one-ar";
transform = "{1, 0, 0, 1, -180, 0}";
}
);
layerId = master01;
paths = (
{
closed = 1;
nodes = (
"412 346 LINE",
"411 400 LINE",
"378 400 LINE SMOOTH",
"345 400 OFFCURVE",
"295 412 OFFCURVE",
"295 466 CURVE SMOOTH",
"295 514 OFFCURVE",
"332 537 OFFCURVE",
"364 537 CURVE SMOOTH",
"401 537 OFFCURVE",
"429 520 OFFCURVE",
"439 514 CURVE",
"430 546 OFFCURVE",
"401 594 OFFCURVE",
"319 594 CURVE SMOOTH",
"242 594 OFFCURVE",
"188 519 OFFCURVE",
"188 416 CURVE SMOOTH",
"188 346 LINE"
);
},
{
closed = 1;
nodes = (
"458 300 LINE",
"480 400 LINE",
"50 400 LINE",
"50 300 LINE"
);
}
);
width = 500;
},
{
components = (
{
name = "one-ar";
transform = "{1, 0, 0, 1, -160, 0}";
}
);
layerId = "A6CBEFC3-C9E0-479E-A224-60A030287C4A";
paths = (
{
closed = 1;
nodes = (
"452 306 LINE",
"451 400 LINE",
"398 400 LINE SMOOTH",
"350 400 OFFCURVE",
"329 426 OFFCURVE",
"329 454 CURVE SMOOTH",
"329 477 OFFCURVE",
"349 503 OFFCURVE",
"384 503 CURVE SMOOTH",
"409 503 OFFCURVE",
"439 492 OFFCURVE",
"467 472 CURVE",
"453 544 OFFCURVE",
"413 594 OFFCURVE",
"339 594 CURVE SMOOTH",
"251 594 OFFCURVE",
"188 511 OFFCURVE",
"188 396 CURVE SMOOTH",
"188 306 LINE"
);
},
{
closed = 1;
nodes = (
"449 260 LINE",
"480 400 LINE",
"50 400 LINE",
"50 260 LINE"
);
}
);
width = 500;
}
);
unicode = 06F4;
},
{
glyphname = "four-persian.urdu";
layers = (
{
components = (
{
name = "one-ar";
transform = "{1, 0, 0, 1, -130, 0}";
}
);
layerId = master01;
paths = (
{
closed = 1;
nodes = (
"330 576 LINE SMOOTH",
"330 601 OFFCURVE",
"290 600 OFFCURVE",
"290 600 CURVE",
"170 600 LINE",
"140 499 LINE",
"230 499 LINE",
"230 371 LINE",
"330 349 LINE"
);
},
{
closed = 1;
nodes = (
"462 426 LINE",
"467 527 LINE",
"313 446 LINE",
"330 349 LINE"
);
}
);
userData = {
com.schriftgestaltung.Glyphs.lastChange = "2017-10-25 19:19:38 +0000";
};
width = 500;
},
{
components = (
{
name = "one-ar";
transform = "{1, 0, 0, 1, -130, 0}";
}
);
layerId = "A6CBEFC3-C9E0-479E-A224-60A030287C4A";
paths = (
{
closed = 1;
nodes = (
"350 576 LINE SMOOTH",
"350 601 OFFCURVE",
"310 600 OFFCURVE",
"310 600 CURVE",
"190 600 LINE",
"160 459 LINE",
"210 459 LINE",
"210 380 LINE",
"350 349 LINE"
);
},
{
closed = 1;
nodes = (
"461 414 LINE",
"467 556 LINE",
"333 486 LINE",
"350 349 LINE"
);
}
);
userData = {
com.schriftgestaltung.Glyphs.lastChange = "2017-10-25 19:19:38 +0000";
};
width = 500;
}
);
},
{
glyphname = "six-persian";
layers = (
{
layerId = master01;
paths = (
{
closed = 1;
nodes = (
"96 108 OFFCURVE",
"223 295 OFFCURVE",
"402 340 CURVE",
"440 440 LINE",
"308 400 LINE SMOOTH",
"269 388 OFFCURVE",
"219 433 OFFCURVE",
"219 484 CURVE SMOOTH",
"219 517 OFFCURVE",
"247 549 OFFCURVE",
"280 554 CURVE SMOOTH",
"308 559 OFFCURVE",
"344 549 OFFCURVE",
"373 524 CURVE",
"351 573 OFFCURVE",
"308 600 OFFCURVE",
"259 600 CURVE SMOOTH",
"144 600 OFFCURVE",
"68 428 OFFCURVE",
"192 350 CURVE",
"64 216 OFFCURVE",
"60 26 OFFCURVE",
"60 0 CURVE"
);
}
);
width = 500;
},
{
layerId = "A6CBEFC3-C9E0-479E-A224-60A030287C4A";
paths = (
{
closed = 1;
nodes = (
"114 179 OFFCURVE",
"229 276 OFFCURVE",
"395 318 CURVE",
"450 464 LINE",
"302 419 LINE SMOOTH",
"276 411 OFFCURVE",
"239 448 OFFCURVE",
"239 484 CURVE SMOOTH",
"239 507 OFFCURVE",
"260 531 OFFCURVE",
"283 534 CURVE SMOOTH",
"309 539 OFFCURVE",
"348 534 OFFCURVE",
"383 507 CURVE",
"373 567 OFFCURVE",
"331 620 OFFCURVE",
"259 620 CURVE SMOOTH",
"117 620 OFFCURVE",
"59 435 OFFCURVE",
"162 347 CURVE",
"49 214 OFFCURVE",
"58 32 OFFCURVE",
"60 0 CURVE"
);
}
);
width = 500;
}
);
unicode = 06F6;
},
{
glyphname = "seven-persian.urdu";
layers = (
{
layerId = master01;
paths = (
{
closed = 1;
nodes = (
"318 565 LINE",
"228 612 LINE",
"70 26 LINE",
"166 0 LINE"
);
},
{
closed = 1;
nodes = (
"407 42 LINE",
"412 143 LINE",
"149 97 LINE",
"166 0 LINE"
);
}
);
userData = {
com.schriftgestaltung.Glyphs.lastChange = "2017-10-25 19:17:40 +0000";
};
width = 500;
},
{
layerId = "A6CBEFC3-C9E0-479E-A224-60A030287C4A";
paths = (
{
closed = 1;
nodes = (
"333 546 LINE",
"207 612 LINE",
"51 37 LINE",
"186 0 LINE"
);
},
{
closed = 1;
nodes = (
"186 0 LINE",
"432 43 LINE",
"439 185 LINE",
"162 136 LINE"
);
}
);
userData = {
com.schriftgestaltung.Glyphs.lastChange = "2017-10-25 19:17:40 +0000";
};
width = 500;
}
);
},
{
glyphname = "comma-ar";
layers = (
{
layerId = master01;
paths = (
{
closed = 1;
nodes = (
"150 0 OFFCURVE",
"176 23 OFFCURVE",
"176 59 CURVE SMOOTH",
"176 109 OFFCURVE",
"114 131 OFFCURVE",
"89 103 CURVE",
"118 99 LINE",
"97 127 OFFCURVE",
"128 212 OFFCURVE",
"218 238 CURVE",
"207 186 LINE",
"126 294 LINE",
"196 280 LINE",
"72 227 OFFCURVE",
"50 138 OFFCURVE",
"50 93 CURVE SMOOTH",
"50 51 OFFCURVE",
"64 0 OFFCURVE",
"117 0 CURVE SMOOTH"
);
}
);
width = 205;
},
{
layerId = "A6CBEFC3-C9E0-479E-A224-60A030287C4A";
paths = (
{
closed = 1;
nodes = (
"162 -20 OFFCURVE",
"196 14 OFFCURVE",
"196 59 CURVE SMOOTH",
"196 108 OFFCURVE",
"150 145 OFFCURVE",
"102 133 CURVE",
"114 113 LINE",
"103 149 OFFCURVE",
"154 237 OFFCURVE",
"220 227 CURVE",
"204 190 LINE",
"116 307 LINE",
"189 293 LINE",
"92 255 OFFCURVE",
"30 178 OFFCURVE",
"30 93 CURVE SMOOTH",
"30 23 OFFCURVE",
"63 -20 OFFCURVE",
"117 -20 CURVE SMOOTH"
);
}
);
width = 221;
}
);
unicode = 060C;
},
{
glyphname = "semicolon-ar";
layers = (
{
components = (
{
name = "comma-ar";
transform = "{1, 0, 0, 1, 0, 189}";
}
);
layerId = master01;
paths = (
{
closed = 1;
nodes = (
"154 0 OFFCURVE",
"180 26 OFFCURVE",
"180 58 CURVE SMOOTH",
"180 90 OFFCURVE",
"154 116 OFFCURVE",
"122 116 CURVE SMOOTH",
"90 116 OFFCURVE",
"64 90 OFFCURVE",
"64 58 CURVE SMOOTH",
"64 26 OFFCURVE",
"90 0 OFFCURVE",
"122 0 CURVE SMOOTH"
);
}
);
width = 205;
},
{
components = (
{
name = "comma-ar";
transform = "{1, 0, 0, 1, 0, 209}";
}
);
layerId = "A6CBEFC3-C9E0-479E-A224-60A030287C4A";
paths = (
{
closed = 1;
nodes = (
"161 0 OFFCURVE",
"196 35 OFFCURVE",
"196 78 CURVE SMOOTH",
"196 121 OFFCURVE",
"161 156 OFFCURVE",
"118 156 CURVE SMOOTH",
"75 156 OFFCURVE",
"40 121 OFFCURVE",
"40 78 CURVE SMOOTH",
"40 35 OFFCURVE",
"75 0 OFFCURVE",
"118 0 CURVE SMOOTH"
);
}
);
width = 221;
}
);
leftMetricsKey = "=comma-ar";
widthMetricsKey = "=comma-ar";
unicode = 061B;
},
{
glyphname = "question-ar";
layers = (
{
layerId = master01;
paths = (
{
closed = 1;
nodes = (
"288 187 LINE",
"288 248 LINE SMOOTH",
"288 342 OFFCURVE",
"249 379 OFFCURVE",
"205 418 CURVE SMOOTH",
"164 452 OFFCURVE",
"117 484 OFFCURVE",
"117 545 CURVE SMOOTH",
"117 607 OFFCURVE",
"169 652 OFFCURVE",
"233 652 CURVE SMOOTH",
"280 652 OFFCURVE",
"313 624 OFFCURVE",
"336 590 CURVE SMOOTH",
"344 577 OFFCURVE",
"357 546 OFFCURVE",
"358 530 CURVE",
"467 602 LINE",
"453 607 OFFCURVE",
"426 623 OFFCURVE",
"411 644 CURVE SMOOTH",
"377 693 OFFCURVE",
"317 747 OFFCURVE",
"223 746 CURVE SMOOTH",
"111 746 OFFCURVE",
"26 646 OFFCURVE",
"25 554 CURVE SMOOTH",
"24 466 OFFCURVE",
"70 413 OFFCURVE",
"119 369 CURVE SMOOTH",
"160 333 OFFCURVE",
"193 305 OFFCURVE",
"193 226 CURVE SMOOTH",
"193 187 LINE"
);
},
{
closed = 1;
nodes = (
"273 0 OFFCURVE",
"299 26 OFFCURVE",
"299 58 CURVE SMOOTH",
"299 90 OFFCURVE",
"273 116 OFFCURVE",
"241 116 CURVE SMOOTH",
"209 116 OFFCURVE",
"183 90 OFFCURVE",
"183 58 CURVE SMOOTH",
"183 26 OFFCURVE",
"209 0 OFFCURVE",
"241 0 CURVE SMOOTH"
);
}
);
width = 477;
},
{
layerId = "A6CBEFC3-C9E0-479E-A224-60A030287C4A";
paths = (
{
closed = 1;
nodes = (
"328 187 LINE",
"328 248 LINE SMOOTH",
"328 351 OFFCURVE",
"283 394 OFFCURVE",
"238 433 CURVE SMOOTH",
"196 468 OFFCURVE",
"157 495 OFFCURVE",
"157 545 CURVE SMOOTH",
"157 594 OFFCURVE",
"198 632 OFFCURVE",
"253 632 CURVE SMOOTH",
"287 632 OFFCURVE",
"315 615 OFFCURVE",
"339 579 CURVE SMOOTH",
"347 566 OFFCURVE",
"357 539 OFFCURVE",
"360 494 CURVE",
"531 607 LINE",
"478 627 OFFCURVE",
"457 642 OFFCURVE",
"447 656 CURVE SMOOTH",
"397 728 OFFCURVE",
"325 767 OFFCURVE",
"243 766 CURVE SMOOTH",
"128 766 OFFCURVE",
"26 665 OFFCURVE",
"25 554 CURVE SMOOTH",
"24 477 OFFCURVE",
"54 418 OFFCURVE",
"126 354 CURVE SMOOTH",
"167 318 OFFCURVE",
"193 296 OFFCURVE",
"193 226 CURVE SMOOTH",
"193 187 LINE"
);
},
{
closed = 1;
nodes = (
"302 0 OFFCURVE",
"337 35 OFFCURVE",
"337 78 CURVE SMOOTH",
"337 121 OFFCURVE",
"302 156 OFFCURVE",
"259 156 CURVE SMOOTH",
"216 156 OFFCURVE",
"181 121 OFFCURVE",
"181 78 CURVE SMOOTH",
"181 35 OFFCURVE",
"216 0 OFFCURVE",
"259 0 CURVE SMOOTH"
);
}
);
width = 541;
}
);
unicode = 061F;
},
{
glyphname = dottedCircle;
layers = (
{
anchors = (
{
name = bottom;
position = "{293, -22}";
},
{
name = center;
position = "{293, 244}";
},
{
name = hamzaAbove;
position = "{293, 609}";
},
{
name = hamzaBelow;
position = "{293, -122}";
},
{
name = markAbove;
position = "{293, 609}";
},
{
name = markBelow;
position = "{293, -122}";
},
{
name = ogonek;
position = "{293, 0}";
},
{
name = top;
position = "{293, 509}";
},
{
name = topright;
position = "{473, 509}";
}
);
layerId = master01;
paths = (
{
closed = 1;
nodes = (
"525 206 OFFCURVE",
"540 220 OFFCURVE",
"540 243 CURVE SMOOTH",
"540 267 OFFCURVE",
"523 279 OFFCURVE",
"504 279 CURVE SMOOTH",
"484 279 OFFCURVE",
"469 267 OFFCURVE",
"469 243 CURVE SMOOTH",
"469 220 OFFCURVE",
"484 206 OFFCURVE",
"504 206 CURVE SMOOTH"
);
},
{
closed = 1;
nodes = (
"207 15 OFFCURVE",
"222 28 OFFCURVE",
"222 53 CURVE SMOOTH",
"222 76 OFFCURVE",
"206 88 OFFCURVE",
"186 88 CURVE SMOOTH",
"167 88 OFFCURVE",
"152 76 OFFCURVE",
"152 53 CURVE SMOOTH",
"152 28 OFFCURVE",
"167 15 OFFCURVE",
"186 15 CURVE SMOOTH"
);
},
{
closed = 1;
nodes = (
"130 97 OFFCURVE",
"144 111 OFFCURVE",
"144 133 CURVE SMOOTH",
"144 157 OFFCURVE",
"129 171 OFFCURVE",
"108 171 CURVE SMOOTH",
"90 171 OFFCURVE",
"74 157 OFFCURVE",
"74 133 CURVE SMOOTH",
"74 111 OFFCURVE",
"90 97 OFFCURVE",
"108 97 CURVE SMOOTH"
);
},
{
closed = 1;
nodes = (
"313 -12 OFFCURVE",
"328 1 OFFCURVE",
"328 25 CURVE SMOOTH",
"328 48 OFFCURVE",
"313 61 OFFCURVE",
"292 61 CURVE SMOOTH",
"273 61 OFFCURVE",
"258 48 OFFCURVE",
"258 25 CURVE SMOOTH",
"258 1 OFFCURVE",
"273 -12 OFFCURVE",
"292 -12 CURVE SMOOTH"
);
},
{
closed = 1;
nodes = (
"102 206 OFFCURVE",
"117 220 OFFCURVE",
"117 243 CURVE SMOOTH",
"117 267 OFFCURVE",
"101 279 OFFCURVE",
"80 279 CURVE SMOOTH",
"62 279 OFFCURVE",
"46 267 OFFCURVE",
"46 243 CURVE SMOOTH",
"46 220 OFFCURVE",
"62 206 OFFCURVE",
"80 206 CURVE SMOOTH"
);
},
{
closed = 1;
nodes = (
"420 15 OFFCURVE",
"434 28 OFFCURVE",
"434 53 CURVE SMOOTH",
"434 76 OFFCURVE",
"418 88 OFFCURVE",
"398 88 CURVE SMOOTH",
"380 88 OFFCURVE",
"364 76 OFFCURVE",
"364 53 CURVE SMOOTH",
"364 28 OFFCURVE",
"380 15 OFFCURVE",
"398 15 CURVE SMOOTH"
);
},
{
closed = 1;
nodes = (
"130 316 OFFCURVE",
"144 330 OFFCURVE",
"144 354 CURVE SMOOTH",
"144 378 OFFCURVE",
"129 390 OFFCURVE",
"108 390 CURVE SMOOTH",
"90 390 OFFCURVE",
"74 378 OFFCURVE",
"74 354 CURVE SMOOTH",
"74 330 OFFCURVE",
"90 316 OFFCURVE",
"108 316 CURVE SMOOTH"
);
},
{
closed = 1;
nodes = (
"499 97 OFFCURVE",
"512 111 OFFCURVE",
"512 133 CURVE SMOOTH",
"512 157 OFFCURVE",
"497 171 OFFCURVE",
"477 171 CURVE SMOOTH",
"458 171 OFFCURVE",
"442 157 OFFCURVE",
"442 133 CURVE SMOOTH",
"442 111 OFFCURVE",
"458 97 OFFCURVE",
"477 97 CURVE SMOOTH"
);
},
{
closed = 1;
nodes = (
"207 398 OFFCURVE",
"222 412 OFFCURVE",
"222 434 CURVE SMOOTH",
"222 459 OFFCURVE",
"206 471 OFFCURVE",
"186 471 CURVE SMOOTH",
"167 471 OFFCURVE",
"152 459 OFFCURVE",
"152 434 CURVE SMOOTH",
"152 412 OFFCURVE",
"167 398 OFFCURVE",
"186 398 CURVE SMOOTH"
);
},
{
closed = 1;
nodes = (
"313 424 OFFCURVE",
"328 438 OFFCURVE",
"328 462 CURVE SMOOTH",
"328 485 OFFCURVE",
"313 498 OFFCURVE",
"292 498 CURVE SMOOTH",
"273 498 OFFCURVE",
"258 485 OFFCURVE",
"258 462 CURVE SMOOTH",
"258 438 OFFCURVE",
"273 424 OFFCURVE",
"292 424 CURVE SMOOTH"
);
},
{
closed = 1;
nodes = (
"499 316 OFFCURVE",
"512 329 OFFCURVE",
"512 353 CURVE SMOOTH",
"512 376 OFFCURVE",
"497 389 OFFCURVE",
"477 389 CURVE SMOOTH",
"458 389 OFFCURVE",
"442 376 OFFCURVE",
"442 353 CURVE SMOOTH",
"442 329 OFFCURVE",
"458 316 OFFCURVE",
"477 316 CURVE SMOOTH"
);
},
{
closed = 1;
nodes = (
"420 397 OFFCURVE",
"434 412 OFFCURVE",
"434 434 CURVE SMOOTH",
"434 458 OFFCURVE",
"418 471 OFFCURVE",
"398 471 CURVE SMOOTH",
"380 471 OFFCURVE",
"364 458 OFFCURVE",
"364 434 CURVE SMOOTH",
"364 412 OFFCURVE",
"380 397 OFFCURVE",
"398 397 CURVE SMOOTH"
);
}
);
width = 585;
},
{
anchors = (
{
name = bottom;
position = "{293, -22}";
},
{
name = center;
position = "{293, 244}";
},
{
name = hamzaAbove;
position = "{293, 609}";
},
{
name = hamzaBelow;
position = "{293, -122}";
},
{
name = markAbove;
position = "{293, 609}";
},
{
name = markBelow;
position = "{293, -122}";
},
{
name = ogonek;
position = "{293, 0}";
},
{
name = top;
position = "{293, 509}";
},
{
name = topright;
position = "{473, 509}";
}
);
layerId = "A6CBEFC3-C9E0-479E-A224-60A030287C4A";
paths = (
{
closed = 1;
nodes = (
"525 206 OFFCURVE",
"540 220 OFFCURVE",
"540 243 CURVE SMOOTH",
"540 267 OFFCURVE",
"523 279 OFFCURVE",
"504 279 CURVE SMOOTH",
"484 279 OFFCURVE",
"469 267 OFFCURVE",
"469 243 CURVE SMOOTH",
"469 220 OFFCURVE",
"484 206 OFFCURVE",
"504 206 CURVE SMOOTH"
);
},
{
closed = 1;
nodes = (
"207 15 OFFCURVE",
"222 28 OFFCURVE",
"222 53 CURVE SMOOTH",
"222 76 OFFCURVE",
"206 88 OFFCURVE",
"186 88 CURVE SMOOTH",
"167 88 OFFCURVE",
"152 76 OFFCURVE",
"152 53 CURVE SMOOTH",
"152 28 OFFCURVE",
"167 15 OFFCURVE",
"186 15 CURVE SMOOTH"
);
},
{
closed = 1;
nodes = (
"130 97 OFFCURVE",
"144 111 OFFCURVE",
"144 133 CURVE SMOOTH",
"144 157 OFFCURVE",
"129 171 OFFCURVE",
"108 171 CURVE SMOOTH",
"90 171 OFFCURVE",
"74 157 OFFCURVE",
"74 133 CURVE SMOOTH",
"74 111 OFFCURVE",
"90 97 OFFCURVE",
"108 97 CURVE SMOOTH"
);
},
{
closed = 1;
nodes = (
"313 -12 OFFCURVE",
"328 1 OFFCURVE",
"328 25 CURVE SMOOTH",
"328 48 OFFCURVE",
"313 61 OFFCURVE",
"292 61 CURVE SMOOTH",
"273 61 OFFCURVE",
"258 48 OFFCURVE",
"258 25 CURVE SMOOTH",
"258 1 OFFCURVE",
"273 -12 OFFCURVE",
"292 -12 CURVE SMOOTH"
);
},
{
closed = 1;
nodes = (
"102 206 OFFCURVE",
"117 220 OFFCURVE",
"117 243 CURVE SMOOTH",
"117 267 OFFCURVE",
"101 279 OFFCURVE",
"80 279 CURVE SMOOTH",
"62 279 OFFCURVE",
"46 267 OFFCURVE",
"46 243 CURVE SMOOTH",
"46 220 OFFCURVE",
"62 206 OFFCURVE",
"80 206 CURVE SMOOTH"
);
},
{
closed = 1;
nodes = (
"420 15 OFFCURVE",
"434 28 OFFCURVE",
"434 53 CURVE SMOOTH",
"434 76 OFFCURVE",
"418 88 OFFCURVE",
"398 88 CURVE SMOOTH",
"380 88 OFFCURVE",
"364 76 OFFCURVE",
"364 53 CURVE SMOOTH",
"364 28 OFFCURVE",
"380 15 OFFCURVE",
"398 15 CURVE SMOOTH"
);
},
{
closed = 1;
nodes = (
"130 316 OFFCURVE",
"144 330 OFFCURVE",
"144 354 CURVE SMOOTH",
"144 378 OFFCURVE",
"129 390 OFFCURVE",
"108 390 CURVE SMOOTH",
"90 390 OFFCURVE",
"74 378 OFFCURVE",
"74 354 CURVE SMOOTH",
"74 330 OFFCURVE",
"90 316 OFFCURVE",
"108 316 CURVE SMOOTH"
);
},
{
closed = 1;
nodes = (
"499 97 OFFCURVE",
"512 111 OFFCURVE",
"512 133 CURVE SMOOTH",
"512 157 OFFCURVE",
"497 171 OFFCURVE",
"477 171 CURVE SMOOTH",
"458 171 OFFCURVE",
"442 157 OFFCURVE",
"442 133 CURVE SMOOTH",
"442 111 OFFCURVE",
"458 97 OFFCURVE",
"477 97 CURVE SMOOTH"
);
},
{
closed = 1;
nodes = (
"207 398 OFFCURVE",
"222 412 OFFCURVE",
"222 434 CURVE SMOOTH",
"222 459 OFFCURVE",
"206 471 OFFCURVE",
"186 471 CURVE SMOOTH",
"167 471 OFFCURVE",
"152 459 OFFCURVE",
"152 434 CURVE SMOOTH",
"152 412 OFFCURVE",
"167 398 OFFCURVE",
"186 398 CURVE SMOOTH"
);
},
{
closed = 1;
nodes = (
"313 424 OFFCURVE",
"328 438 OFFCURVE",
"328 462 CURVE SMOOTH",
"328 485 OFFCURVE",
"313 498 OFFCURVE",
"292 498 CURVE SMOOTH",
"273 498 OFFCURVE",
"258 485 OFFCURVE",
"258 462 CURVE SMOOTH",
"258 438 OFFCURVE",
"273 424 OFFCURVE",
"292 424 CURVE SMOOTH"
);
},
{
closed = 1;
nodes = (
"499 316 OFFCURVE",
"512 329 OFFCURVE",
"512 353 CURVE SMOOTH",
"512 376 OFFCURVE",
"497 389 OFFCURVE",
"477 389 CURVE SMOOTH",
"458 389 OFFCURVE",
"442 376 OFFCURVE",
"442 353 CURVE SMOOTH",
"442 329 OFFCURVE",
"458 316 OFFCURVE",
"477 316 CURVE SMOOTH"
);
},
{
closed = 1;
nodes = (
"420 397 OFFCURVE",
"434 412 OFFCURVE",
"434 434 CURVE SMOOTH",
"434 458 OFFCURVE",
"418 471 OFFCURVE",
"398 471 CURVE SMOOTH",
"380 471 OFFCURVE",
"364 458 OFFCURVE",
"364 434 CURVE SMOOTH",
"364 412 OFFCURVE",
"380 397 OFFCURVE",
"398 397 CURVE SMOOTH"
);
}
);
width = 585;
}
);
unicode = 25CC;
},
{
glyphname = "tahabove-ar";
layers = (
{
anchors = (
{
name = _hamzaAbove;
position = "{150, 0}";
}
);
layerId = master01;
paths = (
{
closed = 1;
nodes = (
"284 0 LINE",
"284 0 OFFCURVE",
"300 -1 OFFCURVE",
"300 9 CURVE SMOOTH",
"300 57 OFFCURVE",
"307 140 OFFCURVE",
"224 140 CURVE SMOOTH",
"82 140 LINE",
"82 90 LINE",
"219 90 LINE SMOOTH",
"249 90 OFFCURVE",
"249 72 OFFCURVE",
"250 50 CURVE",
"24 50 LINE",
"0 0 LINE"
);
},
{
closed = 1;
nodes = (
"114 20 LINE",
"114 300 LINE",
"64 291 LINE",
"64 20 LINE"
);
}
);
width = 300;
},
{
anchors = (
{
name = _hamzaAbove;
position = "{150, 0}";
}
);
layerId = "A6CBEFC3-C9E0-479E-A224-60A030287C4A";
paths = (
{
closed = 1;
nodes = (
"284 0 LINE",
"284 0 OFFCURVE",
"300 -1 OFFCURVE",
"300 9 CURVE SMOOTH",
"300 57 OFFCURVE",
"307 140 OFFCURVE",
"224 140 CURVE SMOOTH",
"82 140 LINE",
"82 90 LINE",
"219 90 LINE SMOOTH",
"249 90 OFFCURVE",
"249 72 OFFCURVE",
"250 50 CURVE",
"24 50 LINE",
"0 0 LINE"
);
},
{
closed = 1;
nodes = (
"114 20 LINE",
"114 300 LINE",
"64 291 LINE",
"64 20 LINE"
);
}
);
width = 300;
}
);
unicode = 0615;
category = Mark;
subCategory = Nonspacing;
},
{
glyphname = "dotabove-ar";
layers = (
{
anchors = (
{
name = _dotAbove;
position = "{58, 0}";
},
{
name = markAbove;
position = "{58, 150}";
}
);
layerId = master01;
paths = (
{
closed = 1;
nodes = (
"90 -58 OFFCURVE",
"116 -32 OFFCURVE",
"116 0 CURVE SMOOTH",
"116 32 OFFCURVE",
"90 58 OFFCURVE",
"58 58 CURVE SMOOTH",
"26 58 OFFCURVE",
"0 32 OFFCURVE",
"0 0 CURVE SMOOTH",
"0 -32 OFFCURVE",
"26 -58 OFFCURVE",
"58 -58 CURVE SMOOTH"
);
}
);
width = 116;
},
{
anchors = (
{
name = _dotAbove;
position = "{58, 0}";
},
{
name = markAbove;
position = "{58, 150}";
}
);
layerId = "A6CBEFC3-C9E0-479E-A224-60A030287C4A";
paths = (
{
closed = 1;
nodes = (
"90 -58 OFFCURVE",
"116 -32 OFFCURVE",
"116 0 CURVE SMOOTH",
"116 32 OFFCURVE",
"90 58 OFFCURVE",
"58 58 CURVE SMOOTH",
"26 58 OFFCURVE",
"0 32 OFFCURVE",
"0 0 CURVE SMOOTH",
"0 -32 OFFCURVE",
"26 -58 OFFCURVE",
"58 -58 CURVE SMOOTH"
);
}
);
width = 116;
}
);
category = Mark;
subCategory = Nonspacing;
},
{
glyphname = "wasla-ar";
layers = (
{
anchors = (
{
name = _hamzaAbove;
position = "{142, 0}";
}
);
layerId = master01;
paths = (
{
closed = 1;
nodes = (
"268 0 LINE",
"268 0 OFFCURVE",
"284 0 OFFCURVE",
"284 10 CURVE SMOOTH",
"284 58 OFFCURVE",
"291 140 OFFCURVE",
"208 140 CURVE SMOOTH",
"46 140 LINE",
"46 90 LINE",
"202 90 LINE SMOOTH",
"232 90 OFFCURVE",
"234 72 OFFCURVE",
"234 50 CURVE",
"46 50 LINE",
"46 0 LINE"
);
},
{
closed = 1;
nodes = (
"14 -41 OFFCURVE",
"78 -57 OFFCURVE",
"78 16 CURVE SMOOTH",
"78 160 LINE",
"28 152 LINE",
"28 16 LINE SMOOTH",
"28 -12 OFFCURVE",
"30 -34 OFFCURVE",
"0 -38 CURVE"
);
}
);
width = 284;
},
{
anchors = (
{
name = _hamzaAbove;
position = "{142, 0}";
}
);
layerId = "A6CBEFC3-C9E0-479E-A224-60A030287C4A";
paths = (
{
closed = 1;
nodes = (
"268 0 LINE",
"268 0 OFFCURVE",
"284 0 OFFCURVE",
"284 10 CURVE SMOOTH",
"284 58 OFFCURVE",
"291 140 OFFCURVE",
"208 140 CURVE SMOOTH",
"46 140 LINE",
"46 90 LINE",
"202 90 LINE SMOOTH",
"232 90 OFFCURVE",
"234 72 OFFCURVE",
"234 50 CURVE",
"46 50 LINE",
"46 0 LINE"
);
},
{
closed = 1;
nodes = (
"14 -41 OFFCURVE",
"78 -57 OFFCURVE",
"78 16 CURVE SMOOTH",
"78 160 LINE",
"28 152 LINE",
"28 16 LINE SMOOTH",
"28 -12 OFFCURVE",
"30 -34 OFFCURVE",
"0 -38 CURVE"
);
}
);
width = 284;
}
);
category = Mark;
subCategory = Nonspacing;
},
{
glyphname = "gafsarkashabove-ar";
layers = (
{
anchors = (
{
name = _gafAbove;
position = "{211, 0}";
}
);
layerId = master01;
paths = (
{
closed = 1;
nodes = (
"422 208 LINE",
"422 255 LINE",
"1 -160 LINE",
"0 -208 LINE"
);
}
);
width = 422;
},
{
anchors = (
{
name = _gafAbove;
position = "{211, 0}";
}
);
layerId = "A6CBEFC3-C9E0-479E-A224-60A030287C4A";
paths = (
{
closed = 1;
nodes = (
"422 208 LINE",
"422 255 LINE",
"1 -160 LINE",
"0 -208 LINE"
);
}
);
width = 422;
}
);
category = Mark;
subCategory = Nonspacing;
},
{
glyphname = "alefabove-ar";
layers = (
{
anchors = (
{
name = _markAbove;
position = "{44, 0}";
}
);
layerId = master01;
paths = (
{
closed = 1;
nodes = (
"69 0 LINE",
"69 233 LINE",
"0 165 LINE",
"13 171 OFFCURVE",
"21 164 OFFCURVE",
"21 155 CURVE SMOOTH",
"21 0 LINE"
);
}
);
width = 69;
},
{
anchors = (
{
name = _markAbove;
position = "{44, 0}";
}
);
layerId = "A6CBEFC3-C9E0-479E-A224-60A030287C4A";
paths = (
{
closed = 1;
nodes = (
"69 0 LINE",
"69 233 LINE",
"0 165 LINE",
"13 171 OFFCURVE",
"21 164 OFFCURVE",
"21 155 CURVE SMOOTH",
"21 0 LINE"
);
}
);
width = 69;
}
);
unicode = 0670;
category = Mark;
subCategory = Nonspacing;
},
{
glyphname = "hamzaabove-ar";
layers = (
{
anchors = (
{
name = _hamzaAbove;
position = "{135, 0}";
},
{
name = _hamzaAbove.alt;
position = "{135, 0}";
},
{
name = markAbove;
position = "{135, 250}";
}
);
layerId = master01;
paths = (
{
closed = 1;
nodes = (
"224 9 LINE",
"223 50 LINE",
"197 50 LINE SMOOTH",
"172 50 OFFCURVE",
"135 49 OFFCURVE",
"135 89 CURVE SMOOTH",
"135 96 OFFCURVE",
"134 128 OFFCURVE",
"167 137 CURVE SMOOTH",
"186 142 OFFCURVE",
"219 132 OFFCURVE",
"227 128 CURVE",
"214 159 OFFCURVE",
"182 168 OFFCURVE",
"164 168 CURVE SMOOTH",
"112 168 OFFCURVE",
"90 139 OFFCURVE",
"79 99 CURVE SMOOTH",
"74 79 OFFCURVE",
"73 67 OFFCURVE",
"73 42 CURVE SMOOTH",
"73 9 LINE"
);
},
{
closed = 1;
nodes = (
"240 0 LINE",
"270 50 LINE",
"30 50 LINE",
"0 0 LINE"
);
}
);
width = 270;
},
{
anchors = (
{
name = _hamzaAbove;
position = "{135, 0}";
},
{
name = _hamzaAbove.alt;
position = "{135, 0}";
},
{
name = markAbove;
position = "{135, 250}";
}
);
layerId = "A6CBEFC3-C9E0-479E-A224-60A030287C4A";
paths = (
{
closed = 1;
nodes = (
"224 9 LINE",
"223 50 LINE",
"197 50 LINE SMOOTH",
"172 50 OFFCURVE",
"135 49 OFFCURVE",
"135 89 CURVE SMOOTH",
"135 96 OFFCURVE",
"134 128 OFFCURVE",
"167 137 CURVE SMOOTH",
"186 142 OFFCURVE",
"219 132 OFFCURVE",
"227 128 CURVE",
"214 159 OFFCURVE",
"182 168 OFFCURVE",
"164 168 CURVE SMOOTH",
"112 168 OFFCURVE",
"90 139 OFFCURVE",
"79 99 CURVE SMOOTH",
"74 79 OFFCURVE",
"73 67 OFFCURVE",
"73 42 CURVE SMOOTH",
"73 9 LINE"
);
},
{
closed = 1;
nodes = (
"240 0 LINE",
"270 50 LINE",
"30 50 LINE",
"0 0 LINE"
);
}
);
width = 270;
}
);
unicode = 0654;
category = Mark;
subCategory = Nonspacing;
},
{
glyphname = "dammatan-ar";
layers = (
{
anchors = (
{
name = _markAbove;
position = "{140, 0}";
}
);
components = (
{
name = "damma-ar";
transform = "{1, 0, 0, 1, 40, 6}";
}
);
layerId = master01;
paths = (
{
closed = 1;
nodes = (
"57 70 LINE",
"33 201 LINE",
"0 195 LINE",
"23 63 LINE"
);
}
);
width = 250;
},
{
anchors = (
{
name = _markAbove;
position = "{140, 0}";
}
);
components = (
{
name = "damma-ar";
transform = "{1, 0, 0, 1, 40, 6}";
}
);
layerId = "A6CBEFC3-C9E0-479E-A224-60A030287C4A";
paths = (
{
closed = 1;
nodes = (
"57 70 LINE",
"33 201 LINE",
"0 195 LINE",
"23 63 LINE"
);
}
);
width = 250;
}
);
unicode = 064C;
category = Mark;
subCategory = Nonspacing;
},
{
glyphname = "fatha-ar";
layers = (
{
anchors = (
{
name = _markAbove;
position = "{121, 0}";
}
);
layerId = master01;
paths = (
{
closed = 1;
nodes = (
"242 194 LINE",
"225 224 LINE",
"0 94 LINE",
"17 64 LINE"
);
}
);
width = 242;
},
{
anchors = (
{
name = _markAbove;
position = "{121, 0}";
}
);
layerId = "A6CBEFC3-C9E0-479E-A224-60A030287C4A";
paths = (
{
closed = 1;
nodes = (
"242 194 LINE",
"225 224 LINE",
"0 94 LINE",
"17 64 LINE"
);
}
);
width = 242;
}
);
unicode = 064E;
category = Mark;
subCategory = Nonspacing;
},
{
glyphname = "damma-ar";
layers = (
{
anchors = (
{
name = _markAbove;
position = "{110, 0}";
}
);
layerId = master01;
paths = (
{
closed = 1;
nodes = (
"208 174 OFFCURVE",
"222 229 OFFCURVE",
"199 270 CURVE SMOOTH",
"174 312 OFFCURVE",
"120 327 OFFCURVE",
"77 302 CURVE SMOOTH",
"37 279 OFFCURVE",
"24 225 OFFCURVE",
"48 183 CURVE SMOOTH",
"72 142 OFFCURVE",
"125 127 OFFCURVE",
"165 150 CURVE SMOOTH"
);
},
{
closed = 1;
nodes = (
"165 150 LINE",
"150 180 LINE",
"0 94 LINE",
"17 64 LINE"
);
},
{
closed = 1;
nodes = (
"124 165 OFFCURVE",
"93 174 OFFCURVE",
"78 200 CURVE SMOOTH",
"64 227 OFFCURVE",
"70 259 OFFCURVE",
"96 273 CURVE SMOOTH",
"124 288 OFFCURVE",
"154 279 OFFCURVE",
"169 253 CURVE SMOOTH",
"184 227 OFFCURVE",
"176 195 OFFCURVE",
"150 180 CURVE SMOOTH"
);
}
);
width = 210;
},
{
anchors = (
{
name = _markAbove;
position = "{110, 0}";
}
);
layerId = "A6CBEFC3-C9E0-479E-A224-60A030287C4A";
paths = (
{
closed = 1;
nodes = (
"208 174 OFFCURVE",
"222 229 OFFCURVE",
"199 270 CURVE SMOOTH",
"174 312 OFFCURVE",
"120 327 OFFCURVE",
"77 302 CURVE SMOOTH",
"37 279 OFFCURVE",
"24 225 OFFCURVE",
"48 183 CURVE SMOOTH",
"72 142 OFFCURVE",
"125 127 OFFCURVE",
"165 150 CURVE SMOOTH"
);
},
{
closed = 1;
nodes = (
"165 150 LINE",
"150 180 LINE",
"0 94 LINE",
"17 64 LINE"
);
},
{
closed = 1;
nodes = (
"124 165 OFFCURVE",
"93 174 OFFCURVE",
"78 200 CURVE SMOOTH",
"64 227 OFFCURVE",
"70 259 OFFCURVE",
"96 273 CURVE SMOOTH",
"124 288 OFFCURVE",
"154 279 OFFCURVE",
"169 253 CURVE SMOOTH",
"184 227 OFFCURVE",
"176 195 OFFCURVE",
"150 180 CURVE SMOOTH"
);
}
);
width = 210;
}
);
unicode = 064F;
category = Mark;
subCategory = Nonspacing;
},
{
glyphname = "shadda-ar";
layers = (
{
anchors = (
{
name = _markAbove;
position = "{130, 0}";
},
{
name = markAbove;
position = "{130, 200}";
}
);
layerId = master01;
paths = (
{
closed = 1;
nodes = (
"227 74 OFFCURVE",
"260 108 OFFCURVE",
"260 148 CURVE",
"226 148 LINE",
"226 126 OFFCURVE",
"207 108 OFFCURVE",
"186 108 CURVE SMOOTH",
"166 108 OFFCURVE",
"147 126 OFFCURVE",
"147 148 CURVE",
"113 148 LINE",
"113 108 OFFCURVE",
"146 74 OFFCURVE",
"185 74 CURVE SMOOTH"
);
},
{
closed = 1;
nodes = (
"114 74 OFFCURVE",
"147 108 OFFCURVE",
"147 148 CURVE",
"113 148 LINE",
"113 126 OFFCURVE",
"94 108 OFFCURVE",
"73 108 CURVE SMOOTH",
"53 108 OFFCURVE",
"34 126 OFFCURVE",
"34 148 CURVE",
"0 148 LINE",
"0 108 OFFCURVE",
"33 74 OFFCURVE",
"72 74 CURVE SMOOTH"
);
},
{
closed = 1;
nodes = (
"34 148 LINE",
"34 200 LINE",
"0 200 LINE",
"0 148 LINE"
);
},
{
closed = 1;
nodes = (
"147 148 LINE",
"147 200 LINE",
"113 200 LINE",
"113 148 LINE"
);
},
{
closed = 1;
nodes = (
"260 148 LINE",
"260 200 LINE",
"226 200 LINE",
"226 148 LINE"
);
}
);
width = 260;
},
{
anchors = (
{
name = _markAbove;
position = "{130, 0}";
},
{
name = markAbove;
position = "{130, 200}";
}
);
layerId = "A6CBEFC3-C9E0-479E-A224-60A030287C4A";
paths = (
{
closed = 1;
nodes = (
"227 74 OFFCURVE",
"260 108 OFFCURVE",
"260 148 CURVE",
"226 148 LINE",
"226 126 OFFCURVE",
"207 108 OFFCURVE",
"186 108 CURVE SMOOTH",
"166 108 OFFCURVE",
"147 126 OFFCURVE",
"147 148 CURVE",
"113 148 LINE",
"113 108 OFFCURVE",
"146 74 OFFCURVE",
"185 74 CURVE SMOOTH"
);
},
{
closed = 1;
nodes = (
"114 74 OFFCURVE",
"147 108 OFFCURVE",
"147 148 CURVE",
"113 148 LINE",
"113 126 OFFCURVE",
"94 108 OFFCURVE",
"73 108 CURVE SMOOTH",
"53 108 OFFCURVE",
"34 126 OFFCURVE",
"34 148 CURVE",
"0 148 LINE",
"0 108 OFFCURVE",
"33 74 OFFCURVE",
"72 74 CURVE SMOOTH"
);
},
{
closed = 1;
nodes = (
"34 148 LINE",
"34 200 LINE",
"0 200 LINE",
"0 148 LINE"
);
},
{
closed = 1;
nodes = (
"147 148 LINE",
"147 200 LINE",
"113 200 LINE",
"113 148 LINE"
);
},
{
closed = 1;
nodes = (
"260 148 LINE",
"260 200 LINE",
"226 200 LINE",
"226 148 LINE"
);
}
);
width = 260;
}
);
unicode = 0651;
category = Mark;
subCategory = Nonspacing;
},
{
glyphname = "sukun-ar";
layers = (
{
anchors = (
{
name = _markAbove;
position = "{98, 0}";
}
);
layerId = master01;
paths = (
{
closed = 1;
nodes = (
"153 74 OFFCURVE",
"198 119 OFFCURVE",
"198 174 CURVE SMOOTH",
"198 229 OFFCURVE",
"153 274 OFFCURVE",
"98 274 CURVE SMOOTH",
"44 274 OFFCURVE",
"0 229 OFFCURVE",
"0 174 CURVE SMOOTH",
"0 119 OFFCURVE",
"44 74 OFFCURVE",
"98 74 CURVE SMOOTH"
);
},
{
closed = 1;
nodes = (
"61 109 OFFCURVE",
"33 138 OFFCURVE",
"33 175 CURVE SMOOTH",
"33 212 OFFCURVE",
"61 243 OFFCURVE",
"99 242 CURVE SMOOTH",
"137 241 OFFCURVE",
"165 212 OFFCURVE",
"165 175 CURVE SMOOTH",
"165 138 OFFCURVE",
"136 109 OFFCURVE",
"99 109 CURVE SMOOTH"
);
}
);
width = 198;
},
{
anchors = (
{
name = _markAbove;
position = "{98, 0}";
}
);
layerId = "A6CBEFC3-C9E0-479E-A224-60A030287C4A";
paths = (
{
closed = 1;
nodes = (
"153 74 OFFCURVE",
"198 119 OFFCURVE",
"198 174 CURVE SMOOTH",
"198 229 OFFCURVE",
"153 274 OFFCURVE",
"98 274 CURVE SMOOTH",
"44 274 OFFCURVE",
"0 229 OFFCURVE",
"0 174 CURVE SMOOTH",
"0 119 OFFCURVE",
"44 74 OFFCURVE",
"98 74 CURVE SMOOTH"
);
},
{
closed = 1;
nodes = (
"61 109 OFFCURVE",
"33 138 OFFCURVE",
"33 175 CURVE SMOOTH",
"33 212 OFFCURVE",
"61 243 OFFCURVE",
"99 242 CURVE SMOOTH",
"137 241 OFFCURVE",
"165 212 OFFCURVE",
"165 175 CURVE SMOOTH",
"165 138 OFFCURVE",
"136 109 OFFCURVE",
"99 109 CURVE SMOOTH"
);
}
);
width = 198;
}
);
unicode = 0652;
category = Mark;
subCategory = Nonspacing;
},
{
glyphname = "madda-ar";
layers = (
{
anchors = (
{
name = _hamzaAbove;
position = "{150, 0}";
},
{
name = _markAbove;
position = "{150, -50}";
}
);
layerId = master01;
paths = (
{
closed = 1;
nodes = (
"14 -41 OFFCURVE",
"78 -57 OFFCURVE",
"78 16 CURVE SMOOTH",
"78 80 LINE",
"28 72 LINE",
"28 16 LINE SMOOTH",
"28 -12 OFFCURVE",
"30 -34 OFFCURVE",
"0 -38 CURVE"
);
},
{
closed = 1;
nodes = (
"234 0 LINE",
"234 50 LINE",
"46 50 LINE",
"46 0 LINE"
);
},
{
closed = 1;
nodes = (
"315 0 LINE",
"277 66 LINE",
"272 55 OFFCURVE",
"260 50 OFFCURVE",
"250 50 CURVE SMOOTH",
"215 50 LINE",
"215 0 LINE"
);
}
);
width = 315;
},
{
anchors = (
{
name = _hamzaAbove;
position = "{150, 0}";
},
{
name = _markAbove;
position = "{150, -50}";
}
);
layerId = "A6CBEFC3-C9E0-479E-A224-60A030287C4A";
paths = (
{
closed = 1;
nodes = (
"14 -41 OFFCURVE",
"78 -57 OFFCURVE",
"78 16 CURVE SMOOTH",
"78 80 LINE",
"28 72 LINE",
"28 16 LINE SMOOTH",
"28 -12 OFFCURVE",
"30 -34 OFFCURVE",
"0 -38 CURVE"
);
},
{
closed = 1;
nodes = (
"234 0 LINE",
"234 50 LINE",
"46 50 LINE",
"46 0 LINE"
);
},
{
closed = 1;
nodes = (
"315 0 LINE",
"277 66 LINE",
"272 55 OFFCURVE",
"260 50 OFFCURVE",
"250 50 CURVE SMOOTH",
"215 50 LINE",
"215 0 LINE"
);
}
);
width = 315;
}
);
unicode = "0653,06E4";
category = Mark;
subCategory = Nonspacing;
},
{
export = 0;
glyphname = _seen.bowel;
layers = (
{
layerId = master01;
paths = (
{
closed = 1;
nodes = (
"367 -200 OFFCURVE",
"444 -113 OFFCURVE",
"445 0 CURVE",
"445 300 LINE",
"345 278 LINE",
"345 40 LINE SMOOTH",
"345 -71 OFFCURVE",
"318 -143 OFFCURVE",
"216 -143 CURVE SMOOTH",
"92 -143 OFFCURVE",
"55 -76 OFFCURVE",
"55 0 CURVE SMOOTH",
"55 39 OFFCURVE",
"73 86 OFFCURVE",
"111 90 CURVE SMOOTH",
"129 92 OFFCURVE",
"141 88 OFFCURVE",
"160 77 CURVE",
"166 100 OFFCURVE",
"152 125 OFFCURVE",
"131 135 CURVE",
"150 160 OFFCURVE",
"154 182 OFFCURVE",
"151 207 CURVE",
"88 167 OFFCURVE",
"25 88 OFFCURVE",
"25 0 CURVE SMOOTH",
"25 -62 OFFCURVE",
"53 -200 OFFCURVE",
"216 -200 CURVE SMOOTH"
);
}
);
width = 445;
},
{
layerId = "A6CBEFC3-C9E0-479E-A224-60A030287C4A";
paths = (
{
closed = 1;
nodes = (
"367 -200 OFFCURVE",
"444 -113 OFFCURVE",
"445 0 CURVE",
"445 340 LINE",
"305 309 LINE",
"305 40 LINE SMOOTH",
"305 -71 OFFCURVE",
"276 -143 OFFCURVE",
"198 -143 CURVE SMOOTH",
"126 -143 OFFCURVE",
"66 -79 OFFCURVE",
"66 -1 CURVE SMOOTH",
"66 34 OFFCURVE",
"79 51 OFFCURVE",
"98 64 CURVE SMOOTH",
"116 76 OFFCURVE",
"139 77 OFFCURVE",
"160 57 CURVE",
"166 80 OFFCURVE",
"152 125 OFFCURVE",
"131 135 CURVE",
"150 160 OFFCURVE",
"154 182 OFFCURVE",
"151 207 CURVE",
"88 167 OFFCURVE",
"25 88 OFFCURVE",
"25 0 CURVE SMOOTH",
"25 -62 OFFCURVE",
"53 -200 OFFCURVE",
"216 -200 CURVE SMOOTH"
);
}
);
width = 445;
}
);
},
{
export = 0;
glyphname = _hah.bowel;
layers = (
{
anchors = (
{
name = center;
position = "{215, -85}";
},
{
name = markBelow;
position = "{215, -85}";
}
);
layerId = master01;
paths = (
{
closed = 1;
nodes = (
"136 -217 OFFCURVE",
"239 -207 OFFCURVE",
"296 -167 CURVE",
"232 -187 OFFCURVE",
"111 -180 OFFCURVE",
"111 -72 CURVE SMOOTH",
"111 -21 OFFCURVE",
"156 0 OFFCURVE",
"182 0 CURVE SMOOTH",
"450 0 LINE",
"450 100 LINE",
"182 100 LINE SMOOTH",
"54 100 OFFCURVE",
"25 13 OFFCURVE",
"25 -57 CURVE SMOOTH",
"25 -110 OFFCURVE",
"45 -147 OFFCURVE",
"75 -170 CURVE SMOOTH"
);
}
);
width = 430;
},
{
anchors = (
{
name = center;
position = "{223, -85}";
},
{
name = markBelow;
position = "{223, -85}";
}
);
layerId = "A6CBEFC3-C9E0-479E-A224-60A030287C4A";
paths = (
{
closed = 1;
nodes = (
"146 -215 OFFCURVE",
"245 -210 OFFCURVE",
"306 -167 CURVE",
"242 -187 OFFCURVE",
"121 -180 OFFCURVE",
"121 -72 CURVE SMOOTH",
"121 -21 OFFCURVE",
"166 0 OFFCURVE",
"192 0 CURVE SMOOTH",
"460 0 LINE",
"460 140 LINE",
"192 140 LINE SMOOTH",
"64 140 OFFCURVE",
"25 33 OFFCURVE",
"25 -37 CURVE SMOOTH",
"25 -89 OFFCURVE",
"46 -139 OFFCURVE",
"85 -169 CURVE SMOOTH"
);
}
);
width = 440;
}
);
},
{
export = 0;
glyphname = _ain.bowel;
layers = (
{
layerId = master01;
paths = (
{
closed = 1;
nodes = (
"208 -223 OFFCURVE",
"325 -202 OFFCURVE",
"371 -147 CURVE",
"307 -169 OFFCURVE",
"126 -180 OFFCURVE",
"126 -72 CURVE SMOOTH",
"126 -31 OFFCURVE",
"172 0 OFFCURVE",
"198 0 CURVE SMOOTH",
"450 0 LINE",
"450 100 LINE",
"171 100 LINE SMOOTH",
"70 100 OFFCURVE",
"25 23 OFFCURVE",
"25 -60 CURVE SMOOTH",
"25 -131 OFFCURVE",
"75 -182 OFFCURVE",
"132 -200 CURVE SMOOTH"
);
}
);
width = 430;
},
{
layerId = "A6CBEFC3-C9E0-479E-A224-60A030287C4A";
paths = (
{
closed = 1;
nodes = (
"208 -223 OFFCURVE",
"325 -202 OFFCURVE",
"371 -147 CURVE",
"307 -169 OFFCURVE",
"146 -180 OFFCURVE",
"146 -72 CURVE SMOOTH",
"146 -21 OFFCURVE",
"192 0 OFFCURVE",
"217 0 CURVE SMOOTH",
"450 0 LINE",
"450 140 LINE",
"200 140 LINE SMOOTH",
"84 140 OFFCURVE",
"25 36 OFFCURVE",
"25 -37 CURVE SMOOTH",
"25 -131 OFFCURVE",
"75 -183 OFFCURVE",
"132 -200 CURVE SMOOTH"
);
}
);
width = 430;
}
);
},
{
export = 0;
glyphname = _ain.head.1;
layers = (
{
anchors = (
{
name = dotAbove;
position = "{255, 550}";
},
{
name = markAbove;
position = "{255, 550}";
}
);
layerId = master01;
paths = (
{
closed = 1;
nodes = (
"191 76 LINE",
"277 26 LINE",
"490 400 LINE",
"31 400 LINE",
"243 26 LINE",
"330 76 LINE",
"180 339 LINE",
"157 300 LINE",
"363 300 LINE",
"340 339 LINE"
);
}
);
width = 490;
},
{
anchors = (
{
name = dotAbove;
position = "{255, 550}";
},
{
name = markAbove;
position = "{255, 550}";
}
);
layerId = "A6CBEFC3-C9E0-479E-A224-60A030287C4A";
paths = (
{
closed = 1;
nodes = (
"208 126 LINE",
"330 59 LINE",
"524 400 LINE",
"-3 400 LINE",
"191 59 LINE",
"313 126 LINE",
"214 299 LINE",
"191 260 LINE",
"329 260 LINE",
"306 299 LINE"
);
}
);
width = 490;
}
);
},
{
export = 0;
glyphname = _ain.head;
layers = (
{
anchors = (
{
name = dotAbove;
position = "{85, 550}";
},
{
name = markAbove;
position = "{85, 550}";
}
);
layerId = master01;
paths = (
{
closed = 1;
nodes = (
"248 121 LINE",
"25 364 LINE",
"-41 273 LINE",
"168 46 LINE"
);
},
{
closed = 1;
nodes = (
"255 50 LINE",
"255 400 LINE",
"155 378 LINE",
"155 50 LINE"
);
}
);
width = 350;
},
{
anchors = (
{
name = dotAbove;
position = "{104, 550}";
},
{
name = markAbove;
position = "{104, 550}";
}
);
layerId = "A6CBEFC3-C9E0-479E-A224-60A030287C4A";
paths = (
{
closed = 1;
nodes = (
"281 106 LINE",
"44 364 LINE",
"-41 247 LINE",
"178 11 LINE"
);
},
{
closed = 1;
nodes = (
"284 50 LINE",
"284 400 LINE",
"144 369 LINE",
"144 50 LINE"
);
}
);
width = 369;
},
{
anchors = (
{
name = dotAbove;
position = "{85, 550}";
},
{
name = markAbove;
position = "{85, 550}";
}
);
associatedMasterId = master01;
layerId = "0E02E8D5-590C-4984-BBA3-36394FA7EB74";
name = "Nov 5 20, 23:09";
paths = (
{
closed = 1;
nodes = (
"262 106 LINE",
"25 364 LINE",
"-41 273 LINE",
"181 31 LINE"
);
},
{
closed = 1;
nodes = (
"255 50 LINE",
"255 400 LINE",
"155 378 LINE",
"155 50 LINE"
);
}
);
visible = 1;
width = 350;
}
);
},
{
export = 0;
glyphname = _sad.body;
layers = (
{
anchors = (
{
name = dotAbove;
position = "{535, 550}";
},
{
name = markAbove;
position = "{535, 550}";
},
{
name = markBelow;
position = "{535, -150}";
}
);
layerId = master01;
paths = (
{
closed = 1;
nodes = (
"945 0 LINE",
"945 0 OFFCURVE",
"985 -2 OFFCURVE",
"985 23 CURVE SMOOTH",
"985 143 OFFCURVE",
"1002 300 OFFCURVE",
"795 300 CURVE SMOOTH",
"230 300 LINE",
"230 200 LINE",
"795 200 LINE SMOOTH",
"870 200 OFFCURVE",
"886 156 OFFCURVE",
"885 100 CURVE",
"230 100 LINE",
"230 0 LINE"
);
}
);
width = 1010;
},
{
anchors = (
{
name = dotAbove;
position = "{535, 550}";
},
{
name = markAbove;
position = "{535, 550}";
},
{
name = markBelow;
position = "{535, -150}";
}
);
layerId = "A6CBEFC3-C9E0-479E-A224-60A030287C4A";
paths = (
{
closed = 1;
nodes = (
"945 0 LINE",
"945 0 OFFCURVE",
"985 -2 OFFCURVE",
"985 23 CURVE SMOOTH",
"985 143 OFFCURVE",
"1002 340 OFFCURVE",
"755 340 CURVE SMOOTH",
"230 340 LINE",
"230 200 LINE",
"755 200 LINE SMOOTH",
"830 200 OFFCURVE",
"846 176 OFFCURVE",
"845 140 CURVE",
"230 140 LINE",
"230 0 LINE"
);
}
);
width = 1010;
}
);
},
{
export = 0;
glyphname = _circle;
layers = (
{
layerId = master01;
paths = (
{
closed = 1;
nodes = (
"257 -200 OFFCURVE",
"324 -133 OFFCURVE",
"324 -50 CURVE SMOOTH",
"324 33 OFFCURVE",
"257 100 OFFCURVE",
"175 100 CURVE SMOOTH",
"93 100 OFFCURVE",
"25 33 OFFCURVE",
"25 -50 CURVE SMOOTH",
"25 -133 OFFCURVE",
"93 -200 OFFCURVE",
"175 -200 CURVE SMOOTH"
);
},
{
closed = 1;
nodes = (
"147 -100 OFFCURVE",
"125 -78 OFFCURVE",
"125 -50 CURVE SMOOTH",
"125 -22 OFFCURVE",
"147 0 OFFCURVE",
"175 0 CURVE SMOOTH",
"203 0 OFFCURVE",
"225 -22 OFFCURVE",
"225 -50 CURVE SMOOTH",
"225 -78 OFFCURVE",
"203 -100 OFFCURVE",
"175 -100 CURVE SMOOTH"
);
}
);
width = 350;
},
{
layerId = "A6CBEFC3-C9E0-479E-A224-60A030287C4A";
paths = (
{
closed = 1;
nodes = (
"289 -220 OFFCURVE",
"365 -144 OFFCURVE",
"365 -50 CURVE SMOOTH",
"365 44 OFFCURVE",
"289 120 OFFCURVE",
"196 120 CURVE SMOOTH",
"103 120 OFFCURVE",
"25 43 OFFCURVE",
"25 -50 CURVE SMOOTH",
"25 -143 OFFCURVE",
"103 -220 OFFCURVE",
"196 -220 CURVE SMOOTH"
);
},
{
closed = 1;
nodes = (
"179 -80 OFFCURVE",
"165 -67 OFFCURVE",
"165 -50 CURVE SMOOTH",
"165 -33 OFFCURVE",
"179 -20 OFFCURVE",
"196 -20 CURVE SMOOTH",
"213 -20 OFFCURVE",
"225 -33 OFFCURVE",
"225 -50 CURVE SMOOTH",
"225 -67 OFFCURVE",
"213 -80 OFFCURVE",
"196 -80 CURVE SMOOTH"
);
}
);
width = 390;
}
);
},
{
export = 0;
glyphname = _meem.circle;
layers = (
{
anchors = (
{
name = markAbove;
position = "{244, 550}";
},
{
name = markBelow;
position = "{246, -150}";
}
);
layerId = master01;
paths = (
{
closed = 1;
nodes = (
"327 0 OFFCURVE",
"393 67 OFFCURVE",
"393 150 CURVE SMOOTH",
"393 217 OFFCURVE",
"350 274 OFFCURVE",
"290 293 CURVE SMOOTH",
"276 298 OFFCURVE",
"256 310 OFFCURVE",
"245 350 CURVE",
"235 310 OFFCURVE",
"216 298 OFFCURVE",
"202 294 CURVE SMOOTH",
"141 275 OFFCURVE",
"96 218 OFFCURVE",
"96 150 CURVE SMOOTH",
"96 67 OFFCURVE",
"163 0 OFFCURVE",
"245 0 CURVE SMOOTH"
);
},
{
closed = 1;
nodes = (
"217 100 OFFCURVE",
"195 122 OFFCURVE",
"195 150 CURVE SMOOTH",
"195 178 OFFCURVE",
"217 200 OFFCURVE",
"245 200 CURVE SMOOTH",
"273 200 OFFCURVE",
"295 178 OFFCURVE",
"295 150 CURVE SMOOTH",
"295 122 OFFCURVE",
"273 100 OFFCURVE",
"245 100 CURVE SMOOTH"
);
}
);
width = 490;
},
{
anchors = (
{
name = markAbove;
position = "{243, 550}";
},
{
name = markBelow;
position = "{245, -150}";
}
);
layerId = "A6CBEFC3-C9E0-479E-A224-60A030287C4A";
paths = (
{
closed = 1;
nodes = (
"338 0 OFFCURVE",
"414 76 OFFCURVE",
"414 170 CURVE SMOOTH",
"414 244 OFFCURVE",
"365 310 OFFCURVE",
"296 332 CURVE SMOOTH",
"272 341 OFFCURVE",
"261 348 OFFCURVE",
"244 399 CURVE",
"229 349 OFFCURVE",
"218 339 OFFCURVE",
"196 333 CURVE SMOOTH",
"125 311 OFFCURVE",
"74 245 OFFCURVE",
"74 170 CURVE SMOOTH",
"74 76 OFFCURVE",
"152 0 OFFCURVE",
"245 0 CURVE SMOOTH"
);
},
{
closed = 1;
nodes = (
"228 140 OFFCURVE",
"214 153 OFFCURVE",
"214 170 CURVE SMOOTH",
"214 187 OFFCURVE",
"228 200 OFFCURVE",
"245 200 CURVE SMOOTH",
"262 200 OFFCURVE",
"274 187 OFFCURVE",
"274 170 CURVE SMOOTH",
"274 153 OFFCURVE",
"262 140 OFFCURVE",
"245 140 CURVE SMOOTH"
);
}
);
width = 490;
}
);
},
{
export = 0;
glyphname = _meem.circle.2;
layers = (
{
anchors = (
{
name = markAbove;
position = "{190, 550}";
},
{
name = markBelow;
position = "{140, -150}";
}
);
layerId = master01;
paths = (
{
closed = 1;
nodes = (
"256 0 OFFCURVE",
"322 67 OFFCURVE",
"322 150 CURVE SMOOTH",
"322 226 OFFCURVE",
"281 294 OFFCURVE",
"193 349 CURVE",
"182 337 OFFCURVE",
"171 326 OFFCURVE",
"164 300 CURVE",
"87 295 OFFCURVE",
"25 229 OFFCURVE",
"25 150 CURVE SMOOTH",
"25 67 OFFCURVE",
"92 0 OFFCURVE",
"174 0 CURVE SMOOTH"
);
},
{
closed = 1;
nodes = (
"146 100 OFFCURVE",
"124 122 OFFCURVE",
"124 150 CURVE SMOOTH",
"124 178 OFFCURVE",
"146 200 OFFCURVE",
"174 200 CURVE SMOOTH",
"202 200 OFFCURVE",
"224 178 OFFCURVE",
"224 150 CURVE SMOOTH",
"224 122 OFFCURVE",
"202 100 OFFCURVE",
"174 100 CURVE SMOOTH"
);
}
);
width = 347;
},
{
anchors = (
{
name = markAbove;
position = "{190, 550}";
},
{
name = markBelow;
position = "{140, -150}";
}
);
layerId = "A6CBEFC3-C9E0-479E-A224-60A030287C4A";
paths = (
{
closed = 1;
nodes = (
"267 -20 OFFCURVE",
"344 56 OFFCURVE",
"344 150 CURVE SMOOTH",
"344 244 OFFCURVE",
"297 312 OFFCURVE",
"188 378 CURVE",
"179 368 OFFCURVE",
"154 341 OFFCURVE",
"147 318 CURVE",
"76 306 OFFCURVE",
"3 243 OFFCURVE",
"3 150 CURVE SMOOTH",
"3 57 OFFCURVE",
"81 -20 OFFCURVE",
"174 -20 CURVE SMOOTH"
);
},
{
closed = 1;
nodes = (
"157 120 OFFCURVE",
"143 133 OFFCURVE",
"143 150 CURVE SMOOTH",
"143 167 OFFCURVE",
"157 180 OFFCURVE",
"174 180 CURVE SMOOTH",
"191 180 OFFCURVE",
"203 167 OFFCURVE",
"203 150 CURVE SMOOTH",
"203 133 OFFCURVE",
"191 120 OFFCURVE",
"174 120 CURVE SMOOTH"
);
}
);
width = 347;
}
);
},
{
export = 0;
glyphname = _hah.head;
layers = (
{
anchors = (
{
name = dotAbove;
position = "{142, 500}";
},
{
name = markAbove;
position = "{142, 500}";
}
);
layerId = master01;
paths = (
{
closed = 1;
nodes = (
"411 -123 LINE",
"142 359 LINE",
"-25 359 LINE",
"25 259 LINE",
"70 259 LINE",
"328 -200 LINE"
);
}
);
width = 378;
},
{
anchors = (
{
name = dotAbove;
position = "{180, 500}";
},
{
name = markAbove;
position = "{180, 500}";
}
);
layerId = "A6CBEFC3-C9E0-479E-A224-60A030287C4A";
paths = (
{
closed = 1;
nodes = (
"431 -110 LINE",
"169 359 LINE",
"-25 359 LINE",
"45 219 LINE",
"99 219 LINE",
"335 -201 LINE"
);
}
);
width = 418;
}
);
},
{
export = 0;
glyphname = _hah.head.1;
layers = (
{
anchors = (
{
name = dotAbove;
position = "{140, 500}";
},
{
name = markAbove;
position = "{140, 500}";
}
);
layerId = master01;
paths = (
{
closed = 1;
nodes = (
"411 -123 LINE",
"167.576 313.172 LINE",
"83.604 234.797 LINE",
"328 -200 LINE"
);
}
);
width = 378;
},
{
anchors = (
{
name = dotAbove;
position = "{140, 540}";
},
{
name = markAbove;
position = "{140, 540}";
}
);
layerId = "A6CBEFC3-C9E0-479E-A224-60A030287C4A";
paths = (
{
closed = 1;
nodes = (
"411 -110 LINE",
"150 357 LINE",
"53 266 LINE",
"315 -201 LINE"
);
}
);
width = 378;
}
);
},
{
export = 0;
glyphname = _tail;
layers = (
{
anchors = (
{
name = _markBelow;
position = "{140, -150}";
}
);
layerId = master01;
paths = (
{
closed = 1;
nodes = (
"440 0 LINE",
"380 100 LINE",
"177 100 LINE SMOOTH",
"153 100 OFFCURVE",
"122 113 OFFCURVE",
"109 140 CURVE",
"25 0 LINE"
);
}
);
width = 613;
},
{
anchors = (
{
name = _markBelow;
position = "{140, -150}";
}
);
layerId = "A6CBEFC3-C9E0-479E-A224-60A030287C4A";
paths = (
{
closed = 1;
nodes = (
"418 0 LINE",
"358 140 LINE",
"201 140 LINE SMOOTH",
"177 140 OFFCURVE",
"146 153 OFFCURVE",
"133 180 CURVE",
"25 0 LINE"
);
}
);
width = 613;
}
);
},
